<svg xmlns="http://www.w3.org/2000/svg" viewBox="0 0 192.9 207.8"><path d="M90.1 9.5c-6.7 3.1-12.1 4.4-18.7 8.1-18.3 10.6-32.5 16.1-47 33.5s-25 41.2-24.3 66c.1 3.1.5 6.5 2.4 8.4 1.4 1.4 3.4 1.8 5.2 2 10.3 1.4 22 2.9 28.5 12.8 9.3 14.2 2.4 36.9 10.6 52.1 6.8 12.5 20.8 14.7 33.1 15.2 20.5.8 41.7-.2 60.2-10.9 23.4-13.5 39.5-41.1 49.1-70.5 3.6-11 6.1-24.8-.3-33.8-3.2-4.5-7.9-6.7-12.3-9.3-8.8-5.2-17.3-13.5-19.7-25.1-2-9.9.8-20.4-.8-30.4-2.5-15.5-15.6-25.8-28.4-27.4s-25.5 3.7-37.6 9.3z" fill="#f2a75b"/></svg>