<svg version="1.1" id="Слой_1" xmlns="http://www.w3.org/2000/svg" x="0" y="0" viewBox="0 0 127.6 127.6" xml:space="preserve"><style>.st1{fill:#212472}.st3{fill:#fde8c3}.st5{fill:#1b1c20}</style><path fill="#fef4e1" d="M0 0h127.6v127.6H0z"/><path class="st1" d="M110.3 112c-.1-.1-.3-.2-.4-.3-1.2-.6-2.6-1.1-4-1.2-1.4-.1-2.7 0-4 .3-2.6.6-5.1 2.1-6.8 4.2-1.8 2-2.9 4.6-3.1 7.3-.1 1.3 0 2.6.2 3.9v1.3H46.3c1-2.5 2.3-4.9 3.5-7 1.6-2.8 3.1-5.3 4.1-7.6 1.1-2.2 1.7-4.2 2.1-5.5.1-.6.2-1 .3-1.4l.4.8c.9 1.6 1.8 3.2 3.3 4.5.7.6 1.5 1.2 2.2 1.7l1.1.7.6.4.8.5h1.1c.3-.1.5-.1.8-.2.5-.1.9-.3 1.4-.5.9-.4 1.7-.8 2.5-1.2 1.7-.8 3.3-1.7 4.8-2.8 3-2.1 5.6-4.8 7.7-7.9.9-1.4 1.7-2.8 2.3-4.2 2.7.7 5.3 1.6 7.6 2.6 6.7 2.8 11.7 5.9 14.7 8.5 1.3 1.2 2.1 2.2 2.7 3.1zm-54.4-6.1c-.2.3-.3.8-.6 1.3-.6 1.2-1.4 3-2.6 5.1-1.2 2.1-2.8 4.5-4.5 7.3-1.4 2.3-2.9 4.9-4 7.9H29.8c0-1.9.1-3.8.3-5.6.1-.8.2-1.5.4-2.3.3-1.2.6-2.3 1-3.4.5-1.2 1-2.4 1.7-3.5 0-.1.1-.1.1-.2s.1-.1.1-.2c1.6-2.6 3.8-4.9 6.1-6.9 1.6-1.3 3.2-2.6 4.9-3.6.2.7.4 1.4.7 2 .5 1 .9 1.7 1.4 2.6.5.8.9 1.7 1.5 2.5.3.4.5.8.8 1.2l.2.3.3.4c.3.4.6.6 1 1l.5.5.1.1h.1l.1-.1.2-.3c.3-.3.5-.7.8-1.1l1-1.3 1.7-2.3.8-1.1.3-.3c-.1 0-.1 0 0 0z"/><path class="st1" d="M46.3 100.9c.1.7.4 1.5.7 2.2.3.7.9 1.6 1.3 2.4.5.8.9 1.6 1.4 2.4.2.4.5.7.8 1.1l.3.4 2.4-3.3.8-1.1.2-.2c-.3-.3-.5-.5-.7-.8-1.1-1.5-1.6-3.2-2-4.7 0-.1-.1-.3-.1-.4l-.3-.9c-.1-.3-.2-.6-.3-1-.4-1.5-.8-2.8-1.1-4.1h-.6c-.3.5-.8 1-1.2 1.7-.5.8-1.1 1.7-1.4 2.7-.2.5-.3 1-.3 1.5v1.1c0 .3 0 .5.1.8v.2z"/><path d="M38.1 34.9c-.2.3-.3.7-.5 1.1-.7 1.6-1.5 3.6-2 5.9-.6 2.3-.9 4.8-1 7.5v1c.1-.2.3-.3.5-.4 0-.3.1-.6.1-1 .5-4.1 1.7-8.1 3.9-11.7.2-.3.4-.5.6-.8-.3-.3-.6-.5-.8-.8-.3-.2-.6-.5-.8-.8zM91 39c-.5-2.5-1-5.3-2-7.8-.5-1.3-1.1-2.5-1.9-3.5-.8-1-1.9-1.9-3.1-2.6-1.5-.9-3.1-1.6-4.8-2.2-1.7-.6-3.4-1.1-5.1-1.6-3.5-.9-7-1.4-10.6-1.6-3.6-.2-7.2-.1-10.8.4-1.8.2-3.5.6-5.3 1-1.7.5-3.5.9-5.1 1.6-1.6.7-2.9 1.7-3.7 3-.8 1.3-1 3-.6 4.6.1.7.4 1.3.7 1.9.1.1.1.3.2.4.1.2.2.3.3.4.3.5.7 1.1 1.1 1.5l.6.6c.2.2.5.4.8.6.3.2.5.4.8.6.6.4 1.3.8 2 1.1h.1c-.5-.6-.9-1.3-1.3-2-.2-.3-.3-.7-.4-1-.1-.4-.2-.7-.3-1.1-.1-.3-.1-.7-.1-1.1V31c0-.3.1-.6.1-.9.3-1.8 1.2-3.2 2.1-3.9.8-.8 1.6-1 1.7-.8.3.4-1.4 2.3-1.8 5-.1.4-.1.8-.1 1.2 0 .3 0 .6.1.9v.2c.1.4.2.7.3 1.1.2.5.4.9.7 1.4.4.6.8 1.1 1.3 1.5.4.3.7.6 1.1.8l1.5.6c2.6.7 4.8 0 5.2.3 1.2-.1 2.3-.4 3.5-.6-.7-.1-1.5-.4-2.3-.8-2.4-1.5-3.5-4.3-3.2-6.9 0-.4.1-.7.2-1.1.1-.4.3-.8.5-1.2.1-.1.1-.2.2-.3.7-1.3 1.9-2.1 2.8-2.5.9-.3 1.5-.2 1.6 0 .1.4-.8 1-1.7 2.1-.3.3-.6.7-.8 1.2 0 0 0 .1-.1.1-.2.3-.3.7-.4 1-.6 2.1.2 4.7 2.1 5.8 1.8 1.2 3.8 1.2 3.9 1.7v.1c1.4-.4 2.8-.9 4.2-1.3.1 0 .2-.1.3-.1-.6 0-1.5-.2-2.1-.8-1-.9-1.4-2.2-1.4-3.4 0-1.1.3-2.2.8-3.2 0-.1.1-.1.1-.2.2-.4.4-.6.7-.9.9-.9 1.8-1.2 2.1-.9.1.2.1.4 0 .7-.1.3-.3.7-.5 1-.2.3-.4.7-.6 1-.4.7-.7 1.5-.6 2.3 0 .8.3 1.5.8 2 .4.4.9.7 1.3.9.4.2.7.4.8.6 0 .1 0 .3-.1.4.9-.3 1.9-.6 2.8-.9 1.5-.4 3-.7 4.7-.6 1.6.1 3.2.9 4.3 2 1.1 1.1 1.9 2.4 2.4 3.7 1 2.7 1 5.3 1.1 7.6 0 1.4.1 2.8.3 4 2.3 0 4.6.2 6.3.5 0 0 .1 0 .1.1.1-.2.2-.4.3-.5 0-.1.1-.1.1-.2.1-.1.2-.3.4-.4.1-.1.3-.2.4-.3.3-.2.6-.3.9-.3.6-.1 1.2-.1 1.8 0-.5-3.2-.9-6.9-1.7-10.8zm-2.9 14.5c-1.4-.3-3.4-.4-5.5-.5 0 .1 0 .2.1.3.8 3.1 2.1 5.5 3.3 7.2.1-1.2.2-2.3.5-3.2.6-2 1.5-3 1.7-2.9-.2 0-.2-.3-.1-.9z" fill="#95939d"/><path class="st3" d="M71.7 88c-3 1.2-6.1 2.1-9.4 2.8-2 .4-4 .8-5.9 1.2-1.6.3-3.3.6-5.1.7 0 .1.1.2.1.3.4 1.1.7 2.2 1.1 3.4l.3.9.3.9c0 .1.1.3.1.4.5 1.4.9 2.9 1.8 4 .3.4.8.8 1.2 1.1h.1l.3-.1 1-.5.6-.3 1.2-.6c1.5-.8 3-1.7 4.5-2.6 1.8-1.2 3.4-2.4 4.9-3.6.4-.3.8-.6 1.1-.9.1-.1.3-.2.4-.4.2-.2.4-.3.6-.5.7-.6 1.4-1.3 2.1-1.9.8-.8 1.5-1.5 2.1-2.2.4-.5.8-1 1-1.5v-1.5c0-.5 0-.9.1-1.4-1.5 1-3 1.7-4.5 2.3zM35.1 62.1c-.1-.3-.3-.6-.4-.9.2.7.3 1.3.5 2 0-.3-.1-.6-.1-.9.1-.1.1-.1 0-.2zm29.4-11.3c-5 0-6.2.5-6.2 2.7 0 2.9 3 5.2 6.8 5.2s6.8-2.3 6.8-5.2c0-2.3-2.6-2.7-7.4-2.7zm5.9 4c-.2.6-.7 1.3-1.4 1.8-.9.5-1.8.7-2.8.5-.5-.1-1-.3-1.4-.5-.5-.3-.8-.7-1.1-1.1-.5-.8-.8-1.6-.9-2.5 0-.3 0-.7.1-1 .1-.3.2-.7.3-1 .3-.1.6-.1 1-.1h.9c2.4 0 4.3.5 4.3 1 .2-.1.8.2 1 1.2.2.5.2 1.1 0 1.7z"/><path class="st3" d="M86.4 65.5c-.3-.8-.4-1.6-.4-2.4 0-.4-.1-.9-.1-1.3-1.5-1.7-3.5-4.4-4.6-8.2-.1-.2-.1-.4-.2-.6-3 0-5.8.1-7.3.2v.2c0 4-4 7.2-8.8 7.2-4.9 0-8.8-3.2-8.8-7.2-2.4-.9-4-.6-4.8-.2.2 1.2.3 2.5.2 4v.4c-.3 2.7-1.2 5.4-2.6 7.7-.7 1.2-1.6 2.2-1.8 3.1-.2.8.2 1.8 1 2.4 1.3 1.1 3.2 1 4.5 1 1.4-.1 2.3-.1 2.3.2.1.3-.7.8-2.1 1.2-.7.2-1.6.4-2.7.4-1 0-2.3-.4-3.4-1.2-.6-.5-1.2-1.1-1.5-1.9-.4-.8-.5-1.7-.3-2.5.4-1.7 1.4-2.7 2-3.7 1.2-2 2-4.3 2.3-6.6-.9 1-2 1.7-3.3 2.3-.4.2-.8.3-1.3.4-.4.1-.8.2-1.2.2-.3 0-.6.1-.9.1h-.9c-1.9-.1-3.6-.7-5-1.6 0 .7.1 1.3.1 2 0 .2 0 .4.1.5.1.8.1 1.5.3 2.3.1.6.2 1.1.2 1.6.1.5.1.9.2 1.4.1.4.1.8.2 1.1.1.4.1.7.2 1.1 1 5.1 2.6 10.1 4.7 14.8.8 1.8 1.6 3.7 2.7 5 .9 1.1 2.1 1.6 3.5 1.8.2 0 .5 0 .7.1h.7c1.7-.1 3.6-.5 5.4-.8 2-.3 3.9-.7 5.9-1.1 3.2-.7 6.3-1.6 9.1-2.7 1.9-.8 3.7-1.7 5.4-2.7.4-.3.8-.5 1.1-.8.4-.3.7-.5 1.1-.8l.1-.1c4.3-3.4 7-7.8 8.3-11.8.3-.8.5-1.6.7-2.4-.4-.6-.7-1.3-1-2.1zm-21.2 10c-.5.7-1.4 1.6-2.5 2.3-1.4.8-2.8 1.5-4.3 2-.8.3-1.7.5-2.6.7-.7.1-1.3.2-2 .3-2.6.2-4.7-.6-4.6-1.1.1-.3.8-.5 1.8-.6.7-.1 1.6-.2 2.6-.2 2.8-.3 5.6-1.2 8-2.7.8-.5 1.5-1 2.2-1.4.9-.5 1.6-.8 1.8-.6.2.2.1.7-.4 1.3zM41.3 48.8c-.2-.5.8-1.3 2.3-1.4 1.2-.1 2.3.1 3.5.4.3.1.7.2 1 .3.2.1.4.1.6.2.1.1.3.1.4.2.9.5 1.4 1.2 1.3 1.7.2.3.4.6.6 1.1 1.2-.4 3.2-.8 5.8.2 0-.1.1-.2.2-.3-.1 0-.3 0-.4-.1-.2-.1-.1-.8.6-1.4.6-.6 1.7-1.1 2.8-1.4 2.8-.7 5.7-.9 8.5-.8 2.4.1 4.2 1 4 1.5-.1.3-.6.4-1.4.5 1 .4 1.8.9 2.3 1.7 1.2-.1 4.2-.2 7.4-.3-.2-1.3-.3-2.6-.4-3.9-.2-2.3-.2-4.8-1.2-7-.9-2.2-2.7-4.2-5.2-4.4-2.5-.2-5.3 1-8.2 1.9-3.5 1.2-7 2.3-10.8 2.8-2.1.3-4.2.3-6.4 0-.3 0-.7-.1-1-.1-.3-.1-.7-.1-1-.2-1-.2-2-.5-2.9-1-.8-.4-1.6-.8-2.4-1.3-.1.2-.3.4-.4.7-2 3.2-3.1 6.9-3.6 10.7 1.2-.3 2.6-.3 4-.3z"/><path class="st3" d="M42.4 58.7h.3c.3 0 .5 0 .8-.1.4-.1.8-.1 1.2-.2.4-.1.9-.3 1.3-.5.5-.2.9-.5 1.3-.8h-1.1l-.9-.3c-.2-.1-.3-.1-.5-.2-.5-.3-.8-.7-1.1-1.1-.5-.8-.8-1.6-.9-2.5 0-.3 0-.7.1-1 .1-.3.2-.6.3-1 .2-.1.5-.1.8-.1h-3.6c-.4 0-.9 0-1.2.1-1 .1-1.7.2-2.2.4 0 .2 0 .4-.1.6-.1 1.5-.1 3.1-.1 4.6 1.1 1.3 3 2.1 5.1 2.2.2-.1.4-.1.5-.1zm48.8 8.5c.6-.1 1.3-.5 1.8-1.1.5-.5.8-1.3 1.1-2.1.9-3.3 2.1-7.1.8-10-.2-.5-.5-.9-.8-1.2-.2-.2-.5-.4-.7-.6-.2-.2-.5-.3-.7-.4-.1 0-.1-.1-.2-.1-.5-.2-1-.2-1.4-.2-.4 0-.7.2-1 .4l-.1.1c-.1.1-.2.2-.3.4-.1.1-.2.3-.3.4-.2.3-.4.7-.5.9-.3.5-.6.7-.7.7.3.1-.1 1.3-.3 3.2-.1.9-.2 2.1-.1 3.3.1.7.1 1.5.2 2.2 0 .1 0 .2.1.4 0 .1 0 .2.1.3 0 .2.1.4.1.6 0 .2.1.3.1.5.1.3.2.5.3.7.1.3.3.5.5.7.5.7 1.3 1 2 .9z"/><path d="M85.1 92.9l-.5-.5-.6-.6c-.8-.8-1.6-1.5-2.3-2.2-1.8-1.7-3-3.1-3.7-3.9-.1-.1-.2-.3-.3-.4 0 .3.1.7 0 1.3-.1.8-.3 1.7-.8 2.8-.2.5-.5 1.1-.9 1.7 0 0 0 .1-.1.1-.5.8-1.2 1.6-2 2.4l-.8.8c-.3.3-.5.6-.8.8l-.9.9s0 .1-.1.1c-1.9 1.8-4.1 3.6-6.6 5.2-1.5 1-3.1 1.9-4.6 2.7 0 0-.1 0-.1.1-.4.2-.7.4-1.1.5l-.8.4-.2.1.1.3.2.4c.1.2.2.4.3.5.7 1.3 1.6 2.5 2.6 3.5.6.5 1.3 1 2 1.5l1.1.7.9.5h.2c.2 0 .4-.1.5-.1.4-.1.8-.3 1.1-.4.8-.3 1.5-.7 2.4-1.1 1.6-.8 3.1-1.6 4.5-2.6 2.8-2 5.3-4.5 7.2-7.4.8-1.1 1.5-2.3 2-3.5.1-.3.2-.5.4-.8.1-.3.2-.5.3-.8.3-.7.6-1.4.8-2.1.1-.3.2-.5.3-.8.3 0 .3-.1.3-.1zm-2 2.8c-.1.2-.1.5-.2.8-.1.3-.2.5-.3.8 0 .1-.1.2-.1.2-1 2-2.2 3.8-3.6 5.4-1.2 1.4-2.5 2.1-2.7 1.9-.2-.2.8-1.3 1.9-2.6 1.4-1.6 2.5-3.3 3.5-5.2.1-.3.3-.5.4-.8.1-.3.3-.5.4-.8.4-.8.7-1.3.9-1.2 0 .2 0 .7-.2 1.5zm30.4 22.9l-1-1.5c-.3-.5-.6-1-.9-1.4 0 0 0-.1-.1-.1 0-.1-.1-.1-.1-.2l-.2-.2c-.6-.7-1.4-1.3-2.2-1.8-1-.5-2.1-.9-3.2-1-1.1-.1-2.3 0-3.4.3-4.5 1-8 5.2-8.4 9.8-.2 1.7.1 3.4.6 5h3.9c-.3-.7-.6-1.4-.9-2.2-.8-2.1-.8-4.3-.4-5.7.4-1.5 1.1-2.1 1.2-2.1.1.1-.3.9-.5 2.2-.2 1.3-.1 3.3.7 5.2.3.8.7 1.7 1 2.5h19.3c-1.7-2.8-3.5-5.8-5.4-8.8z" fill="#2a2886"/><path class="st5" d="M63.8 55.5c.3.4.6.8 1.1 1.1.4.3.9.4 1.4.5 1 .2 1.9 0 2.8-.5.7-.4 1.2-1.1 1.4-1.8.2-.7.2-1.3.1-1.7-.2-1-.8-1.3-1-1.2 0-.6-1.9-1-4.3-1.1h-.9c-.4 0-.7 0-1 .1-.1.3-.2.6-.3 1-.1.3-.1.7-.1 1 0 1 .3 1.8.8 2.6zm-10 25.3c.7-.1 1.3-.2 2-.3.9-.2 1.7-.4 2.6-.7 1.5-.5 3-1.2 4.3-2 1.1-.7 2-1.6 2.5-2.3.5-.6.6-1.2.5-1.4-.3-.2-.9.1-1.8.6-.6.4-1.4.9-2.2 1.4-2.4 1.5-5.2 2.4-8 2.7-1 .1-1.8.2-2.6.2-1.1.1-1.8.3-1.8.6-.2.6 1.9 1.4 4.5 1.2z"/><path class="st5" d="M115.2 117.5l-1-1.6c-.4-.5-.7-1-1.1-1.6-.6-.7-1.3-1.4-2-1.9 0-.1 0-.1-.1-.2-.4-1-1.4-2.4-2.8-3.8-3-2.9-8-6.3-14.7-9.3-2.3-1-4.8-2-7.5-2.7.3-.7.5-1.4.7-2 .1-.3.2-.7.3-1 .1-.3.2-.6.2-.8v-.1l-.1-.1-.2-.1-.3-.3-.5-.5-.3-.3c-.2-.2-.4-.4-.7-.6-.9-.8-1.7-1.4-2.4-2-2.2-1.8-3.8-3-4.5-3.5 0-.2 0-.4.1-.6.5-.4 1-.7 1.5-1.1 4.7-3.7 7.4-8.7 8.6-12.9.2-.6.3-1.3.5-1.9.3.2.6.4 1 .5.6.2 1.2.2 1.8.1 1.2-.2 2.1-.9 2.9-1.7.7-.8 1.2-1.8 1.5-2.7s.5-1.9.8-2.7c.2-.9.4-1.8.6-2.8.3-1.9.3-4-.7-6-.4-.8-.9-1.5-1.6-2.1-.3-.3-.7-.5-1.1-.7-.1-3.5-.4-7.5-1.2-11.8-.5-2.6-.9-5.3-1.9-8.2-.5-1.4-1.2-2.8-2.2-4.1-1-1.3-2.3-2.3-3.7-3.1-1.7-1-3.4-1.7-5.2-2.3-1.8-.7-3.5-1.2-5.3-1.7-3.6-.9-7.3-1.5-11-1.7-3.7-.2-7.5-.1-11.1.4-1.8.2-3.7.6-5.5 1-1.8.5-3.6.9-5.4 1.7-1.8.8-3.5 2-4.6 3.8-1.1 1.8-1.3 4.1-.8 6 .3 1.1.7 2.2 1.3 3.2-.3.5-.7 1-1 1.6-.9 1.6-1.9 3.7-2.6 6.1-.7 2.4-1.1 5.1-1.2 8 0 1.3.1 2.7.2 4-.8 1.9-.8 3.9-.5 5.7.1 1 .4 1.9.6 2.8.2.9.4 1.8.8 2.7.3.9.8 1.9 1.5 2.7.3.3.5.5.9.8 1 5.7 2.7 11.3 5 16.6.9 1.8 1.6 3.8 3 5.5.7.9 1.7 1.6 2.8 2 .3.1.5.2.8.3l-1 1c-.7.8-1.4 1.8-2 3-.4 1-.6 2.1-.6 3.3-2.1 1.2-4 2.7-5.9 4.2-2.6 2.2-5.1 4.8-6.8 7.8-1.8 3-2.9 6.4-3.3 9.9-.1.7-.1 1.3-.2 2-.2.7-.5 1.4-.8 2.1l-.6 1.8h3.2c0-1.9.1-3.8.3-5.6.1-.8.2-1.5.4-2.3.3-1.2.6-2.3 1-3.4.5-1.2 1-2.4 1.7-3.5 0-.1.1-.1.1-.2s.1-.1.1-.2c1.6-2.6 3.8-4.9 6.1-6.9 1.6-1.3 3.2-2.6 4.9-3.6.2.7.4 1.4.7 2 .5 1 .9 1.7 1.4 2.6.5.8.9 1.7 1.5 2.5.3.4.5.8.8 1.2l.2.3.3.4c.3.4.6.6 1 1l.5.5.1.1h.1l.1-.1.2-.3c.3-.3.5-.7.8-1.1l1-1.3 1.7-2.3.8-1.1.2-.3c-.2.3-.3.8-.6 1.3-.6 1.2-1.4 3-2.6 5.1-1.2 2.1-2.8 4.5-4.5 7.3-1.4 2.3-2.9 4.9-4 7.9h2.1c1-2.5 2.3-4.9 3.5-7 1.6-2.8 3.1-5.3 4.1-7.6 1.1-2.2 1.7-4.2 2.1-5.5.1-.6.2-1 .3-1.4l.4.8c.9 1.6 1.8 3.2 3.3 4.5.7.6 1.5 1.2 2.2 1.7l1.1.7.6.4.8.5h1.1c.3-.1.5-.1.8-.2.5-.1.9-.3 1.4-.5.9-.4 1.7-.8 2.5-1.2 1.7-.8 3.3-1.7 4.8-2.8 3-2.1 5.6-4.8 7.7-7.9.9-1.4 1.7-2.8 2.3-4.2 2.7.7 5.3 1.6 7.6 2.6 6.7 2.8 11.7 5.9 14.7 8.5 1.3 1.1 2.2 2.1 2.7 3-.1-.1-.3-.2-.4-.3-1.2-.6-2.6-1.1-4-1.2-1.4-.1-2.7 0-4 .3-2.6.6-5.1 2.1-6.8 4.2-1.8 2-2.9 4.6-3.1 7.3-.1 1.3 0 2.6.2 3.9v1.3h2.4c-.5-1.6-.8-3.3-.6-5 .4-4.5 3.9-8.8 8.4-9.8 1.1-.3 2.3-.4 3.4-.3 1.1.1 2.2.4 3.2 1 .8.5 1.6 1.1 2.2 1.8l.2.2c0 .1.1.1.1.2 0 0 0 .1.1.1.3.4.6.9.9 1.4l1 1.5c1.9 2.9 3.7 5.9 5.4 9h2.3c-1.8-3.4-3.8-6.8-5.9-10.1zM93.3 52.2c.3.2.5.4.7.6.3.3.6.7.8 1.2 1.4 2.9.2 6.6-.8 10-.3.8-.6 1.5-1.1 2.1-.5.5-1.1 1-1.8 1.1-.8.2-1.5-.2-2.1-.8-.2-.2-.4-.5-.5-.7-.1-.2-.2-.5-.3-.8 0-.1-.1-.3-.1-.5s-.1-.4-.1-.6v-.3c0-.1 0-.2-.1-.4-.1-.8-.2-1.5-.2-2.2-.1-1.3 0-2.4.1-3.3.2-1.9.6-3.1.3-3.2-.2-.1-1.1.9-1.7 2.9-.3.9-.5 2-.5 3.2-1.2-1.7-2.5-4.1-3.3-7.2 0-.1 0-.2-.1-.3 2.1 0 4.1.2 5.5.5-.1.5-.1.9 0 .9.1.1.4-.2.7-.7.2-.2.3-.6.5-.9.1-.1.2-.3.3-.4.1-.1.2-.3.3-.4l.1-.1c.3-.3.5-.4 1-.4s.9 0 1.4.2c.1 0 .1.1.2.1.3.1.6.3.8.4zM38.6 25.5c.8-1.3 2.2-2.3 3.7-3 1.6-.7 3.3-1.1 5-1.6 1.8-.4 3.5-.8 5.3-1 3.5-.5 7.2-.7 10.8-.4 3.6.2 7.1.8 10.6 1.6 1.7.5 3.5 1 5.1 1.6 1.7.6 3.4 1.3 4.8 2.2 1.2.7 2.3 1.6 3.2 2.6.8 1 1.4 2.3 1.9 3.5.9 2.6 1.5 5.3 2 7.8.8 3.9 1.2 7.6 1.4 10.9-.6-.1-1.2-.1-1.8 0l-.9.3c-.1.1-.3.2-.4.3-.1.1-.3.2-.4.4 0 .1-.1.1-.1.2-.1.2-.2.4-.3.5h-.1c-1.6-.4-3.9-.5-6.3-.5-.2-1.3-.3-2.6-.3-4-.1-2.3-.1-4.9-1.1-7.6-.5-1.3-1.3-2.6-2.4-3.7-1.1-1.1-2.7-1.8-4.3-2-1.6-.2-3.2.2-4.7.6-1 .3-1.9.6-2.8.9.1-.1.2-.3.1-.4-.1-.3-.4-.4-.8-.6-.4-.2-.8-.5-1.3-.9-.5-.5-.8-1.2-.8-2s.2-1.6.6-2.3c.2-.4.4-.7.6-1 .2-.4.4-.7.5-1 .1-.3.1-.6 0-.7-.3-.3-1.2 0-2.1.9-.2.3-.5.5-.7.9 0 .1-.1.1-.1.2-.5.9-.8 2-.8 3.2 0 1.2.5 2.5 1.4 3.4.7.6 1.5.9 2.1.8-.1 0-.2.1-.3.1-1.4.5-2.8.9-4.3 1.4V37c-.1-.5-2.1-.5-3.9-1.7-1.9-1.1-2.7-3.7-2.1-5.8.1-.4.3-.7.4-1 0 0 0-.1.1-.1.3-.4.5-.8.8-1.2.9-1.1 1.9-1.7 1.7-2.1-.1-.3-.7-.4-1.6 0-.9.3-2 1.1-2.8 2.4-.1.1-.1.2-.2.3-.2.4-.3.8-.5 1.2-.1.4-.2.7-.2 1.1-.3 2.7.8 5.5 3.2 7 .8.5 1.5.7 2.3.8-1.2.3-2.3.5-3.5.6-.4-.3-2.7.4-5.2-.3-.5-.1-1-.3-1.5-.6-.4-.2-.8-.5-1.1-.8-.5-.4-1-.9-1.3-1.5-.3-.4-.5-.9-.7-1.3-.1-.3-.2-.7-.3-1.1v-.2c0-.3-.1-.6-.1-.9 0-.4 0-.8.1-1.2.5-2.8 2.2-4.6 1.8-5-.1-.2-.9 0-1.7.8-.8.8-1.8 2.2-2.1 3.9 0 .3-.1.6-.1.8v1.2c0 .4.1.7.1 1.1.1.4.2.7.3 1.1.1.3.3.7.4 1 .3.7.8 1.4 1.3 2h-.1c-.7-.3-1.3-.6-2-1-.3-.2-.5-.4-.8-.6-.3-.2-.5-.4-.8-.6l-.6-.6c-.4-.5-.8-1-1.1-1.5-.1-.2-.2-.3-.3-.5-.1-.1-.1-.3-.2-.4-.3-.6-.5-1.3-.7-1.9 0-1.9.2-3.5 1-4.9zM71 49.6c.8-.1 1.3-.2 1.4-.5.1-.5-1.7-1.4-4-1.5-2.8-.1-5.7.1-8.5.8-1.2.3-2.2.8-2.8 1.4-.7.6-.8 1.2-.6 1.4.1.1.2.1.4.1 0 .1-.1.2-.1.3-2.6-.9-4.6-.6-5.8-.2-.2-.5-.4-.9-.6-1.1 0-.4-.4-1.2-1.3-1.7-.1-.1-.3-.1-.4-.2-.2-.1-.4-.1-.6-.2-.3-.1-.7-.2-1-.3-1.1-.3-2.3-.4-3.5-.4-1.4 0-2.4.8-2.3 1.3-1.4 0-2.8 0-4.1.3.5-3.8 1.6-7.5 3.6-10.7.1-.2.3-.4.5-.7.8.5 1.6.9 2.4 1.3 1 .4 2 .7 3 1 .3.1.7.1 1 .2.3.1.7.1 1 .2 2.1.3 4.3.3 6.4 0 3.8-.5 7.3-1.6 10.8-2.8 2.9-.9 5.7-2.1 8.2-1.9 2.5.1 4.3 2.2 5.2 4.4.9 2.2 1 4.7 1.2 7 .1 1.4.2 2.7.4 3.9-3.2 0-6.2.2-7.4.3-.7-.8-1.5-1.4-2.5-1.7zm.9 3.9c0 2.9-3 5.2-6.8 5.2s-6.8-2.3-6.8-5.2c0-2.1 1.2-2.7 6.2-2.7 4.8 0 7.4.4 7.4 2.7zm-37.1 7.7c.1.3.3.6.4.9v.1c0 .3.1.6.1.9-.2-.6-.4-1.3-.5-1.9zm.4-12.1c0 .3-.1.6-.1 1-.2.1-.3.3-.5.4v-1c0-2.7.4-5.3 1-7.5.6-2.3 1.3-4.3 2-5.9.2-.4.3-.7.5-1.1.2.3.5.6.7.9l.8.8c-.2.3-.4.5-.6.8-2.1 3.5-3.3 7.6-3.8 11.6zm1.8 2.7v-.6c.5-.2 1.3-.3 2.2-.4H44c-.3 0-.6 0-.8.1-.1.3-.2.6-.3 1-.1.3-.1.7-.1 1 .1.9.4 1.8.9 2.5.3.4.6.8 1 1.1.1.1.3.2.5.2l.9.3h.1c.3.1.7.1 1 0-.4.3-.8.6-1.3.8-.4.2-.8.3-1.3.5-.4.1-.8.2-1.2.2-.3 0-.5 0-.8.1h-.8c-2.1-.1-3.9-1-5.1-2.2.1-1.5.1-3 .3-4.6zM45.6 89c-1.1-1.3-1.9-3.2-2.7-5-2.1-4.8-3.6-9.7-4.7-14.8-.1-.3-.1-.7-.2-1.1-.1-.4-.1-.8-.2-1.1-.1-.5-.1-.9-.2-1.4-.1-.5-.2-1.1-.2-1.6-.1-.8-.2-1.5-.3-2.3 0-.2 0-.4-.1-.5 0-.7-.1-1.3-.1-2 1.4.9 3.1 1.5 5 1.6h.9c.3 0 .6 0 .9-.1.4 0 .8-.1 1.2-.2.4-.1.8-.2 1.3-.4 1.3-.5 2.4-1.3 3.3-2.3-.3 2.3-1.1 4.6-2.3 6.6-.6 1-1.6 2-2 3.7-.2.8-.1 1.8.3 2.5.3.8.9 1.4 1.5 1.9 1 .8 2.3 1.2 3.4 1.2s2-.2 2.7-.4c1.4-.5 2.2-1 2.1-1.2-.1-.3-1-.3-2.3-.2-1.3.1-3.2.1-4.5-1-.8-.6-1.3-1.6-1-2.4.2-.9 1.1-1.9 1.8-3.1 1.4-2.4 2.3-5 2.6-7.7v-.4c.1-1.5 0-2.8-.2-4 .8-.3 2.5-.7 4.8.2 0 4 4 7.2 8.8 7.2 4.8 0 8.8-3.2 8.8-7.2v-.2c1.4-.1 4.3-.2 7.3-.2 0 .2.1.4.2.6 1.2 3.9 3.1 6.5 4.6 8.2 0 .4 0 .8.1 1.3.1.7.2 1.5.4 2.4.2.8.6 1.5 1.2 2.2-.2.8-.4 1.6-.7 2.4-1.3 4-3.9 8.4-8.3 11.8l-.1.1c-.3.3-.7.5-1.1.8-.4.3-.7.5-1.1.8-1.7 1-3.5 2-5.4 2.7-2.8 1.1-5.9 2-9.1 2.7-1.9.4-3.9.8-5.9 1.1-1.8.3-3.7.7-5.4.8H50c-.3 0-.5 0-.7-.1-1.6-.3-2.8-.8-3.7-1.9zm8.4 16l-.8 1.1-2.4 3.3-.3-.4c-.3-.3-.5-.7-.8-1.1-.5-.8-1-1.6-1.4-2.4-.4-.8-1-1.7-1.3-2.4-.3-.7-.6-1.5-.7-2.2 0-.1 0-.2-.1-.2 0-.3-.1-.5-.1-.8v-1.1c0-.5.1-1.1.3-1.5.3-1 .9-2 1.4-2.8.5-.6.9-1.2 1.2-1.7h.6c.3 1.3.7 2.6 1.1 4.1.1.3.2.6.3 1l.3.9c0 .1.1.3.1.4.4 1.4.9 3.1 2 4.7.2.3.5.6.7.8l-.1.3zm2.6-1.3l-.3.1h-.1c-.5-.3-.9-.7-1.2-1.1-.9-1.1-1.4-2.6-1.8-4 0-.1-.1-.3-.1-.4l-.3-.9-.3-.9c-.4-1.2-.8-2.3-1.1-3.4 0-.1-.1-.2-.1-.3 1.8-.1 3.4-.5 5.1-.8 2-.3 4-.7 5.9-1.2 3.3-.7 6.5-1.6 9.4-2.8 1.5-.6 3-1.4 4.4-2.2 0 .5-.1.9-.1 1.4v1.5c-.3.5-.6 1-1 1.5-.6.7-1.3 1.4-2.1 2.2-.6.6-1.3 1.3-2.1 1.9-.2.2-.4.3-.6.5l-.4.4c-.4.3-.7.6-1.1.9-1.5 1.2-3.2 2.5-4.9 3.6-1.5 1-2.9 1.8-4.5 2.6l-1.2.6-.6.3-.9.5zM85.1 93c-.1.3-.2.5-.3.8-.2.7-.5 1.4-.8 2.1-.1.3-.2.5-.3.8-.1.3-.2.5-.4.8-.6 1.2-1.3 2.4-2 3.5-2 2.9-4.4 5.4-7.2 7.4-1.4 1-2.9 1.9-4.5 2.6-.8.4-1.6.8-2.4 1.1-.4.2-.8.3-1.1.4-.2 0-.4.1-.5.1h-.2l-.9-.5-1.1-.7c-.7-.5-1.4-1-2-1.5-1-.9-1.8-2.2-2.6-3.5-.1-.2-.2-.4-.3-.5l-.2-.4-.1-.3.2-.1.8-.4c.4-.2.7-.4 1.1-.5 0 0 .1 0 .1-.1 1.6-.8 3.1-1.8 4.6-2.7 2.5-1.7 4.7-3.5 6.6-5.2l.1-.1.9-.9c.3-.3.5-.6.8-.8.3-.3.5-.6.8-.8.7-.8 1.4-1.6 2-2.4l.1-.1c.4-.6.7-1.1.9-1.7.5-1.1.7-2 .8-2.8v-1.3c.1.1.2.2.3.4.6.8 1.9 2.2 3.7 3.9.7.7 1.4 1.4 2.3 2.2l.6.6.4.4c-.2.1-.2.2-.2.2z"/><path class="st5" d="M99.6 127.6h-1.1c-.3-.7-.6-1.4-.9-2.2-.8-2.1-.8-4.3-.4-5.7.4-1.5 1.1-2.1 1.2-2.1.1.1-.3.9-.5 2.2-.2 1.3-.1 3.3.7 5.2.3 1 .6 1.8 1 2.6zm-23.5-22.7c.2.2 1.4-.6 2.7-1.9 1.4-1.6 2.7-3.5 3.6-5.4 0-.1.1-.2.1-.2.1-.3.2-.5.3-.8.1-.3.2-.5.2-.8.2-.8.2-1.3.1-1.4-.2-.1-.5.4-.9 1.2-.1.2-.2.5-.4.8-.1.2-.2.5-.4.8-.9 1.9-2.1 3.6-3.5 5.2-1 1.2-1.9 2.3-1.8 2.5z"/></svg>