<svg xmlns="http://www.w3.org/2000/svg" viewBox="0 0 127.6 127.6"><path fill="none" d="M35.5 90.3s0-.1 0 0c0-.1-.1-.1 0 0-.1-.1 0 0 0 0zm56.6-9.5c-.1 0-.1.1-.2.1-.2.3-.3.5-.5.8-.2.3-.4.7-.7 1l-.4.5c-.2.2-.2.2-.5.6l-1.6 1.5c-.5.4-.9.7-1.4 1-2.4 5.2-5.4 9.6-8.5 12.8-.3.4-.6.7-1 1C89 95.5 91.6 85.7 92.1 80.8c.1 0 .1 0 0 0z"/><path fill="#904321" d="M41.2 85.7c-.7-1.5-1.3-3-1.8-4.6 0 0-.1 0-.1.1-.7.2-1.7.1-2.4-.4-1.4-.8-2.1-2.2-2.7-3.6v-.1c0 .3-.1.7-.1 1-.2 4 .3 7.2.8 9.4.2.8.4 1.5.5 2.1.2.4.2.6.2.7.1 0 .3.1.6.4l.6.6c.3.2.6.4 1 .6.7.5 1.7.8 2.9 1.1 1.2.1 2.6.2 4.1-.1.1 0 .2 0 .3-.1-1.5-2.1-2.8-4.5-3.9-7.1z"/><g fill="#F2A75B"><path d="M84.8 38.1c1 .9 1.9 1.9 2.9 3.1.2.2.4.5.6.7v.1l.1.1c.2.2.7.8 1.5 1.8.8 1.1 1.9 2.9 2.9 5.2.1.2.2.5.3.7l.1.4 2.1-.5c-.7-5.4-2.4-10.3-4.9-14.5-1.6-2.7-3.5-5.1-5.6-7.1-2.3-2.2-4.8-3.9-7.4-5.2-2.5-1.3-5.3-2.1-8.3-2.5-1.1-.1-2.2-.2-3.3-.2-1.7 0-3.3.2-4.7.6-.2.1-.4.1-.7.2l-1.8.6 1.4 1.3.9.9c.3.3.6.6.8.9.3.3.5.7.8 1 .6.9 1.2 1.9 1.7 3l.3.6.6 1.4h.7c2.7-.1 11.5.5 19 7.4zm3.8 42.4c-.1.4-.1.9-.2 1.3v.2l.5-.6.1-.2.3-.3c-.1 0-.1-.1-.2-.1-.2-.1-.4-.2-.5-.3z"/><path d="M92.7 58.1c-.3-1.7-.8-3.4-1.2-5-5.6-18-19.8-20.1-24.1-20.3l-1.5-.1.3 1.4c.1.6.3 1.2.4 1.8l.3 2.1.1.6.1.5c.1.9.2 1.7.2 2.4 0 1-.1 2-.3 2.9l-.2.7.5.4c.9.7 2 1.5 3.4 2.3.3.2.7.4 1 .6 1.3.8 2.9 1.7 4.3 2.8 1.9 1.4 3.6 3.2 5.1 5.1 1.6 2.1 2.9 4.4 4 6.9.5 1.3.9 2.6 1.3 4l1 3.7 1.1-3.6.1-.4c.3-.7.6-1.5 1-2.2.3-.4.6-.8 1-1.1l.3-.2.4-.1c.1 0 .2 0 .3-.1h.5l.3-.3c.1-.1.2-.2.3-.2l.5-.4-.1-.7c0-1.1-.2-2.4-.4-3.5z"/></g><path fill="#F2A75B" d="M67.3 41.1V41c-.3-1.1-.8-2.2-1.3-3.2l1-.4c-.1-.5-.2-.9-.2-1.4-.1-.7-.3-1.5-.5-2.4l-.2-.6-.6-.2c-.5-.1-.8-.5-.8-1 0-.3.1-.6.3-.8l.4-.5-.4-.9-.1-.1c-.6-.7-1.3-1.3-2-1.9l.8-.7c-.5-.8-1-1.6-1.6-2.3-.3-.4-.6-.7-.9-1-.3-.3-.7-.7-1.1-1-.1-.1-.3-.2-.4-.3l-.2-.2c-.2-.2-.4-.3-.6-.5 0 0-.1-.1-.2-.1l-.9-.6c-1.9-1.1-4.1-1.7-6.1-1.7-1.2 0-2.4.2-3.5.6-3.4 1.3-6 4.3-8.3 7.4-4.4 5.9-7.8 12.9-9.7 20.1-1.1 4-1.7 8.1-1.9 12.3l1.1.1c-.6 3.4-.9 6.8-.7 10.3v.2c.2 1.7.5 3.4.8 5.1.2 1 .4 2 .7 3l1.1-.2c.1.5.2 1.1.3 1.6l2.2-.3V78c0-2 .3-4 .8-5.9l.1-.3c0-.1 0-.2.1-.3.3-1.1.7-2.1 1.2-3.2.4-.8.8-1.7 1.3-2.5l.1-.2.6-.9.8-1c.1-.2.3-.4.5-.6 1.3-1.6 2.9-3.1 4.6-4.4 2.2-1.6 5-2.9 8.2-3.8.6-.2 1.2-.4 1.8-.5 3.1-.9 6.1-1.7 8.6-3.4 1.2-.8 2.1-1.6 2.9-2.6.3-.3.5-.6.8-1.1.1-.1.1-.2.2-.3l.3-.6.1-.1c.3-.6.5-1.1.6-1.7.1-.3.1-.6.2-.9 0-.3.1-.5.1-.8 0-.4.1-.8.1-1.3l-.5-.5z"/><path d="M35.4 70.9c-.1 1.9.1 3.8.8 5.5.4 1.1 1.1 2.2 1.7 2.6.3.2.6.3.9.3-1.1-3.4-1.9-7-2.4-10.8-.4.9-.7 1.6-1 2.4zM90.5 79c-.2-.3-.4-.7-.6-1-.2-.5-.5-1.1-.6-1.7-.2-.8-.4-1.6-.5-2.5-.1-.6-.1-1.2-.1-1.8 0 .2-.1.5-.1.7-.1.5-.1 1-.2 1.4-.2 1.6-.4 2.6-.6 2.9 0-1.6-.1-3.3-.4-5.1-.5-3-1.2-5.9-2.2-8.4-1-2.6-2.3-4.9-3.9-7-1.5-2-3.2-3.8-5-5.3-1.3-1.1-2.7-2-4-2.9-.4-.3-.8-.5-1.2-.8-1-.7-1.9-1.4-2.7-2.1l-1.2-1.1-.6 1.5c-.1.2-.2.5-.3.7l-.3.6-.1-.1c0 .1-.1.1-.1.2-.2.3-.4.6-.6.8-.8 1.1-1.9 2-3.2 2.8-2.6 1.7-5.6 2.6-8.5 3.4-.7.2-1.3.4-2 .6-3.3.9-5.9 2.2-8.2 3.8-1.7 1.2-3.2 2.6-4.6 4.2-.2.3-.4.5-.6.8l-.2.4c-.1.2-.3.4-.4.6l-.1.1.9.6-1-.5-.2.3v.4c.4 4.4 1.2 8.7 2.4 12.6 0 .2.4 1.4.5 1.7.6 2 1.3 3.8 2 5.4 1.1 2.6 2.5 5.2 4 7.6 0 0 .4.6.5.8.1.2.5.8.5.8 1.4 2 2.8 3.8 4.3 5.5 2.7 2.9 5.7 5.4 9 7.5 1.3 1 2.5 1.1 3.3 1.1h.1c.6.1.8.1.8.1-.3-.1-.6-.4-.7-.9H66c0 .6-.4.9-.6 1h.1c.2-.1.5-.1.8-.3.4-.2.8-.4 1.4-.8.1-.1.3-.2.5-.3.3-.2.7-.5 1-.7l1.4-1-.6-.9c-.1-.1-.2-.3-.2-.4-.1-.3 0-.6.2-.8.2-.2.4-.4.7-.5 1.3-.2 2.5-.5 3.8-.9l.3-.1.2-.2c1.1-1.1 2.1-2.1 3-3.2 2.9-3.4 5.5-7.5 7.6-11.9l.7-1.8c.1-.4.2-.6.3-1l.5-1.8c0-.1.1-.2.1-.4v-.2c.2-1 .3-2 .4-3.3v-1.4c.1 0 .1.1.2.2s.1.2.2.4.3.5.5.8l.1.1c.1.2.3.3.5.5.1.1.2.1.3.2.2.1.4.2.6.2h.1c.1 0 .3 0 .4-.1.1.1.1 0 0-.1z" fill="#FDE8C3"/><g fill="#1B1C20"><path d="M58.4 89l.3.3c.5.5 1.2.7 1.6.8.6.1 1 .1 1.5.2.9.1 2-.1 2.7-.6.7-.5 1.1-1.2 1.1-1.6 0-.5-.1-.7-.3-.7-.3 0-.6.7-1.5 1-.4.1-1 .1-1.8-.1-.4-.1-.9-.2-1.2-.3h-.1c-.3-.1-.5-.2-.5-.3v-.1c0-.1.1-.3.2-.5 0-.1.1-.1.1-.2.2-.4.5-.9.8-1.4.1-.2.2-.5.3-.8.4-.9.8-1.9 1-2.9.1-.5.2-1.1.3-1.6.3-2 .1-4.1-.3-6.1-.5-2.1-1.4-3.8-2.3-4.9-.8-1.1-1.5-1.6-1.8-1.4-.3.2 0 1 .4 2.2.4 1.2 1.1 2.8 1.5 4.6.5 2.2.5 4.5 0 6.7-.3 1.1-.6 2.2-1.2 3.1-.2.5-.5.9-.9 1.6-.1.3-.3.6-.3 1v.2c0 .3 0 .7.1 1 .1.4.2.6.3.8zm10.3-25.5l.9-.3c.9-.3 1.8-.6 2.7-.7.4-.1.7-.1 1.1-.2.4-.1.7-.1 1.1-.1h.6c.3 0 .6-.1 1-.1 2.1-.1 3.8-.3 3.9-.9.1-.6-1.7-1.4-4-1.3-.6 0-1.1.1-1.6.1-.4 0-.7.1-1.1.1-.4.1-.7.1-1.1.2-1.4.3-2.9.7-4.2 1.2-2.2.8-3.5 2.2-3.2 2.7.3.5 2 0 3.9-.7zM54 61.1c-2.6-.8-5.4-1.2-8.2-1.1-2.3.1-4 1-3.9 1.6.1.6 1.9.7 4 .6h1c1.9 0 3.7.3 5.5.7.3.1.6.1.9.2 2 .6 3.7.9 4 .4.3-.4-1.1-1.7-3.3-2.4zm-.5 4.5c-.2-.1-.4-.2-.6-.2-1.9-.6-4-.7-6-.4-1.6.3-2.8 1.1-2.7 1.3 0 .1.4.1.9.1l2.2.2c-.1.2-.1.5-.2.8-.2 1.3-.2 3.1.3 5.1.2.6.3 1.2.6 1.7.2.6.6 1.3 1.2 1.9.7.6 1.7.9 2.6.6.4-.1.8-.3 1.2-.6.3-.3.6-.7.8-1 .4-.7.4-1.3.6-1.9.1-.6.3-1.2.4-1.8.2-1.2.2-2.4.2-3.6v-.2c.1 0 .1-.1.1-.1.2-.3 0-.7-.5-1.1-.2-.5-.7-.7-1.1-.8zm22.6-.6c-.5-.1-1-.1-1.5-.2h-1.1c-.4 0-.7.1-1.1.1-.7.1-1.5.2-2.2.4-.2.1-.4.1-.6.2-.5.1-.9.3-1.2.7-.5.4-.7.9-.5 1.1 0 .1.1.1.1.1v.2c-.1 1.2 0 2.4.2 3.6.1.6.2 1.2.4 1.8.2.6.3 1.1.6 1.9.1.1.1.2.2.3.2.2.3.5.6.7.1.1.1.1.2.1.3.2.6.4 1 .5.9.3 1.9 0 2.6-.6.6-.6 1-1.3 1.2-1.9.2-.6.4-1.1.6-1.7.5-1.9.5-3.8.3-5.1 0-.3-.1-.5-.2-.8l2.4-.3c.4 0 .6 0 .7-.1 0 .1-1.1-.7-2.7-1zm-8.9 31c-.3-.5-1.4-.5-2.6-.3-.2 0-.5.1-.7.1-1.1.1-2.1.1-3.2-.1-.2-.1-.5-.1-.7-.2-1.2-.4-2.3-.5-2.6 0-.3.5.5 1.6 2 2.1 1.8.5 3.7.6 5.6.3 1.5-.3 2.5-1.3 2.2-1.9z"/><path d="M96.9 61.8c.1-3.1.1-6.3-.2-9.4-.5-6.2-2.1-12.3-5.3-17.7-1.6-2.7-3.5-5.2-5.8-7.4s-4.9-4-7.7-5.4c-5.5-2.7-11.7-3.5-17-2.1-.6.2-1.3.4-1.9.7-1.6-1.1-3.4-1.8-5.4-2.2-2-.4-4.2-.3-6.1.5-2 .7-3.6 2-5 3.3-1.4 1.4-2.6 2.9-3.7 4.4-4.6 6.1-7.9 13.1-9.9 20.5-1.6 6.1-2.1 12.2-1.8 17.7.3 5.5 1.4 10.3 2.6 14.2.4 1.3.9 2.6 1.3 3.7.6 1.7 1.3 3.2 2 4.3.2.3.3.7.5.9 1.1 2 1.9 3 2 3v-.1c0-.1 0-.2-.1-.4.1.1.1.3.3.5.1.2.3.5.5.8.3.3.6.5.9.9.7.6 1.8 1.2 3.1 1.6 1.3.3 2.9.5 4.6.3.4 0 .7-.1 1.1-.1 1.6 2.3 3.4 4.3 5.1 6 3.6 3.6 7.1 5.8 9.6 7 .6.3 1.3.6 1.9.6.6.1 1 0 1.4 0 .7-.1 1.1-.1 1.1-.2s-.4-.2-1.1-.2c-.8-.1-1.7-.1-2.8-.9-2.3-1.5-5.6-3.8-8.9-7.4-1.4-1.5-2.9-3.3-4.3-5.3-.2-.2-.3-.5-.5-.7-.2-.2-.3-.5-.5-.8-1.4-2.3-2.8-4.7-3.9-7.5-.7-1.7-1.4-3.5-2-5.3l-.3-.9c-.1-.3-.2-.5-.2-.8-1.1-3.9-1.9-8.1-2.3-12.4v-.1l.1-.1c.2-.3.4-.5.6-.8.2-.3.5-.6.7-.9 1.3-1.5 2.7-2.8 4.4-4 2.3-1.6 4.9-2.8 7.9-3.6 3.5-1.1 7.4-1.9 10.8-4.1 1.3-.8 2.5-1.9 3.4-3.1l.6-.9c.1-.1.2-.2.2-.3l.3-.6c.1-.3.2-.5.3-.8.8.7 1.8 1.5 2.8 2.1 1.6 1.1 3.4 2.2 5.1 3.6 1.7 1.4 3.4 3.1 4.8 5.1 1.5 2 2.8 4.3 3.8 6.8.9 2.5 1.6 5.3 2.1 8.1.3 2.1.5 4.2.4 6.3-.1 1-.2 2.1-.4 3.1v.2c0 .2-.1.3-.1.4l-.2.8-.2.8c-.1.3-.2.5-.3.9l-.7 1.8c-2.1 4.6-4.7 8.5-7.4 11.6-1 1.1-2 2.2-2.9 3.1-1.2.3-2.4.6-3.7.8-1.2.2-2 1.4-1.8 2.6.1.3.2.6.4.9-.2.1-.4.3-.5.4-.6.4-1.1.7-1.5 1-.4.3-.8.5-1.1.6-.7.2-1 .3-1 .4 0 .1.4.2 1.2.1.4-.1.9-.2 1.3-.5.5-.2 1-.5 1.6-.9.3-.1.5-.3.8-.5.3.2.7.3 1.1.3h.4c20.4-3.5 24.4-18.4 25.2-25.2 2.4-1.3 4-5 4-9.7-.1-4.4-1.6-7.9-3.8-9.4zM76.7 50.4c-1.9-1.5-3.8-2.5-5.4-3.5-1.2-.7-2.3-1.5-3.2-2.2.2-1.1.4-2.1.3-3.2 0-.9-.1-1.7-.2-2.5 2-.9 4.4-.8 6.6-.1 2.1.8 3.8 2 5 2.9 1.2.9 1.9 1.5 2 1.4.1-.1-.4-.9-1.5-2s-2.8-2.5-5.1-3.4c-2.2-.8-4.8-.9-7.1 0-.1-.7-.2-1.4-.4-2.1-.1-.6-.3-1.2-.4-1.8 4.6.2 17.7 2.4 23.1 19.5.5 1.5.9 3.1 1.2 4.8l.6 3.6c-.1.1-.3.2-.4.3h-.3c-.1 0-.2.1-.3.1-.1-1.4-.3-2.8-.6-4.2-.2-.9-.4-1.7-.7-2.6-1.5-4.5-4.3-7.3-4.5-7.1-.3.2 2 3.2 3.4 7.5.8 2.2 1.2 4.6 1.3 6.9-.5.4-.9.9-1.2 1.3-.5.8-.9 1.6-1.2 2.5-.1.2-.1.3-.2.5-.4-1.4-.8-2.8-1.3-4.2-1.1-2.7-2.5-5.1-4.1-7.2-1.7-1.9-3.6-3.7-5.4-5.2zm-10.8-6.1c-.1.5-.3 1-.5 1.5-.1.2-.2.5-.3.7-.1.1-.1.2-.2.3-.2.3-.4.6-.7.9-.8.9-1.7 1.7-2.7 2.4-2.9 1.9-6.5 2.8-10.2 3.8-3 .9-6 2.2-8.5 4-1.8 1.3-3.5 2.9-4.8 4.5-.2.3-.5.6-.7.9-.1.1-.2.3-.3.4l-.3.3c-.3.4-.5.8-.7 1.2-.5.9-1 1.8-1.4 2.6-.5 1.1-.9 2.3-1.2 3.4-.1.2-.1.4-.2.6-.5 2.2-.7 4.2-.8 6.1v1.5c-.8-3.9-.9-7.9-.4-11.9 0-.3.1-.6.2-.9.4-2 .8-3.9 1.4-5.6.3-.9.6-1.7.9-2.5.3-.8.7-1.6 1-2.3.1-.1.1-.2.2-.3.4-.7.7-1.3 1-1.9.2-.3.3-.5.5-.8.4-.6.6-1.1.8-1.4.2-.3.2-.4.2-.5 0 0-.1 0-.2.1-.2.2-.7.7-1.2 1.4-.4.5-.8 1-1.2 1.7l-.6.9c-.2.4-.5.9-.7 1.3-.6 1.1-1.1 2.4-1.7 3.8-.7 2-1.3 4.2-1.7 6.6v.1c-.5 3.5-.5 7.1.1 10.6-.2-.9-.5-1.9-.7-2.9-.3-1.6-.6-3.2-.8-5v-.1c-.2-3.8.2-7.6 1-11.4.5-2.4 1.2-4.7 1.9-6.7.8-2 1.5-3.8 2.3-5.2 1.5-2.9 2.6-4.6 2.4-4.7-.1.2-1.4 1.8-3.1 4.6-.8 1.4-1.7 3.2-2.5 5.2s-1.5 4.3-2.1 6.8c-.1.4-.2.9-.2 1.3.2-3.9.8-8 1.9-12.1 1.9-7.1 5.1-13.9 9.5-19.8 2.2-2.9 4.6-5.8 7.8-7 2.8-1.1 6-.5 8.6 1 .3.2.6.3.9.5l.1.1c.2.2.5.3.7.5.2.1.3.2.5.4.3.3.7.6 1 .9.3.3.6.6.9 1l1.5 2.1c-.9-.7-1.9-1.2-3-1.6-.1-.1-.3-.1-.4-.1-.8-.2-1.6-.4-2.4-.5h-1.1c-.4 0-.7 0-1 .1-.5.1-.9.1-1.4.2-.9.2-1.6.5-2.3.8-2.1 1-2.9 2.1-2.9 2.2 0 0 .1 0 .2-.1.4-.2 1.4-.8 2.9-1.4.8-.3 1.7-.5 2.8-.6h.2c.3 0 .6-.1 1-.1h1c.3 0 .6 0 .9.1.7.1 1.5.3 2.3.5 1.8.6 3.4 1.8 4.7 3.3v.1c-.4.4-.6 1-.5 1.6.1 1 .8 1.8 1.7 2 .2.8.4 1.6.5 2.3.1.5.2.9.2 1.4-1.6-2.7-4-4.8-6.9-6-1.2-.5-2.4-.7-3.6-.8-.3 0-.5-.1-.8-.1h-1.5c-1.8.1-3.5.6-4.7 1.2-1.2.6-2.1 1.2-2.7 1.7-.5.5-.8.8-.8.9v.1c.1.2 1.4-1 3.8-2 1.4-.6 3.3-1 5.4-.9h.8c.3 0 .6 0 .8.1.9.1 1.9.4 2.9.8 3.7 1.5 6.6 4.8 7.7 8.7v.3c0 .4 0 .8-.1 1.2 0 .3-.1.5-.1.8-.2.3-.3.5-.3.8zm-28 34.8c-.7-.5-1.3-1.5-1.7-2.6-.6-1.7-.8-3.6-.8-5.5.3-.8.6-1.5.9-2.3.5 3.8 1.3 7.4 2.4 10.8l-.8-.4zm23.6-57.3c2.3-.6 5-.6 7.6-.3 2.6.4 5.3 1.2 7.9 2.4 2.6 1.3 5 3 7.1 5 2.1 2 3.9 4.4 5.4 6.9 2.5 4.3 4.1 9.1 4.7 14.1-.1-.4-.3-.8-.4-1.2-.9-2.2-2.1-4.1-3-5.5-.7-.9-1.2-1.6-1.6-2-.2-.3-.4-.5-.6-.7-1-1.2-1.9-2.3-3-3.2-7.9-7.3-17.4-7.8-19.7-7.8 0-.1-.1-.2-.1-.3 1-.7 2.2-1 3.4-1.2 1.6-.1 3.2.1 4.7.7 2.5 1 4.4 2.6 5.8 3.8 1.4 1.1 2.3 1.9 2.4 1.7.1-.1-.6-1-1.9-2.3-1.3-1.3-3.2-3.1-5.9-4.2-1.6-.7-3.4-1-5.2-.8-1.3.1-2.6.5-3.8 1.2-.5-1.1-1.1-2.1-1.8-3.1-.3-.4-.5-.7-.8-1.1-.3-.3-.6-.7-.9-1l-1-1c.3.1.5 0 .7-.1zm28.6 57.6c-.2 0-.4-.1-.6-.2-.1-.1-.2-.1-.3-.2-.2-.1-.3-.3-.5-.5l-.1-.1c-.2-.3-.4-.6-.5-.8-.1-.2-.2-.3-.2-.4-.1-.1-.1-.2-.2-.2h-.1.1c.3-.2.4-1.3.6-2.9.1-.4.1-.9.2-1.4 0-.2.1-.5.1-.7 0 .6.1 1.3.1 1.8.1.9.3 1.7.5 2.5.2.6.4 1.2.6 1.7.2.4.4.7.6 1 .1.1.1.2.2.3-.1.1-.3.1-.4.1h-.1zM88.4 82v-.2c.1-.4.1-.9.2-1.3.1.1.3.2.4.3.1 0 .1.1.2.1l-.3.3-.1.2-.4.6zm-53 8.2s.1 0 0 0c.1 0 0-.3-.2-.7-.1-.5-.3-1.2-.5-2.1-.5-2.2-1-5.4-.8-9.4 0-.3.1-.7.1-1v.1c.6 1.4 1.3 2.7 2.7 3.6.7.4 1.6.6 2.4.4.1 0 .1 0 .1-.1.6 1.6 1.2 3.2 1.8 4.6 1.1 2.6 2.5 5 3.9 7.1-.1 0-.2 0-.3.1-1.5.3-2.9.2-4.1.1-1.2-.2-2.2-.6-2.9-1.1-.4-.2-.7-.5-1-.6-.2-.2-.5-.4-.6-.6-.3-.3-.5-.4-.6-.4.1 0 .1.1 0 0 .1.1 0 0 0 0zm42 9.8c.3-.3.6-.7 1-1 3-3.3 6.1-7.6 8.5-12.8.5-.3.9-.7 1.4-1l1.6-1.5c.3-.3.3-.4.5-.6l.4-.5c.3-.3.5-.6.7-1 .2-.3.4-.5.5-.8.1 0 .1-.1.2-.1l.1-.1c-.6 5-3.1 14.8-14.9 19.4z"/></g></svg>