<svg xmlns="http://www.w3.org/2000/svg" viewBox="0 0 127.6 127.6"><path fill="#5D59A3" d="M96.5 98.6l-60.8 3.8c-1.7.1-3.1-1.2-3.2-2.8l-4.2-67.5c-.1-1.7 1.2-3.1 2.8-3.2l60.8-3.8c1.7-.1 3.1 1.2 3.2 2.8l4.2 67.5c.1 1.7-1.1 3.1-2.8 3.2z"/><path fill="#1B1C20" d="M35.5 103.4c-1 0-1.9-.4-2.6-1-.8-.7-1.3-1.7-1.3-2.8l-4.2-67.5c-.1-1.1.3-2.1 1-2.9C29 28.5 30 28 31 28l60.8-3.8c1.1-.1 2.1.3 2.9 1 .8.7 1.3 1.7 1.3 2.8l4.2 67.5c.1 1.1-.3 2.1-1 2.9-.7.8-1.7 1.3-2.8 1.3l-60.8 3.8c.1-.1 0-.1-.1-.1zm56.6-77.2H92L31.2 30c-.5 0-1 .3-1.4.7-.4.4-.5.9-.5 1.4l4.2 67.5c0 .5.3 1 .7 1.4.4.4.9.5 1.4.5l60.8-3.8c1.1-.1 1.9-1 1.9-2.1L94.1 28c0-.5-.3-1-.7-1.4-.3-.3-.8-.4-1.3-.4z"/><path fill="#FFF" d="M41.72 42.602l41.322-2.578.636 10.18-41.322 2.579z"/><path fill="#1B1C20" d="M42.4 53.8c-.5 0-1-.4-1-.9l-.6-10.2c0-.3.1-.5.2-.7.2-.2.4-.3.7-.3L83 39.1c.3 0 .5.1.7.2.2.2.3.4.3.7l.6 10.2c0 .6-.4 1-.9 1.1l-41.3 2.5zm.4-10.2l.5 8.2 39.3-2.5-.5-8.2-39.3 2.5z"/><path fill="#FFF" d="M42.922 62.003l41.321-2.578.636 10.18-41.322 2.58z"/><path fill="#1B1C20" d="M43.6 73.2c-.2 0-.5-.1-.7-.3-.2-.2-.3-.4-.3-.7L42 62.1c0-.3.1-.5.2-.7.2-.2.4-.3.7-.3l41.3-2.6c.6 0 1 .4 1.1.9l.6 10.2c0 .6-.4 1-.9 1.1l-41.4 2.5zM44 63l.5 8.2 39.3-2.5-.5-8.2L44 63z"/><path fill="#F2A75B" d="M81.7 88.9l-32.4 2c-2.4.2-4.6-1.7-4.7-4.2l-.1-1.3c-.2-2.4 1.7-4.6 4.2-4.7l32.4-2c2.4-.2 4.6 1.7 4.7 4.2l.1 1.3c.1 2.4-1.8 4.5-4.2 4.7z"/><path fill="#1B1C20" d="M48.9 91.9c-2.8 0-5.3-2.2-5.4-5.1l-.1-1.3c-.2-3 2.1-5.6 5.1-5.8l32.4-2c3-.2 5.6 2.1 5.8 5.1l.1 1.3c.1 1.5-.4 2.9-1.4 3.9-1 1.1-2.3 1.7-3.7 1.8l-32.4 2c-.1.1-.3.1-.4.1zm32.4-12.2h-.2l-32.4 2c-1.9.1-3.3 1.8-3.2 3.7l.1 1.3c.1 1.9 1.7 3.3 3.7 3.2l32.4-2c.9-.1 1.8-.5 2.4-1.2.6-.7.9-1.6.9-2.5l-.1-1.3c-.1-.9-.5-1.8-1.2-2.4-.8-.5-1.6-.8-2.4-.8z"/><path fill="#FFF" d="M73.9 85.6l14.7 12.3 1.1-2.6 4.3 2.1 2.6-6.2-4.5-2.1.4-1.7z"/><path fill="#1B1C20" d="M88.6 98.9c-.2 0-.5-.1-.6-.2L73.2 86.4c-.3-.3-.5-.7-.3-1.2s.6-.6 1-.6l18.7 1.8c.3 0 .5.2.7.4.2.2.2.5.2.8l-.2.9 3.7 1.8c.5.2.7.8.5 1.3l-2.6 6.1c-.1.3-.3.5-.6.5s-.5.1-.8 0l-3.4-1.6-.7 1.6c-.1.3-.4.5-.7.6 0 .1-.1.1-.1.1zM77 86.9l11.2 9.3.6-1.4c.1-.3.3-.5.6-.5.3-.1.5-.1.8 0l3.4 1.6 1.8-4.3-3.7-1.6c-.4-.2-.7-.7-.5-1.1l.1-.6L77 86.9z"/><path fill="#FFF" d="M46.2 47.5l21.1-1.3"/><path fill="#1B1C20" d="M46.2 48.5c-.5 0-1-.4-1-.9 0-.6.4-1 .9-1.1l21.1-1.3c.6 0 1 .4 1.1.9 0 .6-.4 1-.9 1.1l-21.2 1.3z"/><path fill="#FFF" d="M47.4 66.9l10.6-.7"/><path fill="#1B1C20" d="M47.4 67.9c-.5 0-1-.4-1-.9 0-.6.4-1 .9-1.1l10.5-.7c.5 0 1 .4 1.1.9 0 .6-.4 1-.9 1.1l-10.6.7c.1 0 0 0 0 0z"/></svg>