<svg xmlns="http://www.w3.org/2000/svg" viewBox="0 0 127.6 127.6"><circle fill="#FFF" cx="95.7" cy="29.6" r="6.1"/><path fill="#795BA4" d="M42.7 82.5c0 2.1-1 5.4-2.5 9.1 1.7 3.4 3.2 6.1 4.1 7.7 4-7.4 20.1-38 20.1-47.9 0-11.1-9-20.1-20.1-20.1s-20.1 9-20.1 20.1c0 3.7 2.2 10.2 5.2 17.4 7.4.2 13.3 6.2 13.3 13.7zm-8.9-32.4c0-5.8 4.7-10.5 10.5-10.5s10.5 4.7 10.5 10.5-4.7 10.5-10.5 10.5-10.5-4.7-10.5-10.5z"/><circle fill="#FFF" cx="44.3" cy="50.1" r="8.5"/><path fill="#5C5AA4" d="M95.7 15.9c-8.1 0-14.6 6.6-14.6 14.6 0 7.1 11.3 28.8 14.6 34.9 3.3-6.1 14.6-27.8 14.6-34.9.1-8-6.5-14.6-14.6-14.6zm0 21.8c-4.4 0-8.1-3.6-8.1-8.1 0-4.4 3.6-8.1 8.1-8.1s8.1 3.6 8.1 8.1-3.6 8.1-8.1 8.1zM30.3 70.8c-.4 0-.7-.1-1.1-.1h-1c-6.1.4-10.9 5.5-10.9 11.7 0 5.7 8.9 22.7 11.7 28.1 1.9-3.5 6.2-11.9 9.1-18.9.2-.4.3-.8.5-1.2.2-.4.3-.9.5-1.3 1-2.8 1.7-5.1 1.7-6.7-.1-6-4.6-10.9-10.5-11.6zm5 13.2c-.1.4-.3.8-.5 1.2-1.2 2-3.3 3.3-5.8 3.3-3.7 0-6.8-3-6.8-6.8 0-3.7 3-6.8 6.8-6.8.4 0 .7 0 1.1.1s.9.2 1.3.3c.5.2 1 .4 1.4.7 1.8 1.2 3 3.3 3 5.6v.7c-.2.6-.3 1.2-.5 1.7z"/><path fill="#FFF" d="M24.2 81.7c0 2.6 2.1 4.8 4.8 4.8 2.3 0 4.2-1.6 4.6-3.8-.8-1.7-1.6-3.4-2.5-5.2-.6-.3-1.4-.5-2.1-.5-2.7 0-4.8 2.1-4.8 4.7z"/><path fill="#FFF" d="M33.7 81.7c0-1.8-1.1-3.4-2.6-4.2.8 1.8 1.6 3.5 2.5 5.2.1-.3.1-.6.1-1z"/><path fill="#1C1D20" d="M95.7 13.9c-9.2 0-16.6 7.5-16.6 16.6 0 8.8 15.1 36.3 15.7 37.5.2.3.5.5.9.5s.7-.2.9-.5c.6-1.2 15.7-28.7 15.7-37.5.1-9.1-7.4-16.6-16.6-16.6zm14.7 16.6c0 7.1-11.3 28.8-14.6 34.9-3.3-6.1-14.6-27.8-14.6-34.9 0-8.1 6.6-14.6 14.6-14.6s14.6 6.6 14.6 14.6z"/><path fill="#1C1D20" d="M95.7 37.7c4.4 0 8.1-3.6 8.1-8.1 0-4.4-3.6-8.1-8.1-8.1s-8.1 3.6-8.1 8.1c.1 4.5 3.7 8.1 8.1 8.1zm6.1-8.1c0 3.3-2.7 6.1-6.1 6.1s-6.1-2.7-6.1-6.1 2.7-6.1 6.1-6.1 6.1 2.8 6.1 6.1zm-57.5-.4c-12.2 0-22.1 9.9-22.1 22.1 0 3.8 2.2 10.4 5.1 17.5-6.8.8-12.1 6.6-12.1 13.6 0 7.2 12.3 29.7 12.9 30.7.2.3.5.5.9.5s.7-.2.9-.5c.3-.6 5.7-10.4 9.4-19.2 2.3 4.4 4 7.4 4.2 7.9.2.3.5.5.9.5s.7-.2.9-.5c.9-1.6 21.2-38.7 21.2-50.5-.1-12.2-10-22.1-22.2-22.1zm0 70.1c-.9-1.6-2.3-4.4-4.1-7.7 1.5-3.7 2.5-7 2.5-9.1 0-7.4-5.9-13.5-13.3-13.7-3-7.2-5.2-13.7-5.2-17.4 0-11.1 9-20.1 20.1-20.1s20.1 9 20.1 20.1c0 9.9-16.1 40.5-20.1 47.9zm-6.2-7.6c-2.9 7-7.2 15.4-9.1 18.9-2.9-5.4-11.7-22.4-11.7-28.1 0-6.2 4.8-11.3 10.9-11.7h1c.4 0 .7 0 1.1.1 5.8.7 10.4 5.6 10.4 11.7 0 1.5-.7 3.9-1.7 6.7-.2.4-.3.8-.5 1.3-.1.2-.3.6-.4 1.1z"/><path fill="#1C1D20" d="M44.3 39.6c-5.8 0-10.5 4.7-10.5 10.5s4.7 10.5 10.5 10.5 10.5-4.7 10.5-10.5-4.7-10.5-10.5-10.5zm0 19.1c-4.7 0-8.5-3.8-8.5-8.5s3.8-8.5 8.5-8.5 8.5 3.8 8.5 8.5c0 4.6-3.8 8.5-8.5 8.5zM32.7 76.1c-.4-.3-.9-.5-1.4-.7-.4-.1-.8-.3-1.3-.3-.3-.1-.7-.1-1-.1-3.7 0-6.8 3-6.8 6.8 0 3.7 3 6.8 6.8 6.8 2.5 0 4.6-1.3 5.8-3.3.2-.4.4-.8.5-1.2.2-.5.3-1 .4-1.6v-.7c0-2.4-1.2-4.5-3-5.7zm.9 6.6c-.5 2.1-2.4 3.8-4.6 3.8-2.6 0-4.8-2.1-4.8-4.8S26.3 77 29 77c.8 0 1.5.2 2.2.6 1.5.8 2.6 2.4 2.6 4.2-.1.3-.1.6-.2.9z"/></svg>