<svg xmlns="http://www.w3.org/2000/svg" viewBox="0 0 127.6 127.6"><path fill="#FFF" d="M42.7 34.6c.1 0 .1 0 0 0 .3 0 .7.1 1 .2.3.1.6.2.9.4 1.3.6 2.5 1.7 3.1 2.9 0 .1.1.2.1.3 2-.1 4-1 5.9-1.8 3.4-1.4 7.2-3.1 11.3-3.6 2.8-.4 5.6-.2 8.3 0 4.2.2 8.1.5 11.7-1 .6-.2 1.2-.6 1.7-1 .3-.2.5-.4.7-.7.2-.3.4-.6.5-.9s.2-.5.2-.8c0-.6-.2-1.2-.3-1.6-.8-2.2-2.2-4.2-4.1-5.9-2.3-2-5.1-3.3-8.1-3.8-1.1-.2-2.3-.3-3.9-.3h-.3c-6.6 0-13.3 1.4-19.3 4.1-3.9 1.7-6.5 3.6-8.2 5.8-1.8 2.4-2.4 5.1-1.8 7.7.4-.1.5-.1.6 0zm51.5 44.8c-.4.8-.8 1.7-1.5 2.3-.4.3-.9.5-1.4.5h-.5c-.2 0-.4-.1-.5-.1-.6-.2-1.2-.6-1.7-.9-1.3-.8-2.7-1.8-6.6-1.5-5.9.4-11 2.4-14.7 3.8-2.6 1-4.6 1.7-5.9 1.6-7.1-.5-12.9-7-15.8-12.4-2.4-4.5-1.7-10-1-14.2-.2 0-.3-.1-.5-.1-1.1-.2-2 .1-2.6.6.1.2.2.4.2.6.5 2.3.6 5 .5 7.5 0 1.5-.1 3.3-.8 5-.3.7-.7 1.3-1.1 1.8-.2.3-.5.5-.8.7s-.5.4-.8.5c-.4.2-.9.4-1.3.5-.3 0-.5.1-.8.1-.6 0-1.3-.1-2.1-.4-.4-.1-.8-.3-1.2-.5 1.1 7.6 4 14.4 8.5 19.7 2.1 2.4 4.5 4.5 6.4 6 7.2 5.9 14.5 9 22.2 9.7 9.3.8 17.3 1.5 22.7-4.7 3.2-3.6 5-8.6 5-13.6-.1-4.3-1.5-8.7-3.9-12.5zm-2.7 10c-.7 2.4-2.6 4.3-4.8 5.2-1.1.5-2.3.7-3.5.7s-2.2 0-3.4-.1c-.7-.1-1.5-.1-2.2-.3-.6-.1-1.2-.2-1.7-.4l-1.5-.6c-.4-.2-.8-.4-1.2-.7-1-.7-1.9-1.6-2.4-2.8-.3-.6-.5-1.2-.5-1.9s.1-1.4.4-2c.5-1 1.2-1.8 2-2.3.8-.6 1.6-.9 2.3-1.2 1.5-.6 2.9-.9 4.1-1.2 2.3-.5 3.8-.5 3.9-.2 0-.3 1.5-.5 3.9.1.6.1 1.2.3 1.9.6.4.1.7.3 1.1.6.3.2.5.4.7.7l.3.3.3.6c.3.7.5 1.4.6 2.1.1.8 0 1.8-.3 2.8zm-54-32.8c.3 0 .7.1 1 .2l.9.3c.3.1.6.3.9.5 1-.9 2.6-1.3 4.2-1.1.2 0 .4.1.5.1l1.5-9.2c.4-2.6.7-5 .1-7.1-.1-.4-.2-.7-.4-1.1 0-.1-.1-.2-.1-.3-.2-.3-.4-.6-.7-.9-.4-.5-1-.9-1.6-1.1-.2-.1-.3-.1-.5-.2s-.3-.1-.5-.1c-.1 0-.2-.1-.4-.1h-.6c-.3 0-.6.1-.9.2-.3.1-.6.3-.9.6-2.8 3.4-5.2 11.7-6.4 19.9.9-.3 1.9-.5 2.9-.5.3-.1.7-.1 1-.1z"/><g fill="#FDE8C4"><path d="M38.9 58c-.2-.1-.3-.1-.4-.1-.3-.1-.7-.2-1.2-.2h-1.1c-1.3.1-2.4.4-3.3.8l-.6.3c-.3.1-.5.3-.7.5-.5.4-.9.8-1.2 1.2-1.4 1.7-2 4-1.8 6.2.1 1.4.6 2.8 1.3 3.8.3.6.8 1.1 1.3 1.6l1.1 1.1c.8.6 1.6 1.1 2.5 1.3.6.2 1.2.3 1.7.3.2 0 .4 0 .6-.1h.1l.2-.1c.3-.1.7-.2 1.1-.5.3-.2.7-.5 1-.9.3-.3.5-.6.6-.9 0-.1.1-.1.1-.2.1-.1.1-.2.2-.3l.1-.1.1-.2c.7-1.5.7-3.2.7-4.6.1-1.9.1-4.7-.4-7.2-.4-.7-1-1.4-2-1.7zm51.9 28l-.3-1.3c0-.1-.1-.2-.1-.3v-.1l-.1-.2c-.2-.4-.5-.7-.8-.9-.8-.6-1.8-1-2.7-1.4-1-.4-1.9-.7-2.5-.9-.3-.1-.7-.2-.8-.3 0 0 .2.1.3.4l-1.9.3c0-.3.2-.6.3-.6-.2.1-1.1.4-1.8.7-.4.1-.8.3-1.3.5-1.5.5-2.7 1-3.8 1.5-1.9.9-3.2 1.9-3.8 3.2-1 1.9.4 4.3 2.2 5.7.9.6 2 1 3.4 1.4l1.9.3h.4l.2.1h.2c.4 0 .7 0 1 .1h1.4c1.7 0 3-.2 4-.7 2.1-.8 3.7-2.6 4.3-4.7.2-.7.3-1.5.3-2.2.1-.2.1-.4 0-.6zm-8.6.6c-.4 0-.8-.1-1.2-.1-.3 0-.6-.1-.9-.1-.1 0-.2-.1-.3-.1.1 0 .3 0 .4.1.8 0 1.4.2 2 .2z"/><path d="M96.2 64.7l.1-.4c.8-6.1.5-12.1-.9-17.9-1.4-5.5-3.6-10.4-6.5-14.5l-.6-.9-.8.7c-.5.4-1.1.8-2 1-2.1.9-4.4 1.3-7.6 1.3-1.3 0-2.7-.1-4-.1l-1.8-.1c-1.2-.1-2.4-.1-3.7-.1-1.2 0-2.3.1-3.3.2-3.8.5-7.5 2.1-10.8 3.5l-.6.3c-1.7.7-3.5 1.5-5.4 1.7l-1.1.1.3 1.1c.5 2.2.2 4.5-.1 6.4l-.1.6L45.6 58l.2.1h-.1l-.2 1.2c-.7 4.9-1.1 9.3 1 13.2 2.9 5.6 8.7 11.4 15 11.8h.3c1 0 2.3-.5 4.1-1.2l1.1-.4c4.2-1.7 9.2-3.5 15-3.8.5 0 1.1-.1 1.5-.1 3.1 0 4.6 1 5.6 1.7l.2.1c.6.4 1.1.8 1.9.8h.7l.3-.6c1.4-2.9 2.5-6.2 3.3-9.8.3-1.3.5-2.6.7-3.9l.3-2.3H96l.2-.1z"/></g><path d="M94.8 76.8c.6-1.8 1.1-3.7 1.5-5.7.4-2.1.8-4.1 1-6.1.8-.6 1.5-1.3 2.1-2.1.3-.4.2-1-.2-1.4-.4-.3-1-.2-1.4.2-.1.1-.2.2-.2.3.3-5.5-.1-10.8-1.3-15.8-1.3-5.6-3.7-10.8-6.8-15.2.5-.7.8-1.6.9-2.4 0-.9-.2-1.7-.4-2.4-.9-2.5-2.5-4.8-4.7-6.7-2.6-2.2-5.7-3.7-9-4.2-1.3-.2-2.6-.3-4.3-.3-7 0-14 1.4-20.4 4.2-2.6 1.2-6.5 3.1-8.9 6.4-2.1 2.8-2.8 6-2.2 9.1-.7.2-1.3.6-1.8 1.1v.1c-3.2 3.9-5.8 13.3-7.1 22.1-2.7 1.8-4.2 5.2-3.9 8.7.3 2.6 1.5 4.9 3.3 6.5.9 8.7 4.1 16.5 9.2 22.4 2.2 2.5 4.7 4.6 6.6 6.2 7.5 6.1 15.1 9.4 23.3 10.1 3 .3 5.9.5 8.7.5 6 0 11.5-1.1 15.7-5.8 3.5-4 5.5-9.4 5.5-14.9-.1-5.1-1.9-10.5-5.2-14.9zm-.4-6.1c-.8 3.7-1.9 6.9-3.2 9.6h-.1c-.5-.1-.9-.4-1.5-.7-1.4-.9-3.2-2.2-7.8-1.8-6.2.5-11.4 2.5-15.3 3.9-2.2.8-4.1 1.6-5 1.5-5.9-.5-11.4-6-14.2-11.3-1.9-3.6-1.6-7.9-.9-12.6.3.1.5.3.8.4.9.4 1.8.9 2.7 1.3 6.6 3.4 14.1 7.2 21.3 8.8.2.3.3.5.5.7l.1.1c.9.8 2.1 1.2 3.2 1.2.7 0 1.5-.2 2.1-.5 1.7-.8 2.8-2.8 2.7-4.7v-.1c.4-.4 1-.9 1.7-1.2.8 2.5 2.1 4.8 3.7 6.8.2.3.5.5.7.8l.2.2c0 .1.1.2.1.3 0 .1 0 .1.1.2v.1s-.1.1-.2.1c-.3.2-.8.4-1.3.5-.5.1-.9.2-1.4.3-1.7.3-2.8.7-2.8 1 .1.3 1.1.3 2.9.4.5 0 1 0 1.5-.1.6-.1 1.2-.2 1.9-.5.2-.1.4-.2.6-.4.2-.1.4-.4.5-.7.2-.3.2-.6.2-.9 0-.2-.1-.5-.2-.7l-.3-.6c0-.1-.1-.1-.1-.2l-.1-.2-.2-.2c-.2-.2-.4-.5-.6-.7-1.5-1.8-2.7-3.9-3.3-6.1.6 0 1.4.4 2.3 1.2v.7c.1 1.4 1 2.8 2.3 3.5h.1c.5.2 1 .3 1.5.3 1.4 0 2.6-.9 3.1-1.5.4-.5.6-1.1.7-1.7.7-.2 1.3-.5 1.9-.8-.3 1.4-.6 2.8-.9 4.3zm-21.3-4.9c.4-.5 1.8-.8 2.8-.8.8 0 1.5.4 1.8 1 .1.2.1.4.2.7.1 1.1-.6 2.3-1.6 2.8s-2.3.3-3.2-.4c-.4-.4-1.1-1.9 0-3.3zm15.3-1.6c.2-.2.6-.3 1-.4.7-.1 1.1.2 1.3.4.6.6.7 1.8.7 2.1-.1.5-.2 1.2-.4 1.4 0 0-.9 1.1-2.2.6-.7-.4-1.2-1.2-1.2-1.9-.2-.8.2-1.7.8-2.2zm6.1-17.7c1.2 5.5 1.6 11.4 1 17.4-.7.5-1.4.9-2.2 1.2-.1-.8-.5-1.7-1.2-2.4-.5-.5-1.4-1.1-2.9-.9-.9.1-1.6.4-2.1.8-.4.3-.7.7-1 1.2-.9-.7-2.1-1.2-3.3-1.1v-.2c-.2-1.5-.2-3.1 0-4.6 0-.4.1-.8.2-1.1.1-.4.2-.8.3-1.1.1-.4.2-.7.4-1.1l.1-.3h.2c.1 0 .3-.1.4-.1.3-.1.6-.1.9-.1.3 0 .5 0 .8-.1.1.2.1.5.2.7.2.5.4.9.7 1.2.5.5 1.2.8 2 .8.3 0 .7-.1 1-.2.8-.3 1.7-.7 2-2.1.4.1.7.1.8 0 .2-.2-.7-1.2-2.5-1.8-.9-.3-2-.5-3.2-.6h-1.9c-.3 0-.7.1-1 .1-.2 0-.4.1-.5.1l-.3.1-.4.1-.5.2c-.1 0-.1.1-.2.2l-.1.3-.4.9c-.2.4-.3.8-.4 1.2l-.3 1.2c-.1.4-.2.8-.2 1.3-.2 1.7-.2 3.4 0 5.1 0 .2.1.3.1.5-.7.3-1.4.7-2 1.2-.7-.9-1.9-1.5-3.1-1.5-1.1 0-3.3.3-4.3 1.5-.8 1-1.1 2.1-1.1 3.1-6.6-1.7-13.6-5.3-19.8-8.4-.9-.5-1.8-.9-2.7-1.4-.4-.2-.9-.4-1.3-.6l1.6-9.6c.3-2.1.8-4.8.2-7.4 2.1-.2 4.1-1.1 6.1-1.9 3.2-1.4 6.9-3 10.8-3.5 2.6-.3 5.3-.2 8 0 4.2.2 8.6.5 12.6-1.2.8-.3 1.5-.8 2.2-1.2 2.9 4.1 5.1 9 6.3 14.1zM44.2 26.8c1.7-2.3 4.3-4.1 8.2-5.8 6.1-2.7 12.7-4.1 19.3-4.1h.3c1.6 0 2.8.1 3.9.3 2.9.5 5.8 1.8 8.1 3.8 1.9 1.7 3.3 3.7 4.1 5.9.2.5.4 1.1.3 1.6 0 .3-.1.5-.2.8s-.3.6-.5.9l-.7.7c-.2.2-.5.3-.7.5-.5-2.6-1.6-5.3-3.5-7.3-2.2-2.3-5.1-3.7-8.1-4.4-3-.6-6-.8-9-.5-3 .3-5.9.9-8.6 2-.1.1-.2.2-.2.4s.2.3.4.3c2.9-.4 5.7-.7 8.6-.8 2.8-.1 5.7 0 8.4.7s5.2 1.9 7 3.8c.9 1 1.6 2.1 2.2 3.3.5 1 .8 2.1 1 3.3-2.2.7-4.5.9-6.9.9 0-1.7-.5-3.6-1.7-5.1-1.4-1.7-3.4-2.7-5.3-3.2s-3.9-.7-5.8-.6c-1.9.1-3.8.4-5.6 1.2-.1 0-.1.1-.1.2s.1.2.2.3l5.5.3c1.8.1 3.6.3 5.2.8s3.1 1.3 4.1 2.5c.5.6.8 1.3 1.1 2 .2.5.2 1 .3 1.5-.6 0-1.2-.1-1.8-.1-2.7-.2-5.6-.3-8.3 0-4.1.5-7.9 2.2-11.3 3.6-1.9.8-3.9 1.7-5.9 1.8 0-.1-.1-.2-.1-.3-.7-1.3-1.8-2.3-3.1-2.9-.3-.1-.6-.3-.9-.4-.3-.1-.6-.2-1-.2h-.4c-.9-2.6-.3-5.3 1.5-7.7zm-4.1 10.3c.3-.2.6-.4.9-.5s.6-.1.9-.2h.6c.1 0 .2 0 .4.1.2 0 .3.1.5.1.2.1.3.1.5.2.6.3 1.2.7 1.6 1.1.3.3.5.6.7.9 0 .1.1.2.1.3.2.3.3.7.4 1.1.6 2.1.3 4.4-.1 7.1l-1.5 9.2c-.2 0-.3-.1-.5-.1-1.6-.2-3.2.2-4.2 1.1-.3-.2-.5-.3-.9-.5l-.9-.3c-.3-.1-.6-.1-1-.2h-1c-1 0-2 .2-2.9.5 1.3-8.1 3.7-16.4 6.4-19.9zM32 71.4c-.4-.4-.7-.9-1.1-1.4-.8-1-1.2-2.2-1.3-3.4-.2-2 .4-4 1.6-5.5.3-.4.7-.8 1.1-1.1.2-.1.3-.3.5-.4l.6-.3c.9-.4 2-.7 3-.7h1c.3 0 .7.1 1 .2.1 0 .2 0 .3.1.6.3 1 .7 1.1 1.2.5 2.1.5 4.6.5 7 0 1.3-.1 2.9-.6 4.2 0 .1-.1.2-.2.3-.2.4-.4.7-.7 1-.2.3-.5.5-.8.7-.3.2-.6.3-1 .4-.6.1-1.2 0-1.9-.2-.8-.3-1.5-.6-2.1-1.1-.4-.3-.7-.6-1-1zm60.9 34c-3.3 3.8-7.7 5-12.7 5.2.5-.2 1.1-.4 1.6-.6 2-.9 3.8-2.1 5.3-3.7 1.5-1.5 2.8-3.4 3.2-5.5 0-.1 0-.2-.1-.2-.1-.1-.3 0-.3.1-1.2 1.7-2.4 3.2-3.8 4.6-1.4 1.4-3.1 2.4-4.9 3.2-1.8.7-3.8 1.3-5.7 1.5-1 .1-2 .1-3 .2l-3-.1c-7.4-.8-14.4-3.9-21.3-9.6-.9-.7-1.8-1.5-2.8-2.4l-.4-.9c-.2-.5-.4-1.1-.5-1.6-.3-1.1-.4-2.2-.5-3.3 0-1.1.2-2.2.5-3.3.3-1.1.8-2.1 1.3-3.2v-.3c-.1-.1-.3-.2-.4-.1-1.1.7-1.8 1.8-2.3 3-.5 1.2-.7 2.5-.8 3.8 0 1.1.1 2.1.4 3.2-.3-.3-.6-.6-.9-1-.3-.4-.7-.8-1-1.3-.2-.5-.4-.9-.5-1.4-.2-.7-.4-1.3-.5-2-.3-1.4-.4-2.8-.3-4.1.1-1.4.4-2.7.9-4.1.5-1.3 1.3-2.5 1.7-3.9v-.1c0-.1-.2-.1-.2-.1-1.5.7-2.3 2.2-2.9 3.6-.6 1.4-1.1 2.9-1.2 4.5-.1 1-.1 2.1 0 3.1-2.3-4.1-3.8-8.8-4.5-13.9.4.2.8.4 1.2.5.7.2 1.4.4 2.1.4.3 0 .5 0 .8-.1.5-.1.9-.2 1.3-.5.3-.1.6-.3.8-.5.3-.2.5-.5.8-.7.5-.5.9-1.1 1.1-1.8.7-1.6.8-3.4.8-5 0-2.5 0-5.1-.5-7.5 0-.2-.1-.4-.2-.6.6-.6 1.6-.8 2.6-.6.2 0 .3.1.5.1-.7 4.2-1.4 9.7 1 14.2C48.5 78 54.3 84.4 61.4 85c1.3.1 3.2-.6 5.9-1.6C71 82 76.1 80 82 79.6c3.9-.3 5.3.6 6.6 1.5.5.3 1.1.7 1.7.9.2.1.3.1.5.1h.5c.5 0 1-.2 1.4-.5.7-.6 1.2-1.4 1.5-2.3 2.4 3.8 3.8 8.1 3.8 12.4-.1 5.1-1.9 10.1-5.1 13.7z"/><path d="M91.2 84.3l-.3-.6-.3-.3c-.2-.3-.5-.5-.7-.7-.4-.3-.8-.4-1.1-.6-.7-.3-1.3-.5-1.9-.6-2.2-.5-3.6-.4-3.8-.2-.2-.2-1.6-.2-3.9.3-1.2.3-2.5.6-4.1 1.2-.8.3-1.6.7-2.3 1.2-.8.5-1.5 1.3-2 2.3-.3.6-.4 1.3-.4 2s.2 1.3.5 1.9c.6 1.2 1.4 2.1 2.4 2.8.4.3.8.5 1.2.7l1.5.6c.6.2 1.2.3 1.7.4.7.1 1.5.2 2.2.3 1.1.1 2.2.1 3.4.1 1.1 0 2.3-.2 3.5-.7 2.3-.9 4.1-2.8 4.8-5.2.3-1 .4-2 .3-3-.2-.6-.4-1.3-.7-1.9zm-1.5 4.4c-.6 1.8-2 3.3-3.7 4-1.4.6-3 .6-4.7.6-.4 0-.8 0-1.2-.1-.2 0-.5 0-.7-.1l-1.8-.3c-1.2-.3-2.2-.7-3.1-1.3-1.5-1.1-2.6-2.9-1.9-4.4.5-1.2 2-2.1 3.3-2.7 1.3-.6 2.6-1.1 3.7-1.5 1.9-.7 3.2-1.2 3.5-1.4.3.3 1.6.5 3.4 1.3.8.3 1.8.7 2.5 1.3.2.2.4.3.5.5 0 .1.1.2.1.3.2.3.3.7.3 1.2 0 .1 0 .3.1.4.1.7 0 1.5-.3 2.2zM72.3 42.6c-2.9-.6-6-.5-8.7 1.1-.6.3-1 .7-1.4 1.1-.4.4-.7.8-.9 1.2-.3.8-.4 1.3-.2 1.4.5.3 1.6-1 3.4-1.9 2.1-1.2 4.8-1.4 7.2-.8 1 .2 1.9.5 2.5.7.6.2 1 .4 1.3.2.2-.1.1-.8-.5-1.4-.5-.8-1.5-1.3-2.7-1.6zM84.7 45c.4.3 1.1.2 1.8-.2.8-.4 1.8-.6 2.7-.5.7.1 1.5 0 1.8-.4.3-.4-.3-1.3-1.5-1.5-1.3-.2-2.7 0-3.9.7-1 .5-1.3 1.6-.9 1.9zm-12.9 8.2c-2.2.1-4.4.6-6.5 1.5-1.7.8-2.7 2-2.4 2.4.3.4 3.4-.7 4.9-1.4.5.9 1.4 1.6 2.4 1.8l1.3.4h.3c.8-.1 1.6-.5 2.2-1.3.4-.6.7-1.3.6-2 .3-.1.4-.3.5-.4 0-.5-1.4-1.1-3.3-1z"/><path d="M85.7 84.9c-.3.1-.7.3-1.2.5-1.1.4-2.6.2-4-.1-1.2-.2-2.2-.2-2.5.2-.3.5.6 1.5 2 1.8.8.2 1.6.3 2.5.3.8 0 1.8 0 2.7-.4.8-.3 1.3-.9 1.5-1.4s.1-.9-.1-1c-.2-.1-.6-.1-.9.1z"/></svg>