<svg xmlns="http://www.w3.org/2000/svg" viewBox="0 0 306.9 80"><path fill="#FFF" d="M97.4 25.4V8.3h2.7v12.5l9.4-12.5h2.3v17.1h-2.7V12.8l-9.4 12.6h-2.3zm18.5 0v-12h2.6v4.7h6.1v-4.7h2.6v12h-2.6v-5h-6.1v5h-2.6zm16.1-1.5c-1.2-1.2-1.9-2.7-1.9-4.6 0-1.8.6-3.3 1.9-4.5 1.3-1.2 2.8-1.8 4.6-1.8 1.3 0 2.6.3 3.6.8v2.3c-1.1-.5-2.1-.8-3.2-.8-1.2 0-2.2.4-3 1.1-.8.8-1.2 1.7-1.2 2.9 0 1.1.4 2.1 1.2 2.9s1.8 1.1 3 1.1c1.3 0 2.4-.3 3.4-.9v2.2c-1.1.7-2.4 1-3.8 1-1.8.1-3.3-.5-4.6-1.7zm14.3 1.5v-9.7h-4.1v-2.3H153v2.3h-4v9.7h-2.7zm9.1 0v-12h2.6v8.1l6.5-8.1h2.5v12h-2.6v-8.2l-6.5 8.2h-2.5zm18 0v-9.7h-4.1v-2.3H180v2.3h-4v9.7h-2.6zm8.1 4.6v-2.3c.5.3 1.1.4 1.7.4 1.4 0 2.2-1 3.1-3.1l-5.2-11.5h2.9l3.6 8.4 3.5-8.4h2.9l-5.7 13.3c-1.1 2.5-2.6 3.7-4.6 3.7-1-.1-1.7-.2-2.2-.5zm17.6-4.6v-9.7H195v-2.3h10.7v2.3h-4v9.7h-2.6zM97.2 49.2v-12h2.6v8.1l6.5-8.1h2.5v12h-2.6V41l-6.5 8.2h-2.5zm15.3 0v-12h2.6v4.7h6.1v-4.7h2.6v12h-2.6v-5h-6.1v5h-2.6zm15.1 0v-12h2.6v4.7h6.1v-4.7h2.6v12h-2.6v-5h-6.1v5h-2.6zm16.2-1.5c-1.2-1.2-1.9-2.7-1.9-4.5s.6-3.2 1.9-4.5c1.2-1.2 2.8-1.8 4.7-1.8s3.5.6 4.7 1.8 1.9 2.7 1.9 4.5-.6 3.2-1.9 4.5c-1.2 1.2-2.8 1.8-4.7 1.8s-3.5-.6-4.7-1.8zm7.5-1.7c.8-.8 1.1-1.7 1.1-2.9 0-1.1-.4-2.1-1.1-2.8-.8-.8-1.7-1.1-2.8-1.1s-2.1.4-2.8 1.1c-.8.8-1.1 1.7-1.1 2.8s.4 2.1 1.1 2.9c.8.8 1.7 1.1 2.8 1.1 1.1.1 2-.3 2.8-1.1zm6.7 3.2v-12h6.5c2.4 0 3.8 1.3 3.8 3.1 0 1.2-.6 2.2-1.5 2.6 1.6.5 2.3 1.5 2.3 3.1 0 2-1.5 3.3-4.2 3.3l-6.9-.1zm2.6-7.2h3.3c1.1 0 1.8-.5 1.8-1.3 0-.9-.6-1.3-1.8-1.3h-3.3V42zm0 5.1h3.8c1.2 0 2-.6 2-1.5 0-1-.7-1.5-2-1.5h-3.8v3zm23.5-.1v2c-.4.3-.9.4-1.5.4-1.3 0-2.2-.6-2.5-1.7-1.1 1.2-2.6 1.9-4.4 1.9-1.3 0-2.4-.4-3.2-1.1-.9-.7-1.3-1.7-1.3-3s.5-2.2 1.4-2.9 2.1-1 3.4-1c1.4 0 2.7.3 3.8.9v-.7c0-1.7-1.2-2.6-3.5-2.6-1.4 0-2.6.4-3.8 1.1V38c1.2-.7 2.6-1 4.4-1 3.3 0 5.5 1.7 5.5 4.6v4.5c0 .8.4 1.2 1 1.2.3-.2.5-.2.7-.3zm-4.3-2.7c-1-.6-2.1-.9-3.2-.9-1.8 0-2.8.7-2.8 1.9 0 1.3 1 1.9 2.6 1.9 1.4 0 2.7-.6 3.4-1.4v-1.5zm17.6 8.2v-3.3h-10.7v-12h2.6v9.7h5.9v-9.7h2.6v9.7h2.1v5.6h-2.5zm5.2-3.3v-12h2.6v8.1l6.5-8.1h2.5v12h-2.6V41l-6.5 8.2h-2.5zm16.4-1.5c-1.2-1.2-1.9-2.7-1.9-4.5s.6-3.2 1.9-4.5c1.2-1.2 2.8-1.8 4.7-1.8s3.5.6 4.7 1.8 1.9 2.7 1.9 4.5-.6 3.2-1.9 4.5c-1.2 1.2-2.8 1.8-4.7 1.8s-3.5-.6-4.7-1.8zm7.5-1.7c.8-.8 1.1-1.7 1.1-2.9 0-1.1-.4-2.1-1.1-2.8s-1.7-1.1-2.8-1.1-2.1.4-2.8 1.1c-.8.8-1.1 1.7-1.1 2.8s.4 2.1 1.1 2.9c.8.8 1.7 1.1 2.8 1.1 1.1.1 2.1-.3 2.8-1.1zm6.7 3.2v-12h2.6v4.7h6.1v-4.7h2.6v12h-2.6v-5h-6.1v5h-2.6zm15.1 0v-12h2.6v4.7h6.1v-4.7h2.6v12H257v-5h-6.1v5h-2.6zm15.1 0v-12h2.6v3.6h2.9c2.9 0 4.8 1.6 4.8 4.2 0 1.2-.4 2.2-1.2 3-.8.8-2 1.2-3.5 1.2h-5.6zm2.7-2.2h2.6c1.5 0 2.5-.8 2.5-2s-.9-2-2.5-2h-2.6v4zm9.4 2.2v-12h2.6v12h-2.6zm8.6-12l2.8 3.7 2.9-3.7h3l-4.3 5.7 4.8 6.3h-3.1l-3.3-4.4-3.3 4.4h-3l4.8-6.3-4.3-5.7h3zM97.2 73V61h11.2v12h-2.6v-9.7h-5.9V73h-2.7zm16-1.5c-1.2-1.2-1.9-2.7-1.9-4.6 0-1.8.6-3.3 1.9-4.5s2.8-1.8 4.6-1.8c1.3 0 2.6.3 3.6.8v2.3c-1.1-.5-2.1-.8-3.2-.8-1.2 0-2.2.4-3 1.1-.8.8-1.2 1.7-1.2 2.9 0 1.1.4 2.1 1.2 2.9.8.8 1.8 1.1 3 1.1 1.3 0 2.4-.3 3.4-.9v2.2c-1.1.7-2.4 1-3.8 1-1.8.1-3.4-.5-4.6-1.7zm11.6 1.5V61h2.6v8.1l6.5-8.1h2.5v12h-2.6v-8.2l-6.5 8.2h-2.5zm17.6-12l2.8 3.7 2.9-3.7h3l-4.3 5.7 4.8 6.3h-3.1l-3.3-4.4-3.3 4.4h-3l4.8-6.3-4.3-5.7h3zm12.3 10.5c-1.2-1.2-1.9-2.7-1.9-4.5s.6-3.2 1.9-4.5c1.2-1.2 2.8-1.8 4.7-1.8s3.5.6 4.7 1.8 1.9 2.7 1.9 4.5-.6 3.2-1.9 4.5c-1.2 1.2-2.8 1.8-4.7 1.8s-3.4-.6-4.7-1.8zm7.6-1.7c.8-.8 1.1-1.7 1.1-2.9 0-1.1-.4-2.1-1.1-2.8-.8-.8-1.7-1.1-2.8-1.1s-2.1.4-2.8 1.1c-.8.8-1.1 1.7-1.1 2.8 0 1.1.4 2.1 1.1 2.9.8.8 1.7 1.1 2.8 1.1 1.1.1 2-.3 2.8-1.1zm9 3.2v-9.7h-4.1V61h10.7v2.3h-4V73h-2.6zm9.6-10.5c1.1-1.2 2.6-1.8 4.4-1.8 1.2 0 2.3.3 3.1 1 1.8 1.3 2.5 3.2 2.5 5.4v.7h-9.2c.3 2 2.1 3.2 4.5 3.2 1.4 0 2.7-.4 3.9-1.1v2.2c-1.1.8-2.6 1.2-4.4 1.2-1.9 0-3.4-.6-4.7-1.8-1.3-1.2-1.9-2.7-1.9-4.6.1-1.7.7-3.2 1.8-4.4zm7.5 3.3c0-.7-.3-1.4-.9-2-.6-.6-1.3-.9-2.3-.9-1.9 0-3.2 1.3-3.3 2.9h6.5zM196 61l2.8 3.7 2.9-3.7h3l-4.3 5.7 4.8 6.3h-3.1l-3.3-4.4-3.3 4.4h-3l4.8-6.3L193 61h3zm11.8 12V61h2.6v4.7h6.1V61h2.6v12h-2.6v-5h-6.1v5h-2.6zm16.2-1.5c-1.2-1.2-1.9-2.7-1.9-4.5s.6-3.2 1.9-4.5c1.2-1.2 2.8-1.8 4.7-1.8s3.5.6 4.7 1.8 1.9 2.7 1.9 4.5-.6 3.2-1.9 4.5c-1.2 1.2-2.8 1.8-4.7 1.8s-3.5-.6-4.7-1.8zm7.5-1.7c.8-.8 1.1-1.7 1.1-2.9 0-1.1-.4-2.1-1.1-2.8-.8-.8-1.7-1.1-2.8-1.1s-2.1.4-2.8 1.1c-.8.8-1.1 1.7-1.1 2.8 0 1.1.4 2.1 1.1 2.9.8.8 1.7 1.1 2.8 1.1 1.1.1 2.1-.3 2.8-1.1zm10.5-6.5V65c0 1.8-.1 2.9-.5 4.4-.5 2.1-1.7 3.4-4.1 3.5-.3 0-.6 0-.8-.1v-2.3c.2 0 .4.1.5.1 1.7 0 2.3-1.7 2.4-5.8l.1-3.9h9.7v12h-2.6v-9.7H242v.1zm11.9 8.2c-1.2-1.2-1.9-2.7-1.9-4.5s.6-3.2 1.9-4.5c1.2-1.2 2.8-1.8 4.7-1.8 1.9 0 3.5.6 4.7 1.8s1.9 2.7 1.9 4.5-.6 3.2-1.9 4.5c-1.2 1.2-2.8 1.8-4.7 1.8-1.9 0-3.5-.6-4.7-1.8zm7.5-1.7c.8-.8 1.1-1.7 1.1-2.9 0-1.1-.4-2.1-1.1-2.8-.8-.8-1.7-1.1-2.8-1.1s-2.1.4-2.8 1.1c-.8.8-1.1 1.7-1.1 2.8 0 1.1.4 2.1 1.1 2.9.8.8 1.7 1.1 2.8 1.1 1.2.1 2.1-.3 2.8-1.1zm6.7 3.2V61h9.3v2.3h-6.6V73h-2.7zm11.8 0V61h2.6v8.1L289 61h2.5v12h-2.6v-8.2l-6.5 8.2h-2.5zm15.4 0V61h2.6v8.1l6.5-8.1h2.5v12h-2.6v-8.2l-6.5 8.2h-2.5zm1.5-17.6h2.2c0 1.2.8 2 2 2s2-.8 2-2h2.2c0 2.5-1.8 4-4.2 4-2.4 0-4.1-1.6-4.2-4zM40 0C17.9 0 0 17.9 0 40s17.9 40 40 40 40-17.9 40-40S62.1 0 40 0zm15.9 11.2c-.1-.1-.2-.1-.3-.2.1.1.2.2.3.2zM7.1 40C7.1 21.9 21.9 7.1 40 7.1c5.6 0 10.9 1.4 15.6 3.9-3.1-1.5-12.3-4.1-14.9 16.1H47v3s-.8 0-1.9 1.7c-.9 1.4-1 2.7-1 2.7l.3 1.6s-.1.5-.5 1c-.3.4-1.6 1.6-2.2 2.4-.3.4-.4.7-.4.7s0 .2.2.4c.1.1.9.5 1.3.9.3.3.4.5.4.5v.7c0 .2-.2.6-.3.9-.1.3 0 .3 0 .3l.6.5s.1.1 0 .2-.3.3-.3.5.3.4.4.6c.2.2.3.5.3.5v1c0 1.8 1.3 2 1.3 2H47c4.2-.4 4.3-3.5 4.3-3.5l.2-4.4V27.1h13.3v3c-3 1-3 5.2-3 5.2V42c-.2 5.3-1.3 8.2-3.5 10.7C54.4 57.2 47 57 47 57h-1.8v2c0 3.5 3 5.5 3 5.5V67H34.4c-3.1 3.8-6.8 3.3-9.1 2.5-.4-.2-.9-.4-1.7-.8C13.8 62.9 7.1 52.2 7.1 40z"/><path fill="#FFF" d="M33 57h1.8v2c0 3.5-3 5.5-3 5.5V67h2.6c3.1-3.8 5.6-11.5 5.6-27 0-5.1.3-9.3.7-12.8H33v3s.8 0 1.9 1.7c.9 1.4 1 2.7 1 2.7l-.3 1.6s.1.5.5 1c.3.4 1.6 1.6 2.2 2.4.3.4.4.7.4.7s0 .2-.2.4c-.1.1-.9.5-1.3.9-.3.3-.4.5-.4.5v.7c0 .2.2.6.3.9.1.3 0 .3 0 .3l-.6.5s-.1.1 0 .2.3.3.3.5-.3.4-.4.6c-.2.2-.3.5-.3.5v1c0 1.8-1.3 2-1.3 2H33c-4.2-.4-4.3-3.5-4.3-3.5l-.2-4.4V27.1H15.2v3c3 1 3 5.2 3 5.2V42c.2 5.3 1.3 8.2 3.5 10.7C25.6 57.2 33 57 33 57z"/></svg>