<svg version="1.1" id="Слой_1" xmlns="http://www.w3.org/2000/svg" x="0" y="0" viewBox="0 0 1045.9 412.3" xml:space="preserve"><style>.st0{fill:#4b488e}.st1{fill:#545398}</style><path class="st0" d="M979.5 200.9c-.3-2-1.2-3.7-2.1-5.4-4.2-8.1-8-16.5-12.3-24.6-2.2-4.1-4.5-8-7-11.9l-1-1.4c-.3-.5-.6-1-1-1.5-.5-.6-1-1.1-1.6-1.6 0-.1-.1-.3-.2-.4-.4-.9-1.3-2.2-2.6-3.5-2.7-2.6-7.3-5.7-13.5-8.4-2.2-.9-4.5-1.8-7.1-2.6.3-.7.5-1.4.7-2 .1-.3.2-.6.2-.9.1-.2.1-.5.2-.7v-.1l-.1-.1-.1-.1-.3-.3c-.2-.2-.4-.4-.7-.6-.2-.2-.4-.4-.6-.5-.8-.7-1.5-1.3-2.2-1.9-2.2-1.8-3.7-3-4.3-3.4 0-.2 0-.4.1-.5.5-.3 1-.7 1.4-1 2.1-1.7 3.8-3.7 5.1-5.7 1.3-2 2.2-4.1 2.8-6.1.2-.7.4-1.3.5-2 .3.2.7.4 1.1.5.5.1 1.1.2 1.6.1 1-.2 1.9-.8 2.5-1.5.7-.7 1.1-1.6 1.4-2.4.3-.8.5-1.7.7-2.5.2-.8.4-1.7.5-2.5.3-1.7.2-3.6-.6-5.4-.3-.7-.8-1.4-1.4-1.8-.3-.3-.7-.5-1-.7-.1-3.2-.4-6.9-1.1-10.9-.2-1.2-.4-2.4-.7-3.7-.3-1.2-.6-2.5-1.1-3.8-.5-1.3-1.1-2.6-2-3.7-.9-1.1-2.1-2.1-3.3-2.8-1.5-.9-3.1-1.5-4.7-2.1-1.6-.6-3.2-1.1-4.9-1.5-3.3-.8-6.7-1.4-10.1-1.6-3.4-.2-6.8-.1-10.2.4-1.7.2-3.4.6-5 .9-1.6.4-3.3.8-4.9 1.5-1.6.7-3.2 1.8-4.2 3.4-1 1.6-1.1 3.6-.7 5.4.2 1.1.6 2 1.2 3-.3.5-.6 1-1 1.6-.8 1.5-1.7 3.4-2.3 5.6-.6 2.2-1 4.7-1.1 7.3 0 1.2.1 2.5.2 3.7-.7 1.7-.7 3.5-.5 5.2.1.9.3 1.7.5 2.5s.4 1.6.7 2.5c.3.8.7 1.7 1.4 2.4.2.3.5.5.8.7.9 5.2 2.5 10.4 4.6 15.3.8 1.7 1.4 3.4 2.8 5 .6.8 1.5 1.4 2.5 1.8.3.1.7.2 1 .3l-1.1 1.1c-.6.7-1.3 1.6-1.7 2.8-.4.9-.5 2-.5 3-2 1.1-3.8 2.5-5.5 3.9-2.4 2-4.6 4.4-6.2 7.1-1.6 2.8-2.6 5.8-3 9-.1.5-.1 1-.2 1.5-.3.7-.5 1.4-.8 2.2-1.3 3.8-2.8 8.3-4.3 13.3-.7 2.5-1.5 5.2-2.3 8-.7 2.8-1.4 5.7-1.6 8.9-.3 3.8.5 7.5 1.4 11.1.9 3.6 1.9 7.1 3 10.6s2.3 7 3.6 10.5c.6 1.7 1.3 3.4 2 5.1l.9 2.2c-.1.4-.2.7-.3 1.1-.4 1.7-.7 3.7-.6 5.7.1 2 .2 4 .5 6.2.1 1.1.4 2.2.6 3.3.2 1.1.5 2.2.6 3.3.6 4.5 0 9.4-.8 14.5-1.7 10.3-3.1 21.6-4.7 33.5l-3.6 28.5-1.9 14.2-1 7.1-.5 3.5-.2 1.1c0 .1-.1.3 0 .4l.4.2.6.4 1.6 1.1 14.6 1.6 3.6.4c1.2.1 2.5.2 3.9-.1.7-.2 1.3-.4 1.9-.8.6-.4 1-1 1.4-1.5.7-1.2 1.1-2.3 1.5-3.5 1.7-4.6 2.9-9.3 4.2-14l3.6-14.1 6.3-26.4c.6 4.4 1.1 8.7 1.7 13.1 1 7.7 2 15.5 3.1 23.2.5 3.9 1.1 7.7 1.7 11.6l.5 2.9c.2 1 .3 1.9.5 2.9s.4 1.9.6 2.9c.3 1 .6 2 1.1 2.9.5.9 1.3 1.8 2.3 2.3.9.6 1.9.9 2.9 1.1 1.9.5 3.8.8 5.8 1.2 3.9.7 7.8 1.1 11.7 1.2 2 .1 3.9.1 5.9 0 .5 0 1 0 1.5-.1l1.4-.1h.1s.1 0 0 0v-1.3l-.1-3c0-2-.1-3.9-.2-5.9-.1-2-.2-3.9-.3-5.8-.8-15.6-1.9-31.1-2.5-46.7-.5-12.9-.8-25.2-.5-36.3 0-.7 0-1.4.1-2.1 0-.7.1-1.4.1-2 .1-1.4.2-2.7.2-4 0-1.3.2-2.6.3-3.9.1-1.3.3-2.5.4-3.8l.6-3.6.3-1.8v-.4l-.2-.3-.2-.4c-.1-.3-.3-.5-.4-.8-.8-1.7-1.5-3.4-2.1-5 .3-.1.5-.2.6-.3.1-.1.2-.2.1-.2.1.1 1.2-1 3.1-3.1 1.9-2 4.6-5 7.9-8.7 3.3-3.7 7.2-8.1 11.6-13 1.1-1.2 2.2-2.5 3.3-3.8 1.1-1.3 2.4-2.6 3.3-4.3.4-.8.8-1.8 1-2.7.6-.9.6-1.9.4-2.9zM945 224.3v-.4c.4-.3.8-.7 1.1-1-.4.4-.7.9-1.1 1.4zm4.1-5.7c-.3.4-.6.8-.8 1.2.4-.7.6-1.4.9-2.2.2-.6.3-1.3.4-1.9.1-.6.1-1.3.2-1.9.1-2.5-.2-4.9-.5-7.2-.2-2.3-.5-4.6-.6-6.7-.3-4.4-.1-8.6.5-12.4 0-.2.1-.4.1-.6l8.3 12.3c.9 1.4 1.9 2.8 2.8 4.1-4.2 5.5-7.9 10.7-11.3 15.3zm-132.2-24.9s0-.1 0 0c-.1 0-.1 0 0 0-.2-.1-.1 0 0 0zm-.1 0c0 .1 0 .1 0 0z"/><path class="st0" d="M834.2 160.3c.1 0 .1 0 0 0 .1-.1-.4-.2-1.2-.3-.8-.3-1.8-.7-2.8-1.3-1.6-1-3.4-2.6-4.9-4.9-.7-1.1-1.4-2.4-1.9-3.9-.5-1.4-.8-3.1-.9-4.8-.3-3.4.2-7.2 1.2-11.1 1-3.9 2.4-8.1 4-12.4 1.6-4.3 3.3-8.9 4.8-13.7 1.5-4.8 2.7-10 2.9-15.4.3-6.5-.9-13.2-4.2-18.9-1.6-2.9-3.8-5.4-6.5-7.4s-5.7-3.4-9-4.1c-3.2-.7-6.6-.8-9.9-.1-3.2.7-6.3 2.1-9 4-2.7 2-5 4.4-6.6 7.3-.1.2-.2.4-.4.6-2-.6-4.3-.9-6.7-.8-3.2.2-6.5 1.1-9.6 2.8-.8.4-1.5.9-2.3 1.4-.7.5-1.5 1.1-2.1 1.7-1.4 1.2-2.7 2.6-3.8 4.2-2.2 3.1-4 6.8-4.7 10.9-.5 2.4-.5 4.9-.3 7.4.2 2.4.7 4.8 1.3 7.2.6 2.4 1.4 4.7 2.3 6.9.9 2.3 1.8 4.5 2.6 6.7 1.6 4.5 2.9 9.1 3.4 13.8.2 2.3.2 4.7-.2 6.9-.5 2.2-1.5 4.4-3.1 6-1.6 1.6-3.7 2.7-5.8 3.6-.3.1-.5.2-.8.3l-.4.1-.7.2-.8.2-.2.1h-.1l.2.4.4.8c.1.1.1.3.2.4l.1.2c.7 1.1 1.6 2 2.5 2.9 1.9 1.6 4.2 2.8 6.6 3.5 1.7.5 3.4.6 5.1.4-.2.9-.3 1.9-.4 2.8-1.3 9.4-1.6 18.9-1 28.3h-.1l.1.5c.2.9.3 1.9.7 2.9.2.5.4 1 .8 1.5s.9.8 1.4 1c.6.2 1.1.3 1.7.3.5 0 1-.1 1.5-.2 1-.2 1.9-.4 2.9-.7.7-.2 1.4-.5 2.2-.8.4 2.3.4 4.6.1 6.9-.1.8-.3 1.5-.5 2.2-.2.7-.5 1.5-.8 2.3-.2.8-.5 1.6-.5 2.5 0 .5 0 .9.2 1.4 0 .1.1.2.1.3-.2.4-.4.9-.7 1.4-.8 1.6-1.8 3.6-3.1 5.9-1.3 2.3-2.8 4.8-4.4 7.7-1.6 2.8-3.4 6-4.9 9.6-.8 1.8-1.5 3.6-2.2 5.6-.6 2-1.2 4-1.7 6.2-1.9 8.6-2.2 18.2-1.9 28.2l.3 9.1c.1 3 .2 6 .4 9.1.2 3 .5 6 1 9.1.3 1.5.7 3.1 1.4 4.5.7 1.5 1.8 2.7 3.1 3.7 2.6 1.9 5.7 2.8 8.7 3.3.2 0 .4.1.7.1.7 3.5 1.4 7.3 2.1 11.2 1.3 7.6 2.3 15.3 3.1 23 .4 3.9.7 7.7.9 11.6.1 1.9.2 3.9.3 5.8 0 1 .1 1.9.1 2.9l.1 3.7 6.6-.7-.1-4.3-.1-3.6c0-2.4-.1-4.8-.1-7.3 0-4.8 0-9.7.2-14.5.2-6.3.4-12.2.7-17.5 0 .3.1.6.1.9.9 7.6 1.6 15.3 1.9 23 .2 3.8.3 7.7.3 11.5v8.7l-.1 3.7 6.7-.7.1-4.3.1-3.7c.1-2.4.2-4.9.3-7.3.2-4.9.5-9.7.9-14.6.9-11.1 2-21.1 2.9-28.4.2-1.5.3-2.8.5-4 .4-.2.8-.4 1.1-.6 1.9.1 3.9.1 5.9-.1 3.1-.2 6.1-.7 9.1-1.7l1.1-.4 1.1-.5c.7-.3 1.4-.7 2.1-1 1.4-.7 2.7-1.5 3.9-2.5 1.2-1 2.4-2.1 3.1-3.7.4-.9.6-1.8.5-2.8h.1v-.1l-.1-.3-.4-1.8c-.2-.7-.3-1.5-.5-2.2-1.4-5.9-3.6-11.6-6.2-17.1-2.5-5.5-5.4-10.8-8.3-16.1-2.4-4.4-4.6-8.7-6.8-12.9-2.2-4.2-4.2-8.2-5.9-12.2-1.7-4-3-7.8-3.9-11.5-.5-1.9-.8-3.8-1-5.7l.1-.1-.2-.2c-.1-1-.2-1.9-.2-2.9.1 0 .1 0 .2-.1l1.1-.3.7-7c.2-2.2.5-4.3.9-6.4.4-2.1.8-4.2 1.4-6.3.2-.5.3-1 .5-1.5l.3-.8.3-.8c1.9.4 3.7.8 5.4 1.2 1 .2 1.9.3 2.9.3.5 0 .9 0 1.4-.1.2 0 .5-.1.7-.1.1 0 .3-.1.4-.1.1 0 .1-.1.2-.1 0-.1-.1-.3-.3-.7l.2.4c.4-.2.6-.8.6-1.1 0-.4 0-.7-.1-1l-.2-.9-.2-.9c-.2-1.2-.4-2.3-.7-3.5-.2-1.1-.5-2.2-.7-3.3-.1-.5-.3-1-.4-1.5-.2-.8-.4-1.6-.6-2.3-.1-.5-.2-1.1-.3-1.6-.2-.7-.4-1.3-.6-1.9-.2-.5-.4-1-.5-1.4-.9-2.9-2-6.1-3.1-9 3 1 6 1.4 8.7 1.3 5.8-.1 10.3-1.8 13.1-3.2 1.4-.7 2.5-1.4 3.1-1.8.2-.1.4-.3.5-.4h.4v.4h-.2c.2-.2.4-.3.4-.3.2-.2-.3-.2-1.4-.4.1 0 0 0 0 0zm-54.4 29.5l-.4.1h-.2v-.2l.1-.2c.1-.5.3-1.1.4-1.6.2.6.5 1.1.7 1.7-.3.1-.4.2-.6.2z"/><path class="st0" d="M765.9 178.2c.5-.7 1.1-1.3 1.6-2.1s.9-1.6 1.2-2.5c.3-.9.3-2-.1-3s-1-1.7-1.7-2.3c-.7-.6-1.5-1.1-2.2-1.5-9.6-5.9-18.4-11.2-24.8-14.9-1.6-.9-3-1.8-4.3-2.5-1.3-.7-2.5-1.2-3.4-1.6-.7-.3-1.3-.5-1.8-.6-.5-.5-1.1-.9-1.6-1.3-.3-.2-.6-.3-.9-.5 0-.2.1-.3.1-.5-.1-.8-.8-1.4-1.6-1.3-.4 0-.7.2-1 .5-2.2-2.3-3.8-5.1-4.6-7.8-.9-2.9-1-5.7-.8-8v-.2c1.6-1 3.6-2.4 5.6-4.4 1.2-1.2 2.5-2.7 3.6-4.4.3 0 .6.1.8.1 1.2.1 2.4.1 3.3-.2 1-.3 1.7-.7 2.3-1.1 1.1-.9 1.3-1.7 1.3-1.7-.1.3-.1.5-.1.5.1 0 .6-.7 1.4-2.1.1-.2.2-.5.4-.7.5-.8 1-1.8 1.4-3 .3-.8.7-1.7 1-2.7.9-2.8 1.7-6.3 1.9-10.3.2-3.9-.2-8.3-1.3-12.7-.7-2.7-1.7-5.2-2.8-7.7-1.2-2.5-2.6-4.8-4.3-7-.8-1.1-1.7-2.2-2.7-3.2-1-1-2.2-1.9-3.6-2.4s-2.9-.6-4.4-.4c-1.4.3-2.7.8-3.9 1.6-.4-.2-.9-.4-1.4-.5-3.8-1-8.2-.5-12.2 1.5-2 1-3.9 2.3-5.5 3.8-1.6 1.6-3 3.4-4.2 5.3-2.3 3.9-3.5 8.3-3.8 12.7-.3 4.4-.3 8.9.6 13.2 0 .2.1.4.1.6v.4c0 1.2.2 2.5.7 3.8.4 1 1 2 1.9 2.5 0 0 .1 0 .1.1.4.6.9 1.3 1.4 1.9l.2.2.3.3.5.5c.3.3.7.6 1.1.9l.2.1c1.7 3.8 3.9 6.9 6.1 9.3 1.7 1.9 3.5 3.3 4.9 4.3.1 2.6 0 5.4-.7 8.2-.7 2.5-2 4.7-3.8 6.5-.1.1-.3.2-.4.4-.5-.6-1.4-.6-2-.1-.4.3-.6.8-.5 1.3-.5 0-.9.2-1.2.6-.2.2-.2.5-.2.7-.1.1-.3.1-.4.2l-.2.1h-.3l-1 .3c-.5.1-.9.3-1.4.4-.1 0-.2 0-.4.1-1.1.2-2.1.7-3.1 1.3-1 .6-1.9 1.5-2.5 2.6-.7 1.1-1.1 2.2-1.7 3.3-.5 1.1-1.1 2.2-1.7 3.3-.7 1.1-1.3 2.3-2 3.4-1.4 2.3-2.7 4.8-4.1 7.2l-3.6 6.5-6.5-28.5-1.6.4c0-.1 0-.2-.1-.3-.1-.6-.4-1.3-.7-1.9-.6-1.2-1.4-2.2-2.5-3-.4-.2-.7-.4-1.1-.6-.3-.6-.6-1.2-.9-1.9-.3-.8-.4-1.7-.5-2.6v-1.4c0-.2 0-.6-.1-.8 0-.1-.1-.3-.2-.4-.1-.1-.2-.3-.4-.4-.2-.1-.3-.1-.5-.1s-.4.1-.5.3c-.3.3-.3.6-.3.9v1.4c0 .9.1 1.9.4 2.8.1.6.3 1.2.5 1.8h-.4l-.1-.1c-.4-.5-.8-1.1-1.2-1.7-.4-.8-.7-1.6-.9-2.5-.1-.4-.2-.9-.2-1.3 0-.2-.1-.5-.2-.8-.1-.1-.2-.2-.3-.4-.1-.1-.3-.2-.4-.3-.2-.1-.4-.1-.6 0-.2 0-.4.2-.5.4-.2.3-.2.7-.1.9.1.5.1.9.2 1.4.2.9.5 1.8.9 2.7.1.3.3.7.5 1-.4-.3-.8-.7-1.1-1.1-.6-.7-1.1-1.4-1.4-2.2-.2-.4-.4-.8-.5-1.2-.1-.2-.2-.5-.4-.7l-.3-.3c-.1-.1-.3-.2-.5-.2s-.4 0-.6.1c-.2.1-.3.3-.4.5-.1.4 0 .7 0 .9.2.5.3.9.5 1.3.4.9.9 1.7 1.4 2.5.4.6.8 1.1 1.2 1.5-.1-.1-.2-.1-.2-.2-.7-.5-1.3-1.2-1.9-1.9-.3-.4-.5-.7-.8-1.1-.1-.2-.3-.5-.5-.6-.1-.1-.2-.2-.4-.2-.2-.1-.3-.1-.5-.1s-.4.1-.5.2c-.2.1-.3.3-.3.5 0 .4.1.7.2.9.2.4.5.8.8 1.2.6.8 1.2 1.5 1.9 2.1 1.2 1.1 2.4 1.8 3.3 2.2.5.2.8.3 1.1.4.2.3.5.5.7.7.6.3 1.1.6 1.6.9 1.1.7 2 1.6 2.8 2.3l-.3.1 1 5.2.9 4.6 1.7 9.2c.6 3.1 1.2 6.1 1.8 9.2l1 4.6.5 2.3c.1.4.2.7.3 1.2.1.4.3.8.5 1.2.7 1.4 1.9 2.6 3.5 3.2.8.3 1.7.2 2.5-.1.8-.3 1.4-.8 1.9-1.4 1.7-2.2 3.1-4.3 4.5-6.4 1.3-2.1 2.6-4.1 3.8-5.9 1.2-1.8 2.3-3.5 3.4-5.1.2-.3.4-.6.7-.9l.3.9c0 1 0 2 .1 3.1.2 2.2.4 4.7.2 7.4s-.6 5.7-1.3 8.9c-.7 3.2-1.7 6.5-2.8 10-1.1 3.5-2.2 7.2-3.1 11.1-.9 3.9-1.6 8.1-1.5 12.4v.4c-.4 2.9-.6 6.2-.7 9.9-.2 7.3.6 15.9 1.8 25.4 1.2 9.5 2.8 19.9 3.2 30.9.4 9.8 0 19.5-1.2 29.2-.6 4.8-1.4 9.7-2.3 14.5-.2 1.2-.5 2.4-.7 3.6-.3 1.2-.5 2.4-.8 3.6-.3 1.2-.6 2.4-.9 3.5l-1.2 4.4 23.3 2v-2.4c.2.7.4 1.5.6 2.3.3 1.1.6 2.2.9 3.5.5 1.7.9 3.5 1.5 5.4.2.3.5.6.7.8.2-.3.3-.6.5-.8 0-.8 0-1.6.1-2.3v-2.2c.1-.9.1-1.8.3-2.8.1-.9.2-1.9.4-2.9.1-.5.2-1 .2-1.5l.3-1.5c.8-4 2-8.3 3.4-12.6 1.5-4.4 3.3-8.9 5.3-13.5s4.1-9.4 6.1-14.4c1.8-4.4 3.5-8.9 5.1-13.5 1.6-4.5 3.1-9.1 4.3-13.8 1.2-4.7 2.2-9.4 3-14.1.7-4.8 1.3-9.5 1.5-14.4.3-4.8.2-9.6-.1-14.4-.1-2.4-.4-4.8-.7-7.2l-.6-3.6c-.1-.7-.2-1.3-.4-2 1-1.4 1.8-3 2.3-4.6.4-1.3.6-2.7.5-4 0-.7-.1-1.4-.3-2-.1-.7-.4-1.3-.6-1.9-.1-.3-.3-.6-.4-.9.2-.3.3-.7.5-1 .4-.1.8-.3 1.1-.5 1.1-.7 2-1.8 2.6-2.9.3-.6.5-1.3.7-1.9 0-.1 0-.2.1-.3.3 0 .6-.1.9-.3.6-.4.8-.7 1.1-.9 5-4.7 9.5-9.9 13.8-15.2l3.3-4 1.2-2.6zM711.3 291c-1.5 9.2-3.2 17.5-4.4 24.5-.3 1.7-.6 3.3-.8 4.9 0-4.1.1-8.2.2-12.3.4-13.2 1.4-26.5 3.6-39.6.8-5 1.8-9.8 2.8-14.5.3 2.3.5 4.6.6 6.8.7 10.8-.5 21-2 30.2zm47.8-118.8l-.5.9-.6 1.1c-.8 1.5-1.7 2.9-2.6 4.3-1.8 2.8-3.8 5.6-5.9 8.2-2.1 2.6-4.4 5.1-6.8 7.5l-.9.9-1.1 1-.2.2c-.1 0 0 .1 0 .1v.2l.1.6c.1.3.2.5.3.7 0 .1.1.1.1.2-.8.9-2 2.1-3.5 3-.3.2-.6.3-.8.5-.1-.1-.1-.2-.2-.3-1.6-2-3.4-3.8-4.9-5.8-1.5-2-2.7-4.2-3.2-6.5-.5-2.4-.5-4.9 0-7.3.2-1.2.5-2.4.9-3.6l.6-1.8.3-.9.1-.3c2.4-1.2 4.6-2.9 6-5.2.9-1.5 1.5-3.3 1.4-5.1 0-.7-.2-1.5-.4-2.1.1 0 .1 0 .2.1.7.2 1.4.5 2.1.7 5.6 2.1 11.9 5.1 18.7 8.2l.8.5zm-31.3-27.4zm-108.4 13c-.3-.7-.5-1.5-.8-2.2-.6-1.4-1.1-2.8-1.7-4.2-2.3-5.4-4.8-10.2-7.2-13.9-2.4-3.8-4.8-6.5-6.6-8.3-.5-.4-.8-.8-1.2-1.1-.4-.3-.7-.6-.9-.8-.5-.4-.8-.6-.8-.6s-.1-.2-.4-.4c-.3-.2-.7-.5-1.3-.8-.2-.1-.4-.1-.5-.2-1.6-1-3.2-1.7-4.6-2.2-.9-.3-1.7-.5-2.4-.7.8-.3 1.5-.7 2-1 1.8-1.2 2.6-2.4 2.4-2.5 0 0 .2 0 .3-.2 0 0 .1-.1.2-.3 1.4-1 2.6-2.2 3.5-3.7 1-1.7 1.6-3.7 1.8-5.6.2-1.6.3-3.1.4-4.6.1-1.5.2-3 .3-4.4.2-2.9.4-5.7.5-8.4.1-2.1.3-4.1.4-6 .8-1.7 1.4-3.5 1.9-5.3.5-2 .8-4.1.8-5.9-.1-1.9-.5-3.5-1-4.8-.2-.5-.5-1-.7-1.3.2-.3.4-.7.5-1 0-.1.1-.1.1-.2v-.4c0-.5-.2-1-.5-1.3-.2-.3-.4-.5-.6-.7-.4-.3-.6-.5-.6-.4.1-.1-.6-.9-1.9-2.2-1.4-1.3-3.4-3.1-6.2-4.9-2.8-1.8-6.5-3.6-10.9-4.5-4.4-.8-9.6-.5-14.4 1.8-2.8 1.4-5.3 3.6-7.1 6.2-1.8 2.6-2.9 5.6-3.8 8.5-.9 3-1.6 6-1.8 9.1 0 .4 0 .7-.1 1.1-.2.4-.3.7-.4 1.1-.5 1.8-.8 3.5-.7 5.4 0 1 .2 2 .6 3-.3 1.1-.5 2.2-.6 3.3-.6 3.8-.1 7.8 1.3 11.4.3.7.6 1.3.9 2-.2 1.4-.4 2.9-.7 4.3-.4 2.2-.8 4.3-1.3 6.4-.1.3-.1.5-.2.8h-.7c-.6 0-1.2.1-1.8.2-.6.1-1.2.1-1.8.2-.6.1-1.2.2-1.9.3-2.5.5-5 1.3-7.4 2.7-1.6.9-3.2 2.1-4.5 3.5-.4.1-.7.1-1 .2-1.6.4-2.3 1-2.3 1s-.4.1-1.1.4c-.7.3-1.8.7-3.1 1.4-1.6.8-3.5 1.9-5.6 3.4-3.2-3.5-6.5-6.8-9.9-9.9l-.2.3-.1-.1-.3-.1-.9-.2c-.6-.2-1.2-.3-1.8-.5-2.4-.6-4.7-1.2-7-1.9l-3.3-.9-1.2-.3-.5-.5-.4-.4c-.1-.1-.2-.2-.3-.2.2 0 .3-.1.5-.1 2.2-.6 4-1.5 5.3-2.4l-.4-.6.5.6c.4-.3.7-.9.8-1.5v-.8c2.7-2.2 4.8-5.1 6.3-8.2 1.5-3 2.4-6.1 3.3-9 .8-3 1.6-5.8 2.2-8.6.2-1 .4-1.9.5-2.8.7-1.3 1.3-2.7 1.9-4.4.8-2.2 1.5-4.8 1.5-7.6.1-1.7-.1-3.4-.6-5-.4-1.6-1.2-3.2-2.2-4.6-1-1.4-2.3-2.6-3.9-3.4l-1.5-.6c-.2-1.5-.8-2.8-1.6-3.8-.9-1.2-1.9-2.1-2.7-2.7-1.5-1.2-2.4-1.8-2.6-1.8l-.1-.1c-.2-.2-1-1-2.5-1.9-1.7-1.1-4.5-2.5-8.1-3.5-.5-.1-.9-.2-1.4-.3-.4-.3-.8-.7-1.2-1-2.7-2-5.7-3.4-9-4.1-3.2-.7-6.6-.8-9.9-.1-3.2.7-6.3 2.1-9 4-2.7 2-5 4.4-6.6 7.3-.1.2-.2.4-.4.6-2-.6-4.3-.9-6.7-.8-3.2.2-6.5 1.1-9.6 2.8-.8.4-1.5.9-2.3 1.4-.7.5-1.5 1.1-2.1 1.7-1.4 1.2-2.7 2.6-3.8 4.2-2.2 3.1-4 6.8-4.7 10.9-.5 2.4-.5 4.9-.3 7.4.2 2.4.7 4.8 1.3 7.2.6 2.4 1.4 4.7 2.3 6.9.9 2.3 1.8 4.5 2.6 6.7 1.6 4.5 2.9 9.1 3.4 13.8.2 2.3.2 4.7-.2 6.9-.5 2.2-1.5 4.4-3.1 6-1.6 1.6-3.7 2.7-5.8 3.6-.3.1-.5.2-.8.3l-.4.1-.7.2-.8.2-.2.1h-.1l.2.4.4.8c.1.1.1.3.2.4l.1.2c.7 1.1 1.6 2 2.5 2.9 1.4 1.2 3 2.1 4.7 2.8-.3.8-.5 1.6-.8 2.5-1.6 6.9-1.3 14.7.8 23.3-7.8-4.7-14.8-8.9-20.1-12.1-1.6-.9-3-1.8-4.3-2.5-1.3-.7-2.5-1.2-3.4-1.6-.7-.3-1.3-.5-1.8-.6-.5-.5-1.1-.9-1.6-1.3-.3-.2-.6-.3-.9-.5 0-.2.1-.3.1-.5-.1-.8-.8-1.4-1.6-1.3-.4 0-.7.2-1 .5-2.2-2.3-3.8-5.1-4.6-7.8-.9-2.9-1-5.7-.8-8v-.2c1.6-1 3.6-2.4 5.6-4.4 1.2-1.2 2.5-2.7 3.6-4.4.3 0 .6.1.8.1 1.2.1 2.4.1 3.3-.2 1-.3 1.7-.7 2.3-1.1 1.1-.9 1.3-1.7 1.3-1.7-.1.3-.1.5-.1.5.1 0 .6-.7 1.4-2.1.1-.2.2-.5.4-.7.5-.8 1-1.8 1.4-3 .3-.8.7-1.7 1-2.7.9-2.8 1.7-6.3 1.9-10.3.2-3.9-.2-8.3-1.3-12.7-.7-2.7-1.7-5.2-2.8-7.7-1.2-2.5-2.6-4.8-4.3-7-.8-1.1-1.7-2.2-2.7-3.2-1-1-2.2-1.9-3.6-2.4s-2.9-.6-4.4-.4c-1.4.3-2.7.8-3.9 1.6-.4-.2-.9-.4-1.4-.5-3.8-1-8.2-.5-12.2 1.5-2 1-3.9 2.3-5.5 3.8-1.6 1.6-3 3.4-4.2 5.3-2.3 3.9-3.5 8.3-3.8 12.7-.3 4.4-.3 8.9.6 13.2 0 .2.1.4.1.6v.4c0 1.2.2 2.5.7 3.8.4 1 1 2 1.9 2.5 0 0 .1 0 .1.1.4.6.9 1.3 1.4 1.9l.2.2.3.3.5.5c.3.3.7.6 1.1.9l.2.1c1.7 3.8 3.9 6.9 6.1 9.3 1.7 1.9 3.5 3.3 4.9 4.3.1 2.6 0 5.4-.7 8.2-.7 2.5-2 4.7-3.8 6.5-.1.1-.3.2-.4.4-.5-.6-1.4-.6-2-.1-.4.3-.6.8-.5 1.3-.5 0-.9.2-1.2.6-.2.2-.2.5-.2.7-.1.1-.3.1-.4.2l-.2.1h-.3l-1 .3c-.5.1-.9.3-1.4.4-.1 0-.2 0-.4.1-1.1.2-2.1.7-3.1 1.3-1 .6-1.9 1.5-2.5 2.6-.7 1.1-1.1 2.2-1.7 3.3-.5 1.1-1.1 2.2-1.7 3.3-.7 1.1-1.3 2.3-2 3.4-1.4 2.3-2.7 4.8-4.1 7.2l-3.6 6.5-6.5-28.5-1.6.4c0-.1 0-.2-.1-.3-.1-.6-.4-1.3-.7-1.9-.6-1.2-1.4-2.2-2.5-3-.4-.2-.7-.4-1.1-.6-.3-.6-.6-1.2-.9-1.9-.3-.8-.4-1.7-.5-2.6V132c0-.2 0-.6-.1-.8 0-.1-.1-.3-.2-.4-.1-.1-.2-.3-.4-.4-.2-.1-.3-.1-.5-.1s-.4.1-.5.3c-.3.3-.3.6-.3.9v1.4c0 .9.1 1.9.4 2.8.1.6.3 1.2.5 1.8h-.4l-.1-.1c-.4-.5-.8-1.1-1.2-1.7-.4-.8-.7-1.6-.9-2.5-.1-.4-.2-.9-.2-1.3 0-.2-.1-.5-.2-.8-.1-.1-.2-.2-.3-.4-.1-.1-.3-.2-.4-.3-.2-.1-.4-.1-.6 0-.2 0-.4.2-.5.4-.2.3-.2.7-.1.9.1.5.1.9.2 1.4.2.9.5 1.8.9 2.7.1.3.3.7.5 1-.4-.3-.8-.7-1.1-1.1-.6-.7-1.1-1.4-1.4-2.2-.2-.4-.4-.8-.5-1.2-.1-.2-.2-.5-.4-.7l-.3-.3c-.1-.1-.3-.2-.5-.2s-.4 0-.6.1c-.2.1-.3.3-.4.5-.1.4 0 .7 0 .9.2.5.3.9.5 1.3.4.9.9 1.7 1.4 2.5.4.6.8 1.1 1.2 1.5-.1-.1-.2-.1-.2-.2-.7-.5-1.3-1.2-1.9-1.9-.3-.4-.5-.7-.8-1.1-.1-.2-.3-.5-.5-.6-.1-.1-.2-.2-.4-.2-.2-.1-.3-.1-.5-.1s-.4.1-.5.2c-.2.1-.3.3-.3.5 0 .4.1.7.2.9.2.4.5.8.8 1.2.6.8 1.2 1.5 1.9 2.1 1.2 1.1 2.4 1.8 3.3 2.2.5.2.8.3 1.1.4.2.3.5.5.7.7.6.3 1.1.6 1.6.9 1.1.7 2 1.6 2.8 2.3l-.3.1 1 5.2.9 4.6 1.7 9.2c.6 3.1 1.2 6.1 1.8 9.2l1 4.6.5 2.3c.1.4.2.7.3 1.2.1.4.3.8.5 1.2.7 1.4 1.9 2.6 3.5 3.2.8.3 1.7.2 2.5-.1.8-.3 1.4-.8 1.9-1.4 1.7-2.2 3.1-4.3 4.5-6.4 1.3-2.1 2.6-4.1 3.8-5.9 1.2-1.8 2.3-3.5 3.4-5.1.2-.3.4-.6.7-.9l.3.9c0 1 0 2 .1 3.1.2 2.2.4 4.7.2 7.4s-.6 5.7-1.3 8.9c-.7 3.2-1.7 6.5-2.8 10-1.1 3.5-2.2 7.2-3.1 11.1-.9 3.9-1.6 8.1-1.5 12.4v.4c-.4 2.9-.6 6.2-.7 9.9-.2 7.3.6 15.9 1.8 25.4 1.2 9.5 2.8 19.9 3.2 30.9.4 9.8 0 19.5-1.2 29.2-.6 4.8-1.4 9.7-2.3 14.5-.2 1.2-.5 2.4-.7 3.6-.3 1.2-.5 2.4-.8 3.6-.3 1.2-.6 2.4-.9 3.5l-1.2 4.4 23.3 2V345c.2.7.4 1.5.6 2.3.3 1.1.6 2.2.9 3.5.5 1.7.9 3.5 1.5 5.4.2.3.5.6.7.8.2-.3.3-.6.5-.8 0-.8 0-1.6.1-2.3v-2.2c.1-.9.1-1.8.3-2.8.1-.9.2-1.9.4-2.9.1-.5.2-1 .2-1.5l.3-1.5c.8-4 2-8.3 3.4-12.6 1.5-4.4 3.3-8.9 5.3-13.5s4.1-9.4 6.1-14.4c1.8-4.4 3.5-8.9 5.1-13.5 1.6-4.5 3.1-9.1 4.3-13.8 1.2-4.7 2.2-9.4 3-14.1.7-4.8 1.3-9.5 1.5-14.4.3-4.8.2-9.6-.1-14.4-.1-2.4-.4-4.8-.7-7.2l-.6-3.6c-.1-.7-.2-1.3-.4-2 1-1.4 1.8-3 2.3-4.6.4-1.3.6-2.7.5-4 0-.7-.1-1.4-.3-2-.1-.7-.4-1.3-.6-1.9-.1-.3-.3-.6-.4-.9.2-.3.3-.7.5-1 .4-.1.8-.3 1.1-.5 1.1-.7 2-1.8 2.6-2.9.3-.6.5-1.3.7-1.9 0-.1 0-.2.1-.3.3 0 .6-.1.9-.3.6-.4.8-.7 1.1-.9 5-4.7 9.5-9.9 13.8-15.2l3.3-4 1-1.3c2.3 5.1 5 10 7.6 14.9l.4.7c-.5 1-1.1 2.1-1.8 3.3-1.3 2.3-2.8 4.8-4.4 7.7-1.6 2.8-3.4 6-4.9 9.6-.8 1.8-1.5 3.6-2.2 5.6-.6 2-1.2 4-1.7 6.2-1.9 8.6-2.2 18.2-1.9 28.2l.3 9.1c.1 3 .2 6 .4 9.1.2 3 .5 6 1 9.1.3 1.5.7 3.1 1.4 4.5.7 1.5 1.8 2.7 3.1 3.7 2.6 1.9 5.7 2.8 8.7 3.3.2 0 .4.1.7.1.7 3.5 1.4 7.3 2.1 11.2 1.3 7.6 2.3 15.3 3.1 23 .4 3.9.7 7.7.9 11.6.1 1.9.2 3.9.3 5.8 0 1 .1 1.9.1 2.9l.1 3.7 6.6-.7-.1-4.3-.1-3.6c0-2.4-.1-4.8-.1-7.3v-2.1c.6 0 1.1.1 1.7.1.5 0 1 .1 1.5.1 0 1.8.1 3.6.1 5.3v8.7l-.1 3.7 6.7-.7.1-4.3.1-3.7c.1-2.4.2-4.9.3-7.3 0-.4 0-.8.1-1.2 5.2.5 10.4.9 15.4 1.4l3.9.3c.7.1 1.4.1 2 .2l.9.1h.2c.1 0 .2 0 .2-.1v-1.9c0-1.4.1-2.7.1-4.1h.2l28.2-1v-31.3l.3-30.6c.2-10.2.4-20.4.8-30.6.2-6.6.5-13.1.9-19.7l1.1 1.5c.2.3.5.6.8.9.4.3.8.4 1.2.5h.2c.2.3.3.6.5.8.3.4.6.9 1 1.3 1.8 2.1 4.1 3.7 6.7 4.8v1.6c0 .3 0 .5.1.8.2.5.5 1 .9 1.3.6.5 1.3.7 2 .7-.3 2.2-.7 4.7-.9 7.4-.7 6.8-.8 15-.5 24 .3 9 1.1 18.9 1.8 29.3l3 42.2 4.8-.3c.1.8.2 1.5.3 1.9.1.6.2 1 .2 1v-1c0-.5-.1-1.1-.2-1.9L567 332l4.2-25.8v8.3c-.1 3.9-.1 7.9-.3 11.8-.1 2-.1 3.9-.2 5.9l-.3 6.8 24.5-4.3.9-5.4c.3-1.6.5-3.2.8-4.9.5-3.2 1-6.5 1.4-9.8.9-6.5 1.7-13 2.4-19.6 1.4-13.1 2.4-26.2 3-39.3.5-10.3.6-20.2.4-29.1 0-1.1 0-2.1-.1-3.1.3-.2.6-.5.9-.7.2-.1.3-.3.5-.4l.2-.2.2-.2.2-.2c.1-.6.1-.7.1-1 0-.3 0-.5.1-.8 0-.5 0-1 .1-1.5 0-1 0-2-.1-3-.1-1.9-.3-3.8-.6-5.7 1.1-1.5 2.1-3.1 3-4.7 2.1-3.6 3.9-7.3 5.5-11.1 3.2-7.6 5.5-15.5 7.1-23.6.6-3.4.5-6.9-.4-10.1-.5-1-.8-1.7-1.1-2.5zm-234.6 132c-1.5 9.2-3.2 17.5-4.4 24.5-.3 1.7-.6 3.3-.8 4.9 0-4.1.1-8.2.2-12.3.4-13.2 1.4-26.5 3.6-39.6.8-5 1.8-9.8 2.8-14.5.3 2.3.5 4.6.6 6.8.6 10.7-.6 21-2 30.2zm47.8-118.9l-.5.9-.6 1.1c-.8 1.5-1.7 2.9-2.6 4.3-1.8 2.8-3.8 5.6-5.9 8.2-2.1 2.6-4.4 5.1-6.8 7.5l-.9.9-1.1 1-.2.2c-.1 0 0 .1 0 .1v.2l.1.6c.1.3.2.5.3.7 0 .1.1.1.1.2-.8.9-2 2.1-3.5 3-.3.2-.6.3-.8.5-.1-.1-.1-.2-.2-.3-1.6-2-3.4-3.8-4.9-5.8-1.5-2-2.7-4.2-3.2-6.5-.5-2.4-.5-4.9 0-7.3.2-1.2.5-2.4.9-3.6l.6-1.8.3-.9.1-.3c2.4-1.2 4.6-2.9 6-5.2.9-1.5 1.5-3.3 1.4-5.1 0-.7-.2-1.5-.4-2.1.1 0 .1 0 .2.1.7.2 1.4.5 2.1.7 5.6 2.1 11.9 5.1 18.7 8.2l.8.5zm97.4 28.2l-.7-1c-.3-.4-.5-.8-.8-1.3-.5-.8-1-1.7-1.4-2.6-.8-1.5-1.6-3-2.3-4.6.1 0 .3.1.4.1 1.6.4 3.1.7 4.7 1 .6.1 1.2.2 1.9.3.4 2.6.7 5.1.9 7.7l-2.7.4z"/><path class="st0" d="M335.8 194.9c-4.2-8.1-8-16.5-12.3-24.6-2.2-4.1-4.5-8-7-11.9l-1-1.4c-.3-.5-.6-1-1-1.5-.5-.6-1-1.1-1.6-1.6 0-.1-.1-.3-.2-.4-.4-.9-1.3-2.2-2.6-3.5-2.7-2.6-7.3-5.7-13.5-8.4-2.2-.9-4.5-1.8-7.1-2.6.3-.7.5-1.4.7-2 .1-.3.2-.6.2-.9.1-.2.1-.5.2-.7v-.1l-.1-.1-.1-.1-.3-.3c-.2-.2-.4-.4-.7-.6-.2-.2-.4-.4-.6-.5-.8-.7-1.5-1.3-2.2-1.9-2.2-1.8-3.7-3-4.3-3.4 0-.2 0-.4.1-.5.5-.3 1-.7 1.4-1 2.1-1.7 3.8-3.7 5.1-5.7 1.3-2 2.2-4.1 2.8-6.1.2-.7.4-1.3.5-2 .3.2.7.4 1.1.5.5.1 1.1.2 1.6.1 1-.2 1.9-.8 2.5-1.5.7-.7 1.1-1.6 1.4-2.4.3-.8.5-1.7.7-2.5.2-.8.4-1.7.5-2.5.3-1.7.2-3.6-.6-5.4-.3-.7-.8-1.4-1.4-1.8-.3-.3-.7-.5-1-.7-.1-3.2-.4-6.9-1.1-10.9-.2-1.2-.4-2.4-.7-3.7-.3-1.2-.6-2.5-1.1-3.8-.5-1.3-1.1-2.6-2-3.7-.9-1.1-2.1-2.1-3.3-2.8-1.5-.9-3.1-1.5-4.7-2.1-1.6-.6-3.2-1.1-4.9-1.5-3.3-.8-6.7-1.4-10.1-1.6-3.4-.2-6.8-.1-10.2.4-1.7.2-3.4.6-5 .9-1.6.4-3.3.8-4.9 1.5-1.6.7-3.2 1.8-4.2 3.4-1 1.6-1.1 3.6-.7 5.4.2 1.1.6 2 1.2 3-.3.5-.6 1-1 1.6-.8 1.5-1.7 3.4-2.3 5.6-.6 2.2-1 4.7-1.1 7.3 0 1.2.1 2.5.2 3.7-.7 1.7-.7 3.5-.5 5.2.1.9.3 1.7.5 2.5s.4 1.6.7 2.5c.3.8.7 1.7 1.4 2.4.2.3.5.5.8.7.9 5.2 2.5 10.4 4.6 15.3.8 1.7 1.4 3.4 2.8 5 .6.8 1.5 1.4 2.5 1.8.3.1.7.2 1 .3l-1.1 1.1c-.6.7-1.3 1.6-1.7 2.8-.4.9-.5 2-.5 3-2 1.1-3.8 2.5-5.5 3.9-2.4 2-4.6 4.4-6.2 7.1-1.6 2.8-2.6 5.8-3 9-.1.5-.1 1-.2 1.5-.3.7-.5 1.4-.8 2.2-1.3 3.8-2.8 8.3-4.3 13.3-.7 2.5-1.5 5.2-2.3 8-.7 2.8-1.4 5.7-1.6 8.9-.3 3.8.5 7.5 1.4 11.1.9 3.6 1.9 7.1 3 10.6s2.3 7 3.6 10.5c.6 1.7 1.3 3.4 2 5.1l.9 2.2c-.1.4-.2.7-.3 1.1-.4 1.7-.7 3.7-.6 5.7.1 2 .2 4 .5 6.2.1 1.1.4 2.2.6 3.3.2 1.1.5 2.2.6 3.3.6 4.5 0 9.4-.8 14.5-1.7 10.3-3.1 21.6-4.7 33.5l-3.6 28.5-1.9 14.2-1 7.1-.5 3.5-.2 1.1c0 .1-.1.3 0 .4l.4.2.6.4 1.6 1.1 14.6 1.6 3.6.4c1.2.1 2.5.2 3.9-.1.7-.2 1.3-.4 1.9-.8.6-.4 1-1 1.4-1.5.7-1.2 1.1-2.3 1.5-3.5 1.7-4.6 2.9-9.3 4.2-14l3.6-14.1 6.3-26.4c.6 4.4 1.1 8.7 1.7 13.1 1 7.7 2 15.5 3.1 23.2.5 3.9 1.1 7.7 1.7 11.6l.5 2.9c.2 1 .3 1.9.5 2.9s.4 1.9.6 2.9c.3 1 .6 2 1.1 2.9.5.9 1.3 1.8 2.3 2.3.9.6 1.9.9 2.9 1.1 1.9.5 3.8.8 5.8 1.2 3.9.7 7.8 1.1 11.7 1.2 2 .1 3.9.1 5.9 0 .5 0 1 0 1.5-.1l1.4-.1h.1s.1 0 0 0v-1.3l-.1-3c0-2-.1-3.9-.2-5.9-.1-2-.2-3.9-.3-5.8-.8-15.6-1.9-31.1-2.5-46.7-.5-12.9-.8-25.2-.5-36.3 0-.7 0-1.4.1-2.1 0-.7.1-1.4.1-2 .1-1.4.2-2.7.2-4 0-1.3.2-2.6.3-3.9.1-1.3.3-2.5.4-3.8l.6-3.6.3-1.8v-.4l-.2-.3-.2-.4c-.1-.3-.3-.5-.4-.8-.8-1.7-1.5-3.4-2.1-5 .3-.1.5-.2.6-.3.1-.1.2-.2.1-.2.1.1 1.2-1 3.1-3.1 1.9-2 4.6-5 7.9-8.7 3.3-3.7 7.2-8.1 11.6-13 1.1-1.2 2.2-2.5 3.3-3.8 1.1-1.3 2.4-2.6 3.3-4.3.4-.8.8-1.8 1-2.7.2-1 .2-2 0-3 0-1.8-.9-3.6-1.7-5.3zm-32.5 28.8v-.4c.4-.3.8-.7 1.1-1-.4.4-.7.9-1.1 1.4zm4-5.6c-.3.4-.6.8-.8 1.2.4-.7.6-1.4.9-2.2.2-.6.3-1.3.4-1.9.1-.6.1-1.3.2-1.9.1-2.5-.2-4.9-.5-7.2-.2-2.3-.5-4.6-.6-6.7-.3-4.4-.1-8.6.5-12.4 0-.2.1-.4.1-.6l8.3 12.3c.9 1.4 1.9 2.8 2.8 4.1-4.1 5.4-7.8 10.6-11.3 15.3zm-104.7-32.9c-1.4-2.9-3-5.6-4.7-8.3-6.7-10.9-15.2-20.6-24.6-29.2l-.2.3-.1-.1-.3-.1-.9-.2c-.6-.2-1.2-.3-1.8-.5-2.4-.6-4.7-1.2-7-1.9l-3.3-.9-1.2-.3-.5-.5-.4-.4c-.1-.1-.2-.2-.3-.2.2 0 .3-.1.5-.1 2.2-.6 4-1.5 5.3-2.4l-.4-.6.5.6c.4-.3.7-.9.8-1.5v-.8c2.7-2.2 4.8-5.1 6.3-8.2 1.5-3 2.4-6.1 3.3-9 .8-3 1.6-5.8 2.2-8.6.2-1 .4-1.9.5-2.8.7-1.3 1.3-2.7 1.9-4.4.8-2.2 1.5-4.8 1.5-7.6.1-1.7-.1-3.4-.6-5-.4-1.6-1.2-3.2-2.2-4.6-1-1.4-2.3-2.6-3.9-3.4l-1.5-.6c-.2-1.5-.8-2.8-1.6-3.8-.9-1.2-1.9-2.1-2.7-2.7-1.5-1.2-2.4-1.8-2.6-1.8l-.1-.1c-.2-.2-1-1-2.5-1.9-1.7-1.1-4.5-2.5-8.1-3.5-3.6-.9-8.2-1.5-13.1-.4s-10 3.7-14 7.8c-2.4 2.5-4.3 5.5-5.7 8.6-1.4 3.2-2.3 6.5-2.9 9.9 0 .1 0 .3-.1.4-.8.4-1.4 1-1.8 1.6-.5.8-.8 1.7-1 2.6-.4 1.8-.5 3.5-.3 5.4.2 1.8.9 3.7 2.3 5 .8.8 1.7 1.4 2.7 1.7.1 3.6.5 7.3 1.6 10.9.6 1.8 1.4 3.6 2.4 5.3-.2 1-.4 2-.6 2.9-.4 0-.7 0-1.1.1-.8.2-1.4.5-2 1-.6.4-1.1.9-1.6 1.3-.5.5-1.1.9-1.5 1.5-.5.6-.9 1.3-1.1 2.1-.2.8-.2 1.7.2 2.5.3.8.8 1.4 1.3 1.9.2.2.4.5.6.7-2.1.8-4 1.8-5.8 2.8-2.1 1.2-3.9 2.6-5.4 4.1-4.1 1.1-12.5 5.9-15 16.5-2 8.3-1.1 18.1 2.4 29 2.8 8.4 7.1 16.4 11.3 24.2l1.3 2.4.3.3c.2.1.5.3.7.4.4 1.3.7 2.7 1.1 4 .5 1.7.9 3.4 1.5 5.1-.3.9-.3 1.9-.2 2.9.2 1.3.6 2.5 1.1 3.6-1.4 5.5-2 11.1-2.1 16.7-.1 7 .4 14 1.1 20.9.3 3.5.7 6.9 1 10.4.3 3.5.5 6.9.7 10.4.6 13.9 1 27.8 1.3 41.6.1 5.8.3 11.4.4 17v4.2c0 .1 0 .1.1.1h.1l1 .1 4.2.3c2.7.2 5.5.5 8.2.7 5.4.5 10.7 1 15.9 1.4l3.9.3c.7.1 1.4.1 2 .2l.9.1h.2c.1 0 .2 0 .2-.1v-1.9c0-1.4.1-2.7.1-4.1h.2l28.2-1v-31.3l.3-30.6c.2-10.2.4-20.4.8-30.6.3-7.3.6-14.7 1.1-22h.1c.4-.3.8-.6 1.1-1.2.2-.5.3-1 .4-1.4.1-1 .2-1.9.2-2.9.6-.6 1-1.3 1.3-2.1.4-1.1.4-2.2.3-3.3-.1-1.1-.4-2.1-.7-3.1-.6-2-1.4-3.9-1.8-5.9-.4-1.7-.6-3.3-.7-5 1 .2 1.9.5 2.9.7 1.6.4 3.1.7 4.7 1 1.6.3 3.2.5 4.9.3 1.7-.1 3.4-.7 4.8-1.8 1.4-1 2.4-2.4 3.3-3.8.9-1.4 1.5-2.8 2.2-4.3.7-1.4 1.4-2.9 1.9-4.5s.9-3.2.9-4.9c0-1.7-.3-3.3-.7-4.9-.9-3-2.4-5.8-3.8-8.7zm198.6-41.7z"/><path class="st1" d="M1045 188.1c-.3-1-.6-1.9-.9-2.8-.3-.9-.7-1.8-1-2.7-.7-1.8-1.4-3.5-2.1-5.1-2.8-6.6-5.8-12.4-8.8-17-3-4.6-5.9-8-8-10.1-.6-.5-1-1-1.5-1.4-.5-.4-.8-.7-1.2-.9-.6-.5-1-.7-1-.7s-.1-.2-.4-.5c-.3-.3-.8-.7-1.6-1-.2-.1-.4-.2-.7-.2-1.9-1.2-3.9-2.1-5.6-2.7-1.1-.4-2-.6-2.9-.8.9-.4 1.8-.8 2.5-1.3 2.3-1.4 3.1-2.9 2.9-3 .1 0 .2 0 .4-.2l.3-.3c1.7-1.2 3.1-2.7 4.2-4.5 1.3-2.1 1.9-4.5 2.2-6.8.3-1.9.4-3.8.5-5.6.1-1.8.2-3.6.4-5.4.2-3.6.5-7 .7-10.2.2-2.6.3-5 .4-7.3.9-2.1 1.7-4.2 2.3-6.5.7-2.5 1-5 .9-7.2-.1-2.3-.6-4.3-1.2-5.9-.3-.6-.6-1.2-.9-1.6.3-.4.5-.8.6-1.2 0-.1.1-.2.1-.2h-.1v-.4c-.1-.6-.3-1.2-.6-1.5-.2-.4-.5-.7-.7-.9-.5-.4-.7-.6-.8-.5.1-.1-.7-1-2.4-2.6s-4.1-3.7-7.6-6c-3.4-2.2-7.9-4.4-13.3-5.5-5.4-1-11.7-.6-17.5 2.2-3.5 1.7-6.5 4.4-8.6 7.6-2.1 3.2-3.5 6.8-4.6 10.4-1.1 3.6-1.9 7.3-2.2 11.1 0 .4-.1.9-.1 1.3-.2.4-.4.9-.5 1.3-.6 2.1-1 4.3-.9 6.6 0 1.2.3 2.5.7 3.6-.3 1.3-.6 2.6-.8 4-.7 4.6-.2 9.5 1.6 13.9.3.8.7 1.6 1.1 2.4-.3 1.8-.5 3.5-.8 5.3-.5 2.6-1 5.2-1.6 7.8-.1.3-.1.6-.2.9-.3 0-.6 0-.9.1-.7 0-1.5.1-2.2.2-.7.1-1.5.2-2.2.3-.8.1-1.5.3-2.3.4-3 .6-6.1 1.6-9 3.3-2 1.1-3.8 2.6-5.5 4.2l-1.2.3c-1.9.5-2.8 1.2-2.8 1.2 0-.1-.5.1-1.4.5-.9.4-2.2.9-3.7 1.8-3.2 1.6-7.6 4.3-12.6 8.3-5 4-10.5 9.3-16 15.8-2.7 3.2-5.4 6.7-8.1 10.5-.7.9-1.4 1.9-2 3-.6 1.1-1.1 2.2-1.5 3.4-.8 2.3-1.1 4.9-1 7.4.1 1.8.5 3.5.8 5.2.3 1.7.7 3.4 1.1 5.1.8 3.4 1.8 6.7 2.9 10 2.3 6.5 5.1 12.9 8.6 18.9 1.7 3 3.6 5.9 5.7 8.7l1.6 2.1 1.7 2c.5.7 1.1 1.3 1.7 2l.9 1 .4.5.2.2.1.1s0 .1.1 0h.1l1.1-.6c.3-.2.6-.4 1-.5l.9 1.5c.9 1.4 1.8 2.7 2.8 4l1.5 2c.3.3.6.7 1 1 .4.3 1 .5 1.5.6h.2c.2.3.4.7.6 1 .4.5.8 1.1 1.2 1.6 2.2 2.6 5 4.6 8.2 5.8v2.1c0 .3.1.6.2 1 .2.6.6 1.2 1.1 1.6.7.6 1.6.9 2.5.9-.4 2.7-.8 5.7-1.1 9-.8 8.3-1 18.3-.6 29.3s1.3 23.1 2.2 35.7l3.7 51.5 5.9-.4c.1 1 .3 1.8.3 2.4.1.8.2 1.2.2 1.2s0-.4-.1-1.2c-.1-.6-.1-1.4-.2-2.4l26.4-1.6 5.3-32v10.1c-.1 4.8-.1 9.6-.3 14.4-.1 2.4-.1 4.8-.3 7.2l-.4 8.3 29.9-5.2 1.1-6.5c.3-2 .6-4 .9-5.9.6-4 1.2-7.9 1.7-11.9 1.1-7.9 2.1-15.9 2.9-23.9 1.7-15.9 2.9-31.9 3.7-47.9.6-12.6.8-24.6.5-35.5 0-1.3-.1-2.6-.1-3.8.4-.3.7-.6 1-.9.2-.2.4-.3.6-.5l.3-.3.2-.2.2-.3c.1-.7.1-.9.2-1.2 0-.3.1-.6.1-.9 0-.6.1-1.2.1-1.8 0-1.2 0-2.4-.1-3.7-.1-2.4-.4-4.7-.8-7 1.3-1.8 2.5-3.7 3.7-5.7 2.5-4.3 4.7-8.9 6.7-13.5 3.9-9.3 6.7-18.9 8.7-28.8.7-4.4.6-8.7-.5-12.5zm-110 47.4l-.8-1.2-.9-1.5c-.6-1-1.2-2.1-1.8-3.1-1.1-2.1-2.2-4.3-3.2-6.5-2-4.4-3.5-8.9-4.7-13.5-.6-2.3-1.1-4.7-1.4-7-.2-1.2-.3-2.4-.4-3.5-.1-.6-.1-1.2-.1-1.8 0-.6-.1-1.2-.1-1.7s.2-.9.4-1.4c.3-.4.5-.7 1-1.1.9-.8 1.8-1.6 2.7-2.3 1.9-1.5 3.8-3 5.7-4.4.2-.1.3-.2.5-.4 0 4.9.3 9.7.9 14.6.2 1.9.5 3.9.9 5.8l1.2 5.7c.8 3.8 1.4 7.6 2 11.4.6 3.8 1.1 7.6 1.5 11.5l-3.4.4zM172.2 191s-.1 0 0 0c-.1-.1-.1-.1 0 0 0-.1.1-.1 0 0zm.1 0c-.1.1-.1.1 0 0z"/><path class="st1" d="M351.6 123.3c.6-.4 1.2-.7 1.9-1.1.3-.2.6-.4.9-.8.3-.1.8-.2 1.4-.5 1.2-.5 2.7-1.4 4.1-2.7.9-.8 1.6-1.6 2.3-2.6.3-.5.7-.9 1-1.4.1-.3.3-.6.3-1.1 0-.2-.2-.5-.4-.6-.2-.2-.4-.2-.6-.2-.2 0-.4 0-.6.1-.2.1-.3.2-.5.3-.3.2-.5.6-.6.8-.3.5-.6.9-.9 1.3-.7.9-1.4 1.6-2.3 2.3-.1.1-.2.1-.3.2.5-.5 1-1.1 1.5-1.8.7-.9 1.2-2 1.7-3 .2-.5.4-1.1.6-1.6.1-.3.2-.6.1-1.1-.1-.2-.3-.4-.5-.6-.2-.1-.5-.1-.7-.1-.2 0-.4.1-.6.2-.1.1-.3.2-.4.4-.2.2-.4.7-.5.9l-.6 1.5c-.5 1-1 1.9-1.7 2.7-.4.5-.9.9-1.4 1.3l.6-1.2c.4-1.1.8-2.2 1-3.3.1-.6.2-1.1.3-1.7 0-.3.1-.7-.2-1.1-.1-.2-.3-.4-.6-.4-.2-.1-.5 0-.7 0-.2.1-.4.2-.5.3-.1.1-.2.3-.3.4-.2.3-.2.7-.3 1-.1.5-.2 1.1-.3 1.6-.2 1.1-.6 2.1-1.1 3-.4.8-.9 1.5-1.5 2.1l-.1.1c-.1 0-.3 0-.4-.1h-.2c.3-.7.5-1.4.7-2.1.3-1.1.4-2.3.4-3.4v-1.7c0-.3-.1-.7-.4-1.1-.2-.2-.4-.3-.7-.3-.3 0-.5.1-.7.2-.2.1-.3.3-.4.4-.1.1-.2.3-.2.5-.1.3-.1.8-.1 1v1.6c-.1 1.1-.2 2.2-.6 3.2-.3.8-.7 1.6-1.1 2.3-.5.2-.9.4-1.4.7-1.4.9-2.4 2.2-3 3.6-.4.8-.6 1.6-.8 2.3 0 .1-.1.3-.1.4l-1.9-.5-7.9 34.7-4.4-7.9c-1.7-3-3.4-6-5.1-8.8l-2.4-4.2c-.8-1.3-1.4-2.7-2.1-4.1-.7-1.3-1.2-2.7-2.1-4-.8-1.3-1.9-2.4-3.1-3.2-1.2-.8-2.5-1.3-3.8-1.6-.2 0-.3-.1-.4-.1-.6-.1-1.1-.3-1.7-.5l-1.2-.4c-.1 0-.1 0-.2-.1h-.1l-.1-.1-.3-.1c-.2-.1-.4-.2-.5-.2 0-.3-.1-.6-.3-.9-.3-.5-.9-.8-1.5-.8.1-.6-.2-1.2-.6-1.6-.7-.6-1.8-.5-2.4.2-.2-.1-.3-.3-.5-.4-2.3-2.1-3.8-4.9-4.7-7.9-.9-3.4-1-6.8-.9-10 1.8-1.2 3.9-2.9 6-5.2 2.7-2.9 5.3-6.7 7.4-11.3l.2-.1c.4-.4.9-.7 1.3-1.1l.6-.6.3-.3.3-.3c.6-.7 1.2-1.5 1.7-2.3.1 0 .1-.1.2-.1 1.2-.7 1.9-1.9 2.3-3.1.6-1.5.8-3.1.8-4.6v-.4c.1-.2.1-.5.2-.7 1.1-5.3 1.2-10.8.8-16.1-.4-5.4-1.9-10.8-4.7-15.5-1.4-2.3-3.1-4.5-5.1-6.4-2-1.9-4.3-3.5-6.7-4.7-4.9-2.4-10.2-3-14.9-1.8-.6.2-1.1.4-1.7.6-1.4-.9-3-1.6-4.7-1.9-1.7-.3-3.6-.2-5.3.4-1.7.6-3.1 1.7-4.4 2.9-1.2 1.2-2.3 2.5-3.3 3.9-2 2.7-3.7 5.6-5.2 8.6-1.4 3-2.6 6.2-3.5 9.4-1.4 5.4-1.9 10.7-1.6 15.5.2 4.8 1.2 9 2.3 12.5.4 1.2.8 2.3 1.2 3.3.5 1.5 1.1 2.7 1.7 3.7.2.3.3.6.5.9 1 1.8 1.6 2.7 1.7 2.6.1 0 0-.2-.1-.6-.1 0 .2 1 1.5 2 .6.5 1.6 1.1 2.7 1.4 1.2.3 2.6.4 4 .2.3 0 .7-.1 1-.1 1.4 2 2.9 3.8 4.4 5.3 2.4 2.5 4.8 4.2 6.8 5.3v.3c.3 2.8.1 6.2-1 9.8-1 3.3-2.9 6.6-5.6 9.5-.3-.3-.7-.5-1.2-.6-1-.1-1.8.6-1.9 1.6 0 .2 0 .4.1.6-.4.2-.7.4-1.1.6-.7.5-1.4 1-2 1.6-.6.2-1.3.4-2.2.8-1.2.5-2.6 1.1-4.2 2-1.6.9-3.3 1.9-5.3 3.1-4.5 2.6-9.9 5.8-15.9 9.5l-.8-.3-.5-.2c-.3-.1-.7-.2-1-.4-2.7-1-5.2-2.4-7.1-4.3-2-2-3.2-4.5-3.7-7.3-.6-2.7-.6-5.6-.3-8.5.6-5.7 2.3-11.3 4.2-16.8 1-2.7 2.1-5.4 3.2-8.2 1.1-2.8 2-5.6 2.8-8.4.7-2.9 1.3-5.8 1.6-8.8.3-3 .2-6-.4-9-.9-4.9-3-9.4-5.7-13.3-1.4-1.9-3-3.6-4.6-5.1-.8-.8-1.7-1.4-2.6-2.1-.9-.6-1.8-1.2-2.8-1.7-3.8-2.1-7.8-3.2-11.7-3.4-2.9-.2-5.6.2-8.1.9-.1-.3-.3-.5-.4-.8-2-3.5-4.8-6.5-8-8.9-3.2-2.4-7-4.1-11-4.9-4-.8-8.1-.7-12 .1-3.9.9-7.7 2.6-10.9 5s-5.9 5.5-7.9 9c-4 7-5.5 15.2-5.1 23.1.3 6.6 1.8 12.9 3.6 18.8s3.9 11.4 5.8 16.7c1.9 5.3 3.7 10.3 4.9 15.1 1.2 4.8 1.8 9.4 1.4 13.5-.2 2.1-.5 4-1.1 5.8-.6 1.8-1.4 3.4-2.3 4.7-1.8 2.8-4 4.7-5.9 5.9-1.3.8-2.5 1.3-3.5 1.6-.9.1-1.5.2-1.5.3l.1.1h-.1c-1.2.2-1.9.3-1.9.3s.1.2.4.4c-.2 0-.3 0-.3.1v.1h.4c.2.1.4.3.6.4.8.6 2.1 1.4 3.8 2.2 3.4 1.7 8.9 3.8 16 3.9 3.3 0 6.9-.4 10.6-1.6-1.4 3.6-2.7 7.4-3.8 10.9-.2.5-.4 1.1-.6 1.7-.3.7-.5 1.5-.7 2.3-.2.6-.3 1.3-.4 1.9-.2.9-.5 1.9-.7 2.8-.1.6-.3 1.2-.5 1.9-.3 1.3-.6 2.6-.9 4-.3 1.4-.6 2.8-.8 4.2l-.2 1.1-.2 1.1c-.1.4-.1.8-.1 1.2 0 .4.2 1.1.8 1.4l.3-.5c-.2.5-.3.7-.4.8h.1c.1 0 .2.1.2.1.2.1.3.1.5.2.3.1.6.1.9.2.6.1 1.2.1 1.7.1 1.2 0 2.3-.2 3.5-.4 2-.4 4.3-.9 6.6-1.4l.4 1 .3.9c.2.6.4 1.2.6 1.9.8 2.5 1.3 5.1 1.8 7.7.4 2.6.8 5.2 1 7.9l.8 8.5 1.3.4c.1 0 .2 0 .3.1 0 1.1-.1 2.3-.2 3.5l-.2.2c.1 0 .1.1.2.1-.2 2.2-.6 4.5-1.2 6.9-1.1 4.5-2.7 9.2-4.8 14.1-2.1 4.8-4.6 9.8-7.2 14.8-2.7 5.1-5.4 10.4-8.3 15.7-3.5 6.5-7 13-10.1 19.7-3.1 6.7-5.8 13.7-7.5 20.9l-.6 2.7-.5 2.2-.1.3v.2h.1c-.1 1.2.1 2.4.7 3.4.9 1.9 2.3 3.3 3.8 4.5 1.5 1.2 3.1 2.2 4.8 3.1.8.4 1.7.9 2.6 1.2l1.3.6 1.3.5c3.6 1.2 7.3 1.9 11.1 2.1 2.4.2 4.8.2 7.1.1.5.3.9.5 1.4.8.2 1.5.4 3.1.6 4.9 1.1 8.8 2.4 21.1 3.5 34.6.5 5.9.8 11.9 1.1 17.8.1 3 .3 5.9.4 8.9l.1 4.5.1 5.2 8.1.8-.1-4.5c0-1.2 0-2.3-.1-3.5v-7c0-4.7.2-9.4.4-14.1.4-9.4 1.2-18.7 2.3-28 0-.4.1-.8.1-1.1.4 6.4.7 13.7.9 21.3.2 5.9.2 11.8.2 17.7 0 2.9 0 5.9-.1 8.8l-.1 4.4-.1 5.2 8.1.8.1-4.5c0-1.2.1-2.4.1-3.5.1-2.4.2-4.7.4-7.1.3-4.7.6-9.4 1.1-14.1.9-9.4 2.2-18.8 3.8-28.1.8-4.8 1.7-9.3 2.6-13.7.3 0 .5-.1.8-.1 3.7-.6 7.4-1.7 10.6-4.1 1.6-1.2 2.9-2.7 3.8-4.5.9-1.8 1.4-3.7 1.7-5.5.6-3.7.9-7.4 1.2-11.1.3-3.7.4-7.4.5-11.1l.3-11c.3-12.2 0-24-2.3-34.4-.6-2.6-1.3-5.1-2.1-7.5-.8-2.4-1.7-4.7-2.7-6.8-1.9-4.3-4-8.2-6-11.7s-3.8-6.6-5.4-9.3c-1.5-2.8-2.8-5.2-3.8-7.2-.3-.6-.6-1.2-.8-1.8 0-.1.1-.2.1-.3.2-.6.2-1.1.2-1.7 0-1.1-.3-2.1-.6-3.1s-.6-1.9-.9-2.8c-.3-.9-.5-1.8-.6-2.7-.4-2.8-.4-5.6.1-8.4.9.4 1.7.7 2.6 1 1.1.4 2.3.7 3.5.9.6.1 1.2.2 1.9.2s1.4-.1 2-.3c.7-.3 1.3-.7 1.7-1.3.4-.6.7-1.2 1-1.8.4-1.2.6-2.4.8-3.5l.1-.6h-.1c.6-8.6.6-17.3-.2-26l1.7 2.1 4 4.8c5.3 6.4 10.8 12.7 16.9 18.5.4.4.7.7 1.4 1.1.4.2.7.3 1.1.4 0 .1.1.3.1.4.2.8.5 1.5.9 2.3.7 1.4 1.7 2.7 3.1 3.5.4.3.9.5 1.4.7.2.4.4.8.7 1.2-.2.4-.3.8-.5 1.1-.2.8-.6 1.5-.7 2.4-.2.8-.3 1.6-.3 2.5-.1 1.7.1 3.3.6 4.9.6 2 1.6 3.9 2.8 5.6-.2.8-.3 1.6-.5 2.4l-.7 4.4c-.4 2.9-.7 5.8-.9 8.8-.4 5.9-.5 11.7-.2 17.6.3 5.9.9 11.7 1.8 17.5.9 5.8 2.2 11.5 3.7 17.2 1.5 5.7 3.4 11.2 5.3 16.8 1.9 5.5 4.1 11 6.3 16.4 2.5 6.1 5 11.9 7.4 17.6 2.5 5.6 4.7 11.1 6.5 16.5 1.8 5.3 3.2 10.5 4.2 15.4.1.6.2 1.2.4 1.8l.3 1.8c.2 1.2.3 2.4.5 3.5.2 1.2.2 2.3.3 3.4v2.7c0 1 .1 1.9.1 2.9.3.3.4.6.6 1 .3-.3.6-.6.8-1 .6-2.3 1.2-4.5 1.8-6.6.4-1.5.8-2.9 1.1-4.2.3-1 .5-1.9.7-2.7v3L328 370l-1.4-5.3c-.4-1.4-.7-2.9-1.1-4.3-.4-1.4-.7-2.9-1-4.3-.3-1.4-.6-2.9-.9-4.4-1.2-5.8-2.1-11.7-2.8-17.6-1.4-11.8-1.9-23.7-1.4-35.6.5-13.4 2.4-26.1 3.9-37.7 1.5-11.6 2.4-22.1 2.2-31-.1-4.5-.4-8.5-.9-12v-.5c.1-5.3-.7-10.3-1.8-15.1-1.1-4.8-2.5-9.3-3.8-13.5-1.3-4.3-2.5-8.3-3.4-12.2-.9-3.8-1.4-7.5-1.6-10.8-.2-3.4.1-6.3.3-9 .1-1.4.1-2.6.1-3.8.1-.4.2-.7.3-1.1.3.4.5.7.8 1.1 1.3 1.8 2.7 3.9 4.2 6.2 1.4 2.3 3 4.7 4.6 7.2 1.7 2.6 3.4 5.2 5.5 7.9.6.7 1.4 1.3 2.3 1.7.9.4 2.1.4 3 .1 2-.6 3.4-2.1 4.2-3.8l.6-1.5c.1-.5.2-.9.3-1.4l.6-2.8 1.2-5.6c.8-3.7 1.5-7.5 2.2-11.2l2.1-11.2 1.1-5.6 1.3-6.4-.4-.1c.8-1.2 1.9-2.2 3.3-3.1zM218 186.4h-.2l-.5-.1c-.2-.1-.4-.1-.6-.2.3-.7.6-1.4.8-2.1.2.7.3 1.3.5 2l.1.3v.2s-.1 0-.1-.1zm54.7-8.5c-.6 2.9-2.1 5.5-3.9 8-1.8 2.5-3.9 4.7-5.9 7.1l-.3.3c-.4-.2-.7-.4-1-.6-1.9-1.2-3.3-2.6-4.3-3.7 0-.1.1-.1.1-.2.2-.3.3-.5.4-.9l.2-.8v-.2c0-.1.1-.1 0-.2l-.3-.3-1.3-1.3-1.1-1.1c-2.9-2.9-5.7-6-8.3-9.2-2.6-3.2-5-6.6-7.2-10-1.1-1.7-2.2-3.5-3.2-5.3l-.8-1.3-.6-1.1 1.3-.6c8.3-3.9 16-7.5 22.8-10 .9-.3 1.7-.6 2.5-.9.1 0 .1 0 .2-.1-.3.8-.4 1.7-.5 2.6-.2 2.2.5 4.4 1.6 6.3 1.7 2.9 4.4 5 7.3 6.4l.2.4.4 1.1c.3.7.5 1.5.7 2.2.4 1.5.8 2.9 1.1 4.4.4 3.1.5 6.1-.1 9zm26 154.1c-1.5-8.5-3.5-18.6-5.3-29.8-1.8-11.2-3.2-23.7-2.5-36.8.1-2.8.4-5.6.8-8.3 1.3 5.7 2.5 11.6 3.5 17.7 2.6 15.9 3.8 32.1 4.3 48.2.2 5 .3 10 .3 15-.4-2-.8-4-1.1-6zm-25.5-208.1zm617.7 265.6l-.7-4.3-1.2-8.7-2.3-17.4-4.4-34.7c-1.9-14.5-3.6-28.4-5.7-40.9-1-6.2-1.6-12.2-1-17.7.1-1.4.4-2.7.7-4 .3-1.3.6-2.7.8-4 .4-2.6.5-5.2.6-7.6.1-2.5-.2-4.8-.7-6.9-.1-.4-.2-.9-.4-1.3l1.1-2.7c.8-2.1 1.7-4.2 2.5-6.3 1.6-4.2 3-8.4 4.3-12.7 1.3-4.3 2.5-8.6 3.6-13 1.1-4.3 2-8.9 1.7-13.5-.2-3.8-1-7.4-1.9-10.8-.9-3.4-1.8-6.6-2.7-9.7-1.8-6.2-3.6-11.7-5.2-16.3l-.9-2.7c-.1-.6-.1-1.2-.2-1.9-.5-3.8-1.7-7.6-3.7-10.9-1.9-3.4-4.7-6.2-7.6-8.7-2.1-1.8-4.3-3.4-6.7-4.8.1-1.3-.1-2.6-.6-3.7-.6-1.4-1.4-2.5-2.1-3.4l-1.4-1.4c.4-.1.8-.2 1.2-.4 1.2-.5 2.3-1.3 3-2.2 1.6-1.9 2.4-4.1 3.4-6.1 2.6-6 4.5-12.2 5.6-18.6.4-.3.7-.5 1-.9.8-.9 1.3-1.9 1.7-3 .4-1 .6-2.1.9-3 .3-1 .5-2 .7-3.1.3-2 .3-4.3-.6-6.3.2-1.5.3-3 .2-4.6 0-3.2-.5-6.2-1.3-8.9s-1.8-4.9-2.8-6.8c-.4-.7-.8-1.3-1.2-1.9.7-1.1 1.2-2.3 1.5-3.6.5-2.1.3-4.6-.9-6.6s-3.1-3.3-5.1-4.2c-2-.9-4-1.4-6-1.9s-4.1-.9-6.1-1.1c-4.1-.6-8.3-.7-12.4-.5-4.1.2-8.3.9-12.3 1.9-2 .5-4 1.1-5.9 1.9-1.9.7-3.9 1.5-5.7 2.6-1.5.9-2.9 2-4.1 3.4-1.1 1.4-1.9 3-2.4 4.5-.6 1.6-1 3.1-1.3 4.6l-.9 4.5c-.8 4.9-1.2 9.3-1.3 13.3-.4.2-.9.5-1.2.8-.7.6-1.3 1.4-1.7 2.3-1 2.1-1 4.4-.7 6.5.2 1.1.4 2.1.6 3.1.2 1 .5 2 .8 3 .4 1 .9 2.1 1.7 3 .8.9 1.8 1.6 3.1 1.8.6.1 1.3.1 1.9-.1.5-.1.9-.3 1.3-.6.2.8.3 1.6.6 2.4.7 2.4 1.8 4.9 3.4 7.4 1.6 2.5 3.6 4.9 6.2 6.9.6.4 1.1.9 1.7 1.3 0 .2 0 .4.1.7-.7.5-2.5 1.9-5.2 4.1-.8.7-1.7 1.5-2.7 2.3-.2.2-.5.4-.7.6-.3.2-.5.5-.8.7l-.3.3-.2.2-.1.1v.1l.3.9c.1.3.2.7.3 1 .2.8.5 1.6.9 2.5-3.1.9-6 2-8.6 3.1-7.5 3.3-13.1 7.1-16.5 10.3-1.7 1.6-2.7 3.1-3.2 4.3-.1.2-.1.4-.2.5-.7.6-1.4 1.2-2 1.9-.5.6-.8 1.2-1.2 1.8l-1.2 1.8c-3.1 4.7-5.9 9.6-8.5 14.5-5.3 9.9-9.8 20.1-14.9 30-1.1 2.1-2.1 4.2-2.5 6.6-.2 1.2-.2 2.4 0 3.6.2 1.2.7 2.3 1.2 3.3 1.1 2 2.6 3.7 4 5.3 1.4 1.6 2.7 3.1 4.1 4.6 5.3 6 10.1 11.4 14.2 15.9 4 4.5 7.3 8.1 9.7 10.6 2.3 2.5 3.6 3.8 3.7 3.7 0 0 0 .1.2.3.1.1.4.3.7.4-.7 2-1.6 4.1-2.6 6.1-.2.3-.3.6-.5.9l-.2.5-.2.4c-.1.1 0 .1 0 .2v.2c.1.7.2 1.5.4 2.2.2 1.4.5 2.9.7 4.4.2 1.5.3 3 .5 4.6.1 1.6.4 3.1.4 4.7.1 1.6.2 3.2.3 4.9 0 .8.1 1.7.1 2.5s0 1.7.1 2.5c.4 13.6 0 28.6-.6 44.3-.8 19-2.1 37.9-3 56.9-.1 2.4-.2 4.7-.3 7.1-.1 2.4-.2 4.8-.2 7.1l-.1 3.6v1.5s0 .1.1.1h.1l1.7.1c.6 0 1.2.1 1.8.1 2.4.1 4.8.1 7.2 0 4.8-.2 9.6-.7 14.3-1.5 2.4-.4 4.7-.9 7.1-1.4 1.2-.3 2.4-.7 3.6-1.4 1.2-.7 2.1-1.7 2.8-2.8.7-1.1 1.1-2.3 1.4-3.5.3-1.2.6-2.3.8-3.5.2-1.2.4-2.4.6-3.5l.6-3.5c.7-4.7 1.4-9.4 2-14.1 1.3-9.4 2.5-18.8 3.7-28.3.7-5.3 1.4-10.7 2.1-16 2.5 10.7 5.1 21.5 7.7 32.2 1.4 5.7 2.9 11.5 4.4 17.2 1.6 5.7 3.1 11.4 5.1 17.1.5 1.4 1 2.8 1.8 4.2.4.7 1 1.4 1.7 1.9s1.5.8 2.3 1c1.6.4 3.2.2 4.7.1l4.4-.5 17.8-2 2-1.3.7-.5.5-.3v-.5l-.9-.8zm-97.8-168.8c-4.2-5.7-8.7-12-13.6-18.6 1.1-1.6 2.2-3.3 3.4-5l10.1-15c0 .2.1.5.1.7.7 4.7.9 9.8.6 15.1-.1 2.7-.5 5.4-.8 8.2-.3 2.8-.6 5.7-.5 8.7.1.8.1 1.5.2 2.3.2.8.3 1.5.5 2.3.3.9.6 1.8 1.1 2.7-.4-.5-.7-1-1.1-1.4zm4.9 6.8c-.4-.6-.9-1.2-1.3-1.8.4.4.9.9 1.4 1.2 0 .2 0 .4-.1.6zm-675.7-75.9c-1.9-1.8-4.1-3.5-6.6-5-2.2-1.3-4.5-2.5-7.1-3.5.2-.3.5-.6.7-.9.6-.7 1.2-1.4 1.5-2.4.4-.9.5-2.1.2-3-.3-1-.8-1.8-1.3-2.5-.6-.7-1.2-1.3-1.9-1.9-.6-.6-1.3-1.1-2-1.6s-1.5-.9-2.5-1.2c-.4-.1-.9-.1-1.3-.1-.2-1.2-.5-2.3-.8-3.6 1.2-2 2.2-4.2 2.9-6.4 1.4-4.3 1.9-8.8 2-13.2 1.2-.4 2.4-1.1 3.3-2 1.6-1.7 2.5-3.9 2.8-6.1.3-2.2.1-4.4-.4-6.5-.3-1.1-.6-2.2-1.3-3.2-.5-.8-1.3-1.5-2.2-2 0-.2-.1-.4-.1-.5-.7-4.1-1.8-8.2-3.6-12.1-1.7-3.9-4-7.5-7-10.5-4.9-5.1-11.1-8.2-17-9.5-6-1.3-11.6-.7-15.9.5-4.4 1.2-7.7 2.9-9.9 4.2-1.8 1.2-2.8 2.1-3 2.4l-.1.1c-.2 0-1.4.7-3.2 2.2-1 .8-2.2 1.8-3.3 3.3-.9 1.2-1.6 2.8-1.9 4.7-.6.2-1.2.4-1.8.7-1.9 1-3.5 2.4-4.7 4.1-1.2 1.7-2.2 3.6-2.7 5.6-.6 2-.8 4.1-.7 6.1.1 3.4.9 6.5 1.9 9.3.7 2 1.5 3.8 2.3 5.3.2 1.1.4 2.3.6 3.5.7 3.4 1.7 6.9 2.7 10.5 1 3.6 2.2 7.4 4 11 1.8 3.7 4.3 7.3 7.6 9.9v.9c.1.7.5 1.4 1 1.8l.6-.7-.5.7c1.6 1.1 3.8 2.2 6.4 2.9.2.1.4.1.6.2l-.3.3-.5.5-.6.6c-.5.1-1 .3-1.4.4-1.3.4-2.6.7-4 1.1-2.7.7-5.6 1.5-8.5 2.3-.7.2-1.5.4-2.2.6l-1.1.1-.4.1c-.1 0-.1.1-.1.1l-.3-.3c-11.4 10.5-21.8 22.3-29.9 35.6-2 3.3-4 6.7-5.7 10.2-1.7 3.5-3.5 6.9-4.7 10.8-.6 1.9-1 3.9-.9 6 0 2.1.5 4.1 1.1 5.9.6 1.9 1.5 3.7 2.3 5.4.9 1.7 1.7 3.5 2.7 5.2 1 1.7 2.3 3.4 4 4.6 1.7 1.3 3.8 2 5.8 2.2 2.1.2 4.1 0 6-.4 1.9-.3 3.8-.8 5.7-1.2 1.2-.3 2.3-.6 3.5-.9-.1 2.1-.4 4.1-.8 6.1-.5 2.4-1.5 4.8-2.2 7.2-.4 1.2-.7 2.5-.9 3.8-.2 1.3-.1 2.7.4 4 .3 1 .9 1.9 1.6 2.6 0 1.1 0 2.3.2 3.5.1.6.2 1.1.5 1.7.4.7.9 1.1 1.4 1.4 0 0 .1 0 .1.1.6 8.9 1 17.9 1.3 26.9.4 12.4.8 24.8 1 37.3.2 12.4.3 24.8.4 37.3l.1 18.6v19.5l34.4 1.2h.3c.1 1.6.2 3.3.2 5v2.3c0 .1.1.1.2.1h.3l1.1-.1c.8-.1 1.7-.1 2.5-.2 1.6-.1 3.1-.2 4.7-.4 6.3-.5 12.8-1.1 19.4-1.7 3.3-.3 6.6-.6 10-.8 1.7-.1 3.4-.3 5.1-.4l1.3-.1h.2c.1 0 .1 0 .1-.1v-2.5c0-.9 0-1.7.1-2.6.2-6.8.3-13.8.5-20.8.4-16.9.9-33.9 1.6-50.8.2-4.2.4-8.4.8-12.6l1.2-12.6c.8-8.4 1.5-16.9 1.3-25.5-.1-6.8-.9-13.7-2.6-20.4.7-1.4 1.2-2.8 1.4-4.4.1-1.1.1-2.3-.2-3.5.7-2.1 1.2-4.2 1.8-6.3.4-1.7.9-3.3 1.3-4.9.3-.2.6-.3.9-.5.1-.1.3-.2.3-.4l1.6-3c5.1-9.5 10.4-19.3 13.7-29.5 4.4-13.3 5.4-25.2 3-35.4-3.2-12.7-13.4-18.5-18.4-19.8z"/><path class="st1" d="M757 129.2c.6-.4 1.2-.7 1.9-1.1.3-.2.6-.4.9-.8.3-.1.8-.2 1.4-.5 1.2-.5 2.7-1.4 4.1-2.7.9-.8 1.6-1.6 2.3-2.6.3-.5.7-.9 1-1.4.1-.3.3-.6.3-1.1 0-.2-.2-.5-.4-.6-.2-.2-.4-.2-.6-.2-.2 0-.4 0-.6.1-.2.1-.3.2-.5.3-.3.2-.5.6-.6.8-.3.5-.6.9-.9 1.3-.7.9-1.4 1.6-2.3 2.3-.1.1-.2.1-.3.2.5-.5 1-1.1 1.5-1.8.7-.9 1.2-2 1.7-3 .2-.5.4-1.1.6-1.6.1-.3.2-.6.1-1.1-.1-.2-.3-.4-.5-.6-.2-.1-.5-.1-.7-.1-.2 0-.4.1-.6.2-.1.1-.3.2-.4.4-.2.2-.4.7-.5.9l-.6 1.5c-.5 1-1 1.9-1.7 2.7-.4.5-.9.9-1.4 1.3l.6-1.2c.4-1.1.8-2.2 1-3.3.1-.6.2-1.1.3-1.7 0-.3.1-.7-.2-1.1-.1-.2-.3-.4-.6-.4-.2-.1-.5 0-.7 0-.2.1-.4.2-.5.3-.1.1-.2.3-.3.4-.2.3-.2.7-.3 1-.1.5-.2 1.1-.3 1.6-.2 1.1-.6 2.1-1.1 3-.4.8-.9 1.5-1.5 2.1l-.1.1c-.1 0-.3 0-.4-.1h-.2c.3-.7.5-1.4.7-2.1.3-1.1.4-2.3.4-3.4v-1.7c0-.3-.1-.7-.4-1.1-.2-.2-.4-.3-.7-.3-.3 0-.5.1-.7.2-.2.1-.3.3-.4.4-.1.1-.2.3-.2.5-.1.3-.1.8-.1 1v1.6c-.1 1.1-.2 2.2-.6 3.2-.3.8-.7 1.6-1.1 2.3-.5.2-.9.4-1.4.7-1.4.9-2.4 2.2-3 3.6-.4.8-.6 1.6-.8 2.3 0 .1-.1.3-.1.4l-1.9-.5-7.9 34.7-4.4-7.9c-1.7-3-3.4-6-5.1-8.8l-2.4-4.2c-.8-1.3-1.4-2.7-2.1-4.1-.7-1.3-1.2-2.7-2.1-4-.8-1.3-1.9-2.4-3.1-3.2-1.2-.8-2.5-1.3-3.8-1.6-.2 0-.3-.1-.4-.1-.6-.1-1.1-.3-1.7-.5l-1.2-.4c-.1 0-.1 0-.2-.1h-.1l-.1-.1-.3-.1c-.2-.1-.4-.2-.5-.2 0-.3-.1-.6-.3-.9-.3-.5-.9-.8-1.5-.8.1-.6-.2-1.2-.6-1.6-.7-.6-1.8-.5-2.4.2-.2-.1-.3-.3-.5-.4-2.3-2.1-3.8-4.9-4.7-7.9-.9-3.4-1-6.8-.9-10 1.8-1.2 3.9-2.9 6-5.2 2.7-2.9 5.3-6.7 7.4-11.3l.2-.1c.4-.4.9-.7 1.3-1.1l.6-.6.3-.3.3-.3c.6-.7 1.2-1.5 1.7-2.3.1 0 .1-.1.2-.1 1.2-.7 1.9-1.9 2.3-3.1.6-1.5.8-3.1.8-4.6v-.4c.1-.2.1-.5.2-.7 1.1-5.3 1.2-10.8.8-16.1-.4-5.4-1.9-10.8-4.7-15.5-1.4-2.3-3.1-4.5-5.1-6.4-2-1.9-4.3-3.5-6.7-4.7-4.9-2.4-10.2-3-14.9-1.8-.6.2-1.1.4-1.7.6-1.4-.9-3-1.6-4.7-1.9-1.7-.3-3.6-.2-5.3.4-1.7.6-3.1 1.7-4.4 2.9-1.2 1.2-2.3 2.5-3.3 3.9-2 2.7-3.7 5.6-5.2 8.6-1.4 3-2.6 6.2-3.5 9.4-1.4 5.4-1.9 10.7-1.6 15.5.2 4.8 1.2 9 2.3 12.5.4 1.2.8 2.3 1.2 3.3.5 1.5 1.1 2.7 1.7 3.7.2.3.3.6.5.9 1 1.8 1.6 2.7 1.7 2.6.1 0 0-.2-.1-.6-.1 0 .2 1 1.5 2 .6.5 1.6 1.1 2.7 1.4 1.2.3 2.6.4 4 .2.3 0 .7-.1 1-.1 1.4 2 2.9 3.8 4.4 5.3 2.4 2.5 4.8 4.2 6.8 5.3v.3c.3 2.8.1 6.2-1 9.8-1 3.3-2.9 6.6-5.6 9.5-.3-.3-.7-.5-1.2-.6-1-.1-1.8.6-1.9 1.6 0 .2 0 .4.1.6-.4.2-.7.4-1.1.6-.7.5-1.4 1-2 1.6-.6.2-1.3.4-2.2.8-1.2.5-2.6 1.1-4.2 2-1.6.9-3.3 1.9-5.3 3.1-6.5 3.8-15 8.9-24.5 14.7 2.6-10.5 3-20.1 1-28.5-.3-1.1-.6-2.1-.9-3.1 2.1-.8 4-2 5.7-3.4 1.2-1 2.2-2.2 3.1-3.5l.2-.3c.1-.1.2-.3.2-.5l.5-1 .3-.5v-.1h-.2l-.2-.1-1-.3-.9-.3-.5-.2c-.3-.1-.7-.2-1-.4-2.7-1-5.2-2.4-7.1-4.3-2-2-3.2-4.5-3.7-7.3-.6-2.7-.6-5.6-.3-8.5.6-5.7 2.3-11.3 4.2-16.8 1-2.7 2.1-5.4 3.2-8.2 1.1-2.8 2-5.6 2.8-8.4.7-2.9 1.3-5.8 1.6-8.8.3-3 .2-6-.4-9-.9-4.9-3-9.4-5.7-13.3-1.4-1.9-3-3.6-4.6-5.1-.8-.8-1.7-1.4-2.6-2.1-.9-.6-1.8-1.2-2.8-1.7-3.8-2.1-7.8-3.2-11.7-3.4-2.9-.2-5.6.2-8.1.9-.1-.3-.3-.5-.4-.8-2-3.5-4.8-6.5-8-8.9-3.2-2.4-7-4.1-11-4.9-4-.8-8.1-.7-12 .1-3.9.9-7.7 2.6-10.9 5-.5.4-1 .8-1.6 1.3-.6.1-1.1.3-1.7.4-4.4 1.2-7.7 2.9-9.9 4.2-1.8 1.2-2.8 2.1-3 2.4l-.1.1c-.2 0-1.4.7-3.2 2.2-1 .8-2.2 1.8-3.3 3.3-.9 1.2-1.6 2.8-1.9 4.7-.6.2-1.2.4-1.8.7-1.9 1-3.5 2.4-4.7 4.1-1.2 1.7-2.2 3.6-2.7 5.6-.6 2-.8 4.1-.7 6.1.1 3.4.9 6.5 1.9 9.3.7 2 1.5 3.8 2.3 5.3.2 1.1.4 2.3.6 3.5.7 3.4 1.7 6.9 2.7 10.5 1 3.6 2.2 7.4 4 11 1.8 3.7 4.3 7.3 7.6 9.9v.9c.1.7.5 1.4 1 1.8l.6-.7-.5.7c1.6 1.1 3.8 2.2 6.4 2.9.2.1.4.1.6.2l-.3.3-.5.5-.6.6c-.5.1-1 .3-1.4.4-1.3.4-2.6.7-4 1.1-2.7.7-5.6 1.5-8.5 2.3-.7.2-1.5.4-2.2.6l-1.1.3-.4.1c-.1 0-.1.1-.1.1l-.3-.3c-4.2 3.9-8.3 7.9-12.1 12.1-2.6-1.8-5-3.1-6.9-4.1-1.6-.9-2.9-1.4-3.7-1.8-.9-.4-1.3-.5-1.4-.5 0-.1-.9-.7-2.8-1.2l-1.2-.3c-1.7-1.7-3.5-3.1-5.5-4.2-2.9-1.6-6-2.6-9-3.3-.8-.1-1.5-.3-2.3-.4-.8-.1-1.5-.2-2.2-.3-.7-.1-1.5-.1-2.2-.2-.3 0-.6 0-.9-.1-.1-.3-.1-.6-.2-.9-.6-2.6-1.1-5.2-1.6-7.8-.3-1.8-.6-3.5-.8-5.3.4-.8.8-1.6 1.1-2.4 1.8-4.4 2.3-9.2 1.6-13.9-.2-1.3-.5-2.7-.8-4 .4-1.2.7-2.4.7-3.6.1-2.3-.3-4.4-.9-6.6-.1-.5-.3-.9-.5-1.3 0-.4 0-.9-.1-1.3-.3-3.8-1.1-7.5-2.2-11.1-1.1-3.6-2.5-7.2-4.6-10.4-2.1-3.2-5.2-5.9-8.6-7.6-3.3-1.6-6.8-2.5-10.2-2.7.4-.8.6-1.6.8-2.4.5-2.1.3-4.6-.9-6.6s-3.1-3.3-5.1-4.2c-2-.9-4-1.4-6-1.9s-4.1-.9-6.1-1.1c-4.1-.6-8.3-.7-12.4-.5-4.1.2-8.3.9-12.3 1.9-2 .5-4 1.1-5.9 1.9-1.9.7-3.9 1.5-5.7 2.6-1.5.9-2.9 2-4.1 3.4-1.1 1.4-1.9 3-2.4 4.5-.6 1.6-1 3.1-1.3 4.6l-.9 4.5c-.8 4.9-1.2 9.3-1.3 13.3-.4.2-.9.5-1.2.8-.7.6-1.3 1.4-1.7 2.3-1 2.1-1 4.4-.7 6.5.2 1.1.4 2.1.6 3.1.2 1 .5 2 .8 3 .4 1 .9 2.1 1.7 3 .8.9 1.8 1.6 3.1 1.8.6.1 1.3.1 1.9-.1.5-.1.9-.3 1.3-.6.2.8.3 1.6.6 2.4.7 2.4 1.8 4.9 3.4 7.4 1.6 2.5 3.6 4.9 6.2 6.9.6.4 1.1.9 1.7 1.3 0 .2 0 .4.1.7-.7.5-2.5 1.9-5.2 4.1-.8.7-1.7 1.5-2.7 2.3-.2.2-.5.4-.7.6-.3.2-.5.5-.8.7l-.3.3-.2.2-.1.1v.1l.3.9c.1.3.2.7.3 1 .2.8.5 1.6.9 2.5-3.1.9-6 2-8.6 3.1-7.5 3.3-13.1 7.1-16.5 10.3-1.7 1.6-2.7 3.1-3.2 4.3-.1.2-.1.4-.2.5-.7.6-1.4 1.2-2 1.9-.5.6-.8 1.2-1.2 1.8l-1.2 1.8c-3.1 4.7-5.9 9.6-8.5 14.5-5.3 9.9-9.8 20.1-14.9 30-1.1 2.1-2.1 4.2-2.5 6.6-.2 1.2-.2 2.4 0 3.6.2 1.2.7 2.3 1.2 3.3 1.1 2 2.6 3.7 4 5.3 1.4 1.6 2.7 3.1 4.1 4.6 5.3 6 10.1 11.4 14.2 15.9 4 4.5 7.3 8.1 9.7 10.6 2.3 2.5 3.6 3.8 3.7 3.7 0 0 0 .1.2.3.1.1.4.3.7.4-.7 2-1.6 4.1-2.6 6.1-.2.3-.3.6-.5.9l-.2.5-.2.4c-.1.1 0 .1 0 .2v.2c.1.7.2 1.5.4 2.2.2 1.4.5 2.9.7 4.4.2 1.5.3 3 .5 4.6.1 1.6.4 3.1.4 4.7.1 1.6.2 3.2.3 4.9 0 .8.1 1.7.1 2.5s0 1.7.1 2.5c.4 13.6 0 28.6-.6 44.3-.8 19-2.1 37.9-3 56.9-.1 2.4-.2 4.7-.3 7.1-.1 2.4-.2 4.8-.2 7.1l-.1 3.6v1.5s0 .1.1.1h.1l1.7.1c.6 0 1.2.1 1.8.1 2.4.1 4.8.1 7.2 0 4.8-.2 9.6-.7 14.3-1.5 2.4-.4 4.7-.9 7.1-1.4 1.2-.3 2.4-.7 3.6-1.4 1.2-.7 2.1-1.7 2.8-2.8.7-1.1 1.1-2.3 1.4-3.5.3-1.2.6-2.3.8-3.5.2-1.2.4-2.4.6-3.5l.6-3.5c.7-4.7 1.4-9.4 2-14.1 1.3-9.4 2.5-18.8 3.7-28.3.7-5.3 1.4-10.7 2.1-16 .7 3 1.4 5.9 2.1 8.9.5 5.8 1 11.5 1.6 17.3.8 8 1.8 15.9 2.9 23.9.6 4 1.1 7.9 1.7 11.9.3 2 .6 4 .9 5.9l1.1 6.5 29.9 5.2-.3-7.3 8.3-.9 22.5 1.4c-.1 1-.2 1.8-.2 2.4-.1.8-.1 1.2-.1 1.2s.1-.4.2-1.2c.1-.6.2-1.4.3-2.4l5.9.4 3.7-51.5c.9-12.6 1.8-24.7 2.2-35.7.4-11 .2-21-.6-29.3-.3-3.3-.7-6.3-1.1-9 .9 0 1.8-.3 2.5-.9.5-.4.9-1 1.1-1.6.1-.3.2-.6.2-1v-2.1c3.1-1.2 6-3.2 8.2-5.8.4-.5.9-1.1 1.2-1.6.2-.3.4-.6.6-1h.2c.5-.1 1.1-.3 1.5-.6.4-.3.8-.7 1-1l1.4-1.9c.5 8 .8 16 1.1 24 .4 12.4.8 24.8 1 37.3.2 12.4.3 24.8.4 37.3l.1 18.6v19.5l34.4 1.2h.3c.1 1.6.2 3.3.2 5v2.3c0 .1.1.1.2.1h.3l1.1-.1c.8-.1 1.7-.1 2.5-.2 1.6-.1 3.1-.2 4.7-.4 6.1-.5 12.4-1.1 18.8-1.6 0 .5.1.9.1 1.4.1 3 .3 5.9.4 8.9l.1 4.5.1 5.2 8.1.8-.1-4.5c0-1.2 0-2.3-.1-3.5v-7c0-2.2.1-4.3.1-6.5.6-.1 1.2-.1 1.8-.2.7-.1 1.4-.1 2.1-.2v2.6c0 2.9 0 5.9-.1 8.8l-.1 4.4-.1 5.2 8.1.8.1-4.5c0-1.2.1-2.4.1-3.5.1-2.4.2-4.7.4-7.1.3-4.7.6-9.4 1.1-14.1.9-9.4 2.2-18.8 3.8-28.1.8-4.8 1.7-9.3 2.6-13.7.3 0 .5-.1.8-.1 3.7-.6 7.4-1.7 10.6-4.1 1.6-1.2 2.9-2.7 3.8-4.5.9-1.8 1.4-3.7 1.7-5.5.6-3.7.9-7.4 1.2-11.1.3-3.7.4-7.4.5-11.1l.3-11c.3-12.2 0-24-2.3-34.4-.6-2.6-1.3-5.1-2.1-7.5-.8-2.4-1.7-4.7-2.7-6.8-1.9-4.3-4-8.2-6-11.7s-3.8-6.6-5.4-9.3c-.8-1.4-1.5-2.7-2.2-4l.4-.8c3.2-5.9 6.4-12 9.2-18.2l1.2 1.5 4 4.8c5.3 6.4 10.8 12.7 16.9 18.5.4.4.7.7 1.4 1.1.4.2.7.3 1.1.4 0 .1.1.3.1.4.2.8.5 1.5.9 2.3.7 1.4 1.7 2.7 3.1 3.5.4.3.9.5 1.4.7.2.4.4.8.7 1.2-.2.4-.3.8-.5 1.1-.2.8-.6 1.5-.7 2.4-.2.8-.3 1.6-.3 2.5-.1 1.7.1 3.3.6 4.9.6 2 1.6 3.9 2.8 5.6-.2.8-.3 1.6-.5 2.4l-.7 4.4c-.4 2.9-.7 5.8-.9 8.8-.4 5.9-.5 11.7-.2 17.6.3 5.9.9 11.7 1.8 17.5.9 5.8 2.2 11.5 3.7 17.2 1.5 5.7 3.4 11.2 5.3 16.8 1.9 5.5 4.1 11 6.3 16.4 2.5 6.1 5 11.9 7.4 17.6 2.5 5.6 4.7 11.1 6.5 16.5 1.8 5.3 3.2 10.5 4.2 15.4.1.6.2 1.2.4 1.8l.3 1.8c.2 1.2.3 2.4.5 3.5.2 1.2.2 2.3.3 3.4v2.7c0 1 .1 1.9.1 2.9.3.3.4.6.6 1 .3-.3.6-.6.8-1 .6-2.3 1.2-4.5 1.8-6.6.4-1.5.8-2.9 1.1-4.2.3-1 .5-1.9.7-2.7v3l28.4-2.5-1.4-5.3c-.4-1.4-.7-2.9-1.1-4.3-.4-1.4-.7-2.9-1-4.3-.3-1.4-.6-2.9-.9-4.4-1.2-5.8-2.1-11.7-2.8-17.6-1.4-11.8-1.9-23.7-1.4-35.6.5-13.4 2.4-26.1 3.9-37.7 1.5-11.6 2.4-22.1 2.2-31-.1-4.5-.4-8.5-.9-12v-.5c.1-5.3-.7-10.3-1.8-15.1-1.1-4.8-2.5-9.3-3.8-13.5-1.3-4.3-2.5-8.3-3.4-12.2-.9-3.8-1.4-7.5-1.6-10.8-.2-3.4.1-6.3.3-9 .1-1.4.1-2.6.1-3.8.1-.4.2-.7.3-1.1.3.4.5.7.8 1.1 1.3 1.8 2.7 3.9 4.2 6.2 1.4 2.3 3 4.7 4.6 7.2 1.7 2.6 3.4 5.2 5.5 7.9.6.7 1.4 1.3 2.3 1.7.9.4 2.1.4 3 .1 2-.6 3.4-2.1 4.2-3.8l.6-1.5c.1-.5.2-.9.3-1.4l.6-2.8 1.2-5.6c.8-3.7 1.5-7.5 2.2-11.2l2.1-11.2 1.1-5.6 1.3-6.4-.4-.1c.1-.5 1.3-1.5 2.6-2.4zm-369.3 57.5c-4.2-5.7-8.7-12-13.6-18.6 1.1-1.6 2.2-3.3 3.4-5l10.1-15c0 .2.1.5.1.7.7 4.7.9 9.8.6 15.1-.1 2.7-.5 5.4-.8 8.2-.3 2.8-.6 5.7-.5 8.7.1.8.1 1.5.2 2.3.2.8.3 1.5.5 2.3.3.9.6 1.8 1.1 2.7-.4-.5-.8-1-1.1-1.4zm4.9 6.8c-.4-.6-.9-1.2-1.3-1.8.4.4.9.9 1.4 1.2-.1.2-.1.4-.1.6zm132.7-1.8c-.6 1.1-1.1 2.1-1.8 3.1l-.9 1.5-.8 1.2-3.4-.5c.3-3.1.7-6.2 1.2-9.3.8-.1 1.5-.2 2.3-.3 1.9-.3 3.8-.8 5.7-1.2.2 0 .3-.1.5-.1-.9 1.9-1.9 3.7-2.8 5.6zm152.8-7.9c-.6 2.9-2.1 5.5-3.9 8-1.8 2.5-3.9 4.7-5.9 7.1l-.3.3c-.4-.2-.7-.4-1-.6-1.9-1.2-3.3-2.6-4.3-3.7 0-.1.1-.1.1-.2.2-.3.3-.5.4-.9l.2-.8v-.2c0-.1.1-.1 0-.2l-.3-.3-1.3-1.3-1.1-1.1c-2.9-2.9-5.7-6-8.3-9.2-2.6-3.2-5-6.6-7.2-10-1.1-1.7-2.2-3.5-3.2-5.3l-.8-1.3-.6-1.1 1.3-.6c8.3-3.9 16-7.5 22.8-10 .9-.3 1.7-.6 2.5-.9.1 0 .1 0 .2-.1-.3.8-.4 1.7-.5 2.6-.2 2.2.5 4.4 1.6 6.3 1.7 2.9 4.4 5 7.3 6.4l.2.4.4 1.1c.3.7.5 1.5.7 2.2.4 1.5.8 2.9 1.1 4.4.5 3.1.6 6.1-.1 9zm26 154.1c-1.5-8.5-3.5-18.6-5.3-29.8-1.8-11.2-3.2-23.7-2.5-36.8.1-2.8.4-5.6.8-8.3 1.3 5.7 2.5 11.6 3.5 17.7 2.6 15.9 3.8 32.1 4.3 48.2.2 5 .3 10 .3 15-.4-2-.7-4-1.1-6zm-25.4-208.1z"/></svg>