<svg xmlns="http://www.w3.org/2000/svg" viewBox="0 0 828 828"><circle fill="#5D59A3" cx="414" cy="414" r="368"/><path fill="#6A6EB1" d="M414 0C185.4 0 0 185.4 0 414s185.4 414 414 414 414-185.3 414-414C828 185.4 642.6 0 414 0zm165 116.3c-1.2-.7-2.4-1.4-3.6-2 1.2.6 2.4 1.3 3.6 2zM73.5 414C73.5 226.2 226.2 73.5 414 73.5c58.4 0 113.3 14.8 161.4 40.7-32-15.5-126.9-42.3-154.3 166.6H486v31.3s-8.3.4-20 18.1c-9.3 14-10 28.3-10 28.3l3.4 16.3s-1 4.7-5.3 10.1c-2.8 3.7-16.2 16.5-23.3 24.6-3.5 4-3.8 7-3.8 7s-.1 2.5 1.7 4.2c1 1 8.8 5.3 13.6 9 3.5 2.7 4.5 5.3 4.5 5.3s.4 2.5-.3 7c-.3 2.1-2.5 6.5-3 8.9-.7 2.8.3 3.3.3 3.3l6.5 4.8s.7 1.5.2 2c-1.3 1-3.3 3-3.5 5.4s2.6 4.1 4.3 6.1c2 2.3 2.8 4.9 2.8 4.9v10.1c0 18.4 13.4 20.2 13.4 20.2h18.3c43.5-3.8 44.3-36.1 44.3-36.1l2.4-45.2V280.8h138v31.3c-31 10.7-31 54.3-31 54.3v68.4c-1.9 54.5-13.9 85.1-36.4 110.7-40.6 46.2-117.3 44.1-117.3 44.1h-18.4v20.2c0 35.8 30.8 57 30.8 57v25.4H356.1c-32.3 38.8-70.6 33.9-93.9 25.5-4.3-1.6-9.6-3.8-17.2-8.2C142.7 650.8 73.5 540.4 73.5 414z"/><path fill="#6A6EB1" d="M342.1 589.7h18.4V610c0 35.8-30.8 57-30.8 57v25.4h26.7c31.6-38.1 57.4-118.3 57.2-278.5-.1-52.5 2.7-96.3 7.5-132.9h-79v31.3s8.3.4 20 18.1c9.3 14 10 28.3 10 28.3l-3.4 16.3s1 4.7 5.3 10.1c2.8 3.7 16.2 16.5 23.3 24.6 3.5 4 3.8 7 3.8 7s.1 2.5-1.7 4.2c-1 1-8.8 5.3-13.6 9-3.5 2.7-4.5 5.3-4.5 5.3s-.4 2.5.3 7c.3 2.1 2.5 6.5 3 8.9.7 2.8-.3 3.3-.3 3.3l-6.5 4.8s-.7 1.5-.2 2c1.3 1 3.3 3 3.5 5.4.2 2.5-2.7 4.1-4.4 6.1-2 2.3-2.8 4.9-2.8 4.9v10.1c0 18.4-13.4 20.2-13.4 20.2h-18.4c-43.5-3.8-44.3-36.1-44.3-36.1l-2.4-45.2V280.8h-138v31.3c31 10.7 31 54.3 31 54.3v68.4c1.9 54.5 13.9 85.1 36.4 110.7 40.5 46.3 117.3 44.2 117.3 44.2z"/></svg>